<svg width="38" height="36" viewBox="0 0 38 36" fill="none" xmlns="http://www.w3.org/2000/svg">
<path d="M3.5 10L2.43934 8.93934L1.37868 10L2.43934 11.0607L3.5 10ZM34 14C34 14.8284 34.6716 15.5 35.5 15.5C36.3284 15.5 37 14.8284 37 14H34ZM10.4393 0.93934L2.43934 8.93934L4.56066 11.0607L12.5607 3.06066L10.4393 0.93934ZM2.43934 11.0607L10.4393 19.0607L12.5607 16.9393L4.56066 8.93934L2.43934 11.0607ZM3.5 11.5H33.5V8.5H3.5V11.5ZM34 12V14H37V12H34ZM33.5 11.5C33.7761 11.5 34 11.7239 34 12H37C37 10.067 35.433 8.5 33.5 8.5V11.5Z" fill="white"/>
<path d="M35.5 26L36.5607 24.9393L37.6213 26L36.5607 27.0607L35.5 26ZM3.50001 26L3.50001 24.5L3.50001 26ZM7.97909e-06 22C7.90666e-06 21.1716 0.671581 20.5 1.50001 20.5C2.32843 20.5 3.00001 21.1716 3.00001 22L7.97909e-06 22ZM28.5607 16.9393L36.5607 24.9393L34.4393 27.0607L26.4393 19.0607L28.5607 16.9393ZM36.5607 27.0607L28.5607 35.0607L26.4393 32.9393L34.4393 24.9393L36.5607 27.0607ZM35.5 27.5L3.50001 27.5L3.50001 24.5L35.5 24.5L35.5 27.5ZM8.15393e-06 24L7.97909e-06 22L3.00001 22L3.00001 24L8.15393e-06 24ZM3.50001 27.5C1.56701 27.5 8.32292e-06 25.933 8.15393e-06 24L3.00001 24C3.00001 24.2761 3.22387 24.5 3.50001 24.5L3.50001 27.5Z" fill="white"/>
</svg>