<svg width="15" height="9" viewBox="0 0 15 9" fill="none" xmlns="http://www.w3.org/2000/svg">
    <path d="M8.21669 8.68616L14.7032 1.82908C15.0989 1.41072 15.0989 0.732207 14.7032 0.31384C14.3073 -0.104613 13.6657 -0.104613 13.2698 0.31384L8.51352 5.34188C8.51352 5.34188 8.03491 5.90851 7.50387 5.89662C6.9856 5.88502 6.4865 5.34188 6.4865 5.34188L1.73019 0.314011C1.33435 -0.104443 0.692676 -0.104443 0.296838 0.314011C0.0990801 0.523152 -3.4857e-08 0.797435 -4.68426e-08 1.07163C-5.88281e-08 1.34583 0.09908 1.62003 0.296838 1.82926L6.78333 8.68616C7.17917 9.10461 7.82085 9.10461 8.21669 8.68616Z" fill="#F6F6F6"/>
</svg>