<svg width="25" height="24" viewBox="0 0 25 24" fill="none" xmlns="http://www.w3.org/2000/svg">
    <path fill-rule="evenodd" clip-rule="evenodd" d="M8.40003 7.30058C7.40305 7.46909 6.44811 7.84654 5.59992 8.41329C4.41588 9.20445 3.49303 10.3289 2.94809 11.6446C2.40313 12.9603 2.26054 14.4079 2.53836 15.8045C2.81617 17.2012 3.50191 18.4841 4.50885 19.491C5.5158 20.4981 6.79872 21.1838 8.19538 21.4616C9.59205 21.7394 11.0397 21.5968 12.3554 21.0519C13.671 20.507 14.7955 19.584 15.5866 18.4C16.1534 17.5518 16.5309 16.5969 16.6994 15.5999H9.60003C9.28178 15.5999 8.97655 15.4734 8.75151 15.2484C8.52646 15.0234 8.40003 14.7181 8.40003 14.3999V7.30058ZM4.26654 6.41776C5.84527 5.3629 7.70133 4.79987 9.60003 4.79987C10.2628 4.79987 10.8 5.33713 10.8 5.99987V13.1999H18.0001C18.6628 13.1999 19.2001 13.7371 19.2001 14.3999C19.2001 16.2987 18.637 18.1547 17.5822 19.7334C16.5273 21.3122 15.028 22.5425 13.2738 23.2691C11.5197 23.9957 9.58939 24.1859 7.72716 23.8155C5.86494 23.4451 4.15438 22.5308 2.81179 21.1882C1.4692 19.8455 0.554881 18.135 0.184464 16.2727C-0.185954 14.4106 0.00416323 12.4803 0.730766 10.7261C1.45737 8.97194 2.68783 7.47262 4.26654 6.41776Z" fill="#868B90"/>
    <path fill-rule="evenodd" clip-rule="evenodd" d="M14.3515 0.351469C14.5765 0.126433 14.8818 0 15.2 0C17.7461 0 20.1879 1.01142 21.9883 2.81178C23.7886 4.61215 24.8 7.05395 24.8 9.60004C24.8 10.2628 24.2628 10.8 23.6 10.8H15.2C14.8818 10.8 14.5765 10.6736 14.3515 10.4486C14.1265 10.2236 14 9.91828 14 9.60004V1.2C14 0.881739 14.1265 0.576518 14.3515 0.351469ZM16.4 2.50068V8.40003H22.2994C22.0518 6.93565 21.3552 5.57288 20.2911 4.50885C19.2271 3.44482 17.8644 2.7482 16.4 2.50068Z" fill="#868B90"/>
</svg>