<svg width="45" height="50" viewBox="0 0 45 50" fill="none" xmlns="http://www.w3.org/2000/svg">
    <path d="M33.1062 5.31201L34.4905 3.92776L33.1062 2.54351L31.722 3.92776L33.1062 5.31201ZM27.8859 45.117C26.8047 45.117 25.9283 45.9934 25.9283 47.0746C25.9283 48.1558 26.8047 49.0322 27.8859 49.0322L27.8859 45.117ZM44.9311 14.3684L34.4905 3.92776L31.722 6.69626L42.1626 17.1369L44.9311 14.3684ZM31.722 3.92776L21.2813 14.3684L24.0498 17.1369L34.4905 6.69626L31.722 3.92776ZM31.1486 5.31201L31.1486 44.4644L35.0638 44.4644L35.0638 5.31201L31.1486 5.31201ZM30.4961 45.117L27.8859 45.117L27.8859 49.0322L30.4961 49.0322L30.4961 45.117ZM31.1486 44.4644C31.1486 44.8248 30.8564 45.117 30.4961 45.117L30.4961 49.0322C33.0188 49.0322 35.0638 46.9872 35.0638 44.4644L31.1486 44.4644Z" fill="#00FF45"/>
    <path d="M12.2234 47.0742L13.6077 48.4585L12.2234 49.8427L10.8392 48.4585L12.2234 47.0742ZM12.2234 5.31162L14.181 5.31162L12.2234 5.31162ZM17.4437 0.743832C18.5249 0.743832 19.4014 1.62029 19.4014 2.70145C19.4014 3.78262 18.5249 4.65908 17.4437 4.65908L17.4437 0.743832ZM24.0483 38.0178L13.6077 48.4585L10.8392 45.69L21.2798 35.2493L24.0483 38.0178ZM10.8392 48.4585L0.398513 38.0178L3.16701 35.2493L13.6077 45.69L10.8392 48.4585ZM10.2658 47.0742L10.2658 5.31162L14.181 5.31162L14.181 47.0742L10.2658 47.0742ZM14.8336 0.743832L17.4437 0.743832L17.4437 4.65908L14.8336 4.65908L14.8336 0.743832ZM10.2658 5.31162C10.2658 2.78889 12.3109 0.743832 14.8336 0.743832L14.8336 4.65908C14.4732 4.65908 14.181 4.95123 14.181 5.31162L10.2658 5.31162Z" fill="#00FF45"/>
</svg>