<svg width="16" height="15" viewBox="0 0 16 15" fill="none" xmlns="http://www.w3.org/2000/svg">
    <path d="M7.23578 3.575H8.66578V5.005H7.23578V3.575ZM7.23578 6.435H8.66578V10.725H7.23578V6.435ZM7.95078 0C4.00398 0 0.800781 3.2032 0.800781 7.15C0.800781 11.0968 4.00398 14.3 7.95078 14.3C11.8976 14.3 15.1008 11.0968 15.1008 7.15C15.1008 3.2032 11.8976 0 7.95078 0ZM7.95078 12.87C4.79763 12.87 2.23078 10.3032 2.23078 7.15C2.23078 3.99685 4.79763 1.43 7.95078 1.43C11.1039 1.43 13.6708 3.99685 13.6708 7.15C13.6708 10.3032 11.1039 12.87 7.95078 12.87Z" fill="#999999"/>
</svg>
