<svg width="32" height="32" viewBox="0 0 32 32" fill="none" xmlns="http://www.w3.org/2000/svg">
    <path d="M28.1689 6.03502L29.5355 6.40652L28.1689 6.03502ZM24.7693 9.43467L25.1408 10.8012L24.7693 9.43467ZM23.1463 24.2371L24.1476 23.2358L23.1463 24.2371ZM23.1463 17.6292L24.1476 18.6306L23.1463 17.6292ZM29.7542 10.0765L30.7555 9.07516L29.7542 10.0765ZM29.7542 29.9016L30.7555 30.903L29.7542 29.9016ZM27.7435 2.07969L28.115 0.713158L27.7435 2.07969ZM28.3101 2.6463L26.9436 3.01781L28.3101 2.6463ZM5.68033 3.46757L27.2594 3.46757V0.635315L5.68033 0.635315V3.46757ZM8.35524 31.7902L27.0009 31.7902V28.9579L8.35524 28.9579V31.7902ZM0.487854 5.82779L0.487854 23.9228H3.32011L3.32011 5.82779H0.487854ZM27.0009 8.188L5.68033 8.188V11.0203L27.0009 11.0203V8.188ZM28.8104 24.7095V27.1484H31.6427V24.7095H28.8104ZM28.8104 12.8298V17.1568H31.6427V12.8298H28.8104ZM21.2577 20.3824V21.4839H24.09V20.3824H21.2577ZM25.8995 26.1256H30.2266V23.2934H25.8995V26.1256ZM28.8104 17.1568L28.8104 24.7095H31.6427L31.6427 17.1568H28.8104ZM30.2266 15.7407H25.8995L25.8995 18.5729H30.2266V15.7407ZM21.8647 8.188H21.7298V11.0203H21.8647V8.188ZM26.9223 3.1304C26.9223 4.74373 26.9098 5.26859 26.8024 5.66351L29.5355 6.40652C29.767 5.55474 29.7545 4.55876 29.7545 3.1304H26.9223ZM21.8647 11.0203C23.293 11.0203 24.289 11.0328 25.1408 10.8012L24.3978 8.06814C24.0028 8.1755 23.478 8.188 21.8647 8.188V11.0203ZM26.8024 5.66351C26.484 6.83475 25.569 7.74972 24.3978 8.06814L25.1408 10.8012C27.2813 10.2193 28.9535 8.54708 29.5355 6.40652L26.8024 5.66351ZM21.2577 21.4839C21.2577 22.2041 21.2547 22.8868 21.3294 23.4423C21.4096 24.0385 21.6017 24.6953 22.1449 25.2385L24.1476 23.2358C24.2184 23.3066 24.1744 23.347 24.1364 23.0649C24.093 22.742 24.09 22.2842 24.09 21.4839H21.2577ZM25.8995 23.2934C25.0992 23.2934 24.6414 23.2904 24.3185 23.247C24.0363 23.209 24.0768 23.165 24.1476 23.2358L22.1449 25.2385C22.6881 25.7816 23.3449 25.9738 23.9411 26.054C24.4966 26.1286 25.1792 26.1256 25.8995 26.1256V23.2934ZM24.09 20.3824C24.09 19.5821 24.093 19.1243 24.1364 18.8014C24.1744 18.5193 24.2184 18.5598 24.1476 18.6306L22.1449 16.6278C21.6017 17.171 21.4096 17.8278 21.3294 18.4241C21.2547 18.9795 21.2577 19.6622 21.2577 20.3824H24.09ZM25.8995 15.7407C25.1792 15.7407 24.4966 15.7377 23.9411 15.8124C23.3449 15.8925 22.6881 16.0847 22.1449 16.6278L24.1476 18.6306C24.0768 18.7013 24.0363 18.6573 24.3185 18.6194C24.6414 18.576 25.0992 18.5729 25.8995 18.5729L25.8995 15.7407ZM27.0009 11.0203C27.8013 11.0203 28.259 11.0233 28.5819 11.0667C28.8641 11.1046 28.8236 11.1486 28.7528 11.0779L30.7555 9.07516C30.2124 8.532 29.5556 8.33984 28.9593 8.25968C28.4038 8.18499 27.7212 8.188 27.0009 8.188V11.0203ZM31.6427 12.8298C31.6427 12.1095 31.6457 11.4269 31.571 10.8714C31.4909 10.2751 31.2987 9.61832 30.7555 9.07516L28.7528 11.0779C28.682 11.0071 28.7261 10.9666 28.764 11.2488C28.8074 11.5717 28.8104 12.0294 28.8104 12.8298H31.6427ZM27.0009 31.7902C27.7212 31.7902 28.4038 31.7932 28.9593 31.7185C29.5555 31.6383 30.2124 31.4462 30.7555 30.903L28.7528 28.9003C28.8236 28.8295 28.8641 28.8735 28.5819 28.9115C28.259 28.9549 27.8013 28.9579 27.0009 28.9579V31.7902ZM28.8104 27.1484C28.8104 27.9487 28.8074 28.4065 28.764 28.7294C28.7261 29.0116 28.682 28.9711 28.7528 28.9003L30.7555 30.903C31.2987 30.3598 31.4909 29.703 31.571 29.1068C31.6457 28.5513 31.6427 27.8687 31.6427 27.1484H28.8104ZM8.35524 28.9579C6.79463 28.9579 5.76663 28.9549 5.00454 28.8524C4.28319 28.7554 4.01551 28.5933 3.8501 28.4279L1.84739 30.4306C2.62675 31.21 3.59174 31.5202 4.62715 31.6594C5.62183 31.7932 6.87469 31.7902 8.35524 31.7902V28.9579ZM0.487854 23.9228C0.487854 25.4033 0.484846 26.6562 0.618576 27.6509C0.757784 28.6863 1.06804 29.6513 1.84739 30.4306L3.8501 28.4279C3.68469 28.2625 3.52256 27.9948 3.42558 27.2735C3.32312 26.5114 3.32011 25.4834 3.32011 23.9228H0.487854ZM0.487854 5.82779C0.487854 8.69551 2.8126 11.0203 5.68033 11.0203V8.188C4.37682 8.188 3.32011 7.1313 3.32011 5.82779H0.487854ZM27.2594 3.46757C27.3246 3.46757 27.3732 3.46758 27.4147 3.46796C27.4561 3.46833 27.4792 3.46899 27.4922 3.46959C27.5205 3.4709 27.4623 3.47075 27.372 3.44622L28.115 0.713158C27.7827 0.62281 27.4204 0.635315 27.2594 0.635315V3.46757ZM29.7545 3.1304C29.7545 2.96941 29.767 2.60711 29.6767 2.27479L26.9436 3.01781C26.9191 2.92758 26.9189 2.86934 26.9202 2.89766C26.9208 2.91062 26.9215 2.93371 26.9219 2.97515C26.9222 3.01664 26.9223 3.06519 26.9223 3.1304H29.7545ZM27.372 3.44622C27.1634 3.38949 27.0003 3.22647 26.9436 3.01781L29.6767 2.27479C29.4699 1.51415 28.8757 0.919947 28.115 0.713158L27.372 3.44622ZM3.32011 5.82779C3.32011 4.52428 4.37682 3.46757 5.68033 3.46757V0.635315C2.8126 0.635315 0.487854 2.96006 0.487854 5.82779H3.32011Z" fill="#DEE1E7"/>
</svg>