<svg width="18" height="18" viewBox="0 0 18 18" fill="none" xmlns="http://www.w3.org/2000/svg">
    <path d="M8.86784 17.9212C13.7233 17.9212 17.6595 13.9851 17.6595 9.12956C17.6595 4.27405 13.7233 0.337891 8.86784 0.337891C4.01234 0.337891 0.0761719 4.27405 0.0761719 9.12956C0.0761719 13.9851 4.01234 17.9212 8.86784 17.9212Z" fill="#627EEA"/>
    <path d="M9.14258 2.53516V7.40904L13.262 9.24979L9.14258 2.53516Z" fill="white" fill-opacity="0.602"/>
    <path d="M9.14148 2.53516L5.02148 9.24979L9.14148 7.40904V2.53516Z" fill="white"/>
    <path d="M9.14258 12.4089V15.7206L13.2648 10.0176L9.14258 12.4089Z" fill="white" fill-opacity="0.602"/>
    <path d="M9.14148 15.7206V12.4084L5.02148 10.0176L9.14148 15.7206Z" fill="white"/>
    <path d="M9.14258 11.6417L13.262 9.24981L9.14258 7.41016V11.6417Z" fill="white" fill-opacity="0.2"/>
    <path d="M5.02148 9.24981L9.14148 11.6417V7.41016L5.02148 9.24981Z" fill="white" fill-opacity="0.602"/>
</svg>