<svg width="17" height="16" viewBox="0 0 17 16" fill="none" xmlns="http://www.w3.org/2000/svg">
    <g clip-path="url(#clip0_2242_3265)">
        <path fill-rule="evenodd" clip-rule="evenodd" d="M16.5 8C16.5 12.4183 12.9183 16 8.5 16C4.08172 16 0.5 12.4183 0.5 8C0.5 3.58172 4.08172 0 8.5 0C12.9183 0 16.5 3.58172 16.5 8ZM8.78649 5.90597C8.00837 6.22961 6.45323 6.89948 4.12107 7.91556C3.74236 8.06616 3.54398 8.21349 3.52592 8.35755C3.4954 8.60101 3.80028 8.69688 4.21545 8.82743C4.27193 8.84519 4.33044 8.86359 4.39043 8.88309C4.7989 9.01586 5.34836 9.1712 5.634 9.17737C5.8931 9.18297 6.18229 9.07615 6.50156 8.85691C8.68058 7.38602 9.80539 6.64256 9.87601 6.62653C9.92583 6.61522 9.99487 6.601 10.0416 6.64258C10.0884 6.68416 10.0838 6.7629 10.0789 6.78402C10.0487 6.91278 8.85189 8.02541 8.23256 8.6012C8.03948 8.7807 7.90252 8.90803 7.87452 8.93711C7.81181 9.00225 7.74789 9.06386 7.68646 9.12309C7.30698 9.4889 7.02241 9.76323 7.70221 10.2112C8.02889 10.4265 8.2903 10.6045 8.55109 10.7821C8.83591 10.9761 9.11999 11.1695 9.48755 11.4105C9.58119 11.4718 9.67062 11.5356 9.75773 11.5977C10.0892 11.834 10.387 12.0463 10.7549 12.0124C10.9686 11.9928 11.1894 11.7918 11.3016 11.1923C11.5666 9.77544 12.0876 6.70565 12.208 5.44067C12.2185 5.32984 12.2052 5.188 12.1946 5.12573C12.1839 5.06347 12.1616 4.97475 12.0807 4.90908C11.9849 4.83131 11.8369 4.81491 11.7707 4.81607C11.4698 4.82137 11.0082 4.98189 8.78649 5.90597Z" fill="white"/>
    </g>
    <defs>
        <clipPath id="clip0_2242_3265">
            <rect width="16" height="16" fill="white" transform="translate(0.5)"/>
        </clipPath>
    </defs>
</svg>
