<svg width="43" height="44" viewBox="0 0 43 44" fill="none" xmlns="http://www.w3.org/2000/svg">
    <path fill-rule="evenodd" clip-rule="evenodd" d="M31.3665 9.08084C28.6337 7.92016 25.6498 7.49785 22.7124 7.8479C22.2826 7.89913 22.0677 7.92474 21.9465 8.08789C21.8252 8.25104 21.8642 8.47249 21.9421 8.91541L24.5761 23.8859C24.6461 24.2835 24.681 24.4823 24.5852 24.6358C24.4893 24.7894 24.2953 24.8452 23.9074 24.9568L9.29947 29.1597C8.86728 29.2841 8.65119 29.3462 8.55779 29.5267C8.46439 29.7073 8.53569 29.9116 8.67829 30.3203C9.65278 33.1134 11.3417 35.6093 13.5839 37.5555C16.0642 39.7084 19.1153 41.0964 22.3679 41.5516C25.6206 42.0068 28.9354 41.5097 31.9115 40.1204C34.8875 38.7312 37.3972 36.5092 39.1369 33.7235C40.8767 30.9378 41.7718 27.7076 41.7142 24.4237C41.6565 21.1399 40.6485 17.9431 38.812 15.2202C36.9756 12.4972 34.3894 10.3648 31.3665 9.08084Z" fill="#7E869E" fill-opacity="0.25"/>
    <path d="M16.34 2.63376C16.2239 2.20021 16.1658 1.98343 15.9889 1.88648C15.812 1.78954 15.6045 1.85515 15.1895 1.98638C12.8347 2.73094 10.6254 3.88124 8.66223 5.38762C6.44914 7.08578 4.59221 9.20321 3.19744 11.619C1.80268 14.0348 0.897397 16.7017 0.53329 19.4674C0.210302 21.9207 0.31877 24.4092 0.851353 26.8207C0.945221 27.2458 0.992155 27.4583 1.16455 27.563C1.33694 27.6677 1.55372 27.6096 1.98728 27.4935L20.6816 22.4843C21.1115 22.3691 21.3264 22.3116 21.4242 22.1422C21.5219 21.9729 21.4643 21.7579 21.3492 21.3281L16.34 2.63376Z" fill="#F6F6F6"/>
</svg>