<svg width="22" height="22" viewBox="0 0 22 22" fill="none" xmlns="http://www.w3.org/2000/svg">
    <path d="M2.61945 0C4.06144 0 5.23371 1.17227 5.23371 2.61426C5.23371 4.05626 4.06144 5.22853 2.61945 5.22853C1.17227 5.22853 0 4.05626 0 2.61426C0 1.17227 1.17227 0 2.61945 0ZM0.357905 7.20997H4.87581V21.7181H0.357905V7.20997Z" fill="#F5F5F5"/>
    <path d="M7.70703 7.20947H12.033V9.1961H12.0953C12.697 8.05495 14.1701 6.85156 16.3642 6.85156C20.934 6.85156 21.7743 9.85485 21.7743 13.7607V21.7176H17.2667V14.6632C17.2667 12.9826 17.2356 10.8145 14.9222 10.8145C12.5725 10.8145 12.2197 12.6507 12.2197 14.5387V21.7176H7.71222V7.20947H7.70703Z" fill="#F5F5F5"/>
</svg>
