<svg width="27" height="22" viewBox="0 0 27 22" fill="none" xmlns="http://www.w3.org/2000/svg">
    <path d="M26.0181 2.58421C25.1882 2.95767 24.2701 3.1859 23.3728 3.33633C23.7981 3.26371 24.4205 2.49603 24.6747 2.18481C25.0534 1.7076 25.3749 1.16815 25.5513 0.582015L25.5461 0.441965L25.4061 0.45234C24.405 0.986604 23.3728 1.37563 22.2731 1.65054L22.0552 1.59349L21.7803 1.31339C21.3187 0.919172 20.8207 0.60795 20.2605 0.384908C19.524 0.0840604 18.72 -0.0404283 17.9316 0.011442C17.1587 0.0633123 16.4066 0.275981 15.7219 0.633886C15.0372 0.991791 14.4251 1.48975 13.9375 2.09144C13.4344 2.71388 13.0661 3.44526 12.8742 4.22331C12.6875 4.97543 12.703 5.71718 12.8172 6.47448L12.7082 6.59897C8.40299 5.96097 4.83431 4.42042 1.93476 1.11628C1.81027 0.981417 1.74284 0.981417 1.6391 1.13184C0.373466 3.03029 0.985536 6.08545 2.56758 7.58451C2.78025 7.7868 2.9981 7.98391 3.23152 8.16545C3.14334 8.18101 2.09037 8.0669 1.15152 7.58451L0.949226 7.69343C0.938852 7.90091 0.954413 8.08765 0.985536 8.31069C1.22933 10.2351 2.56239 12.0194 4.38823 12.7145C4.60608 12.8078 4.84469 12.8856 5.0781 12.9271C4.66314 13.0205 4.23262 13.0828 3.0396 12.9894C2.89436 12.9583 2.83212 13.0361 2.89436 13.1761C3.79172 15.6192 5.72648 16.3506 7.17885 16.7655C7.37077 16.7967 7.56788 16.7967 7.7598 16.8434L7.72349 16.8797C7.24109 17.611 5.57606 18.1609 4.798 18.4306C3.38194 18.9234 1.84658 19.1464 0.352718 19.0012C0.114115 18.9648 0.0622444 18.97 0 19.0012L0.0674314 19.162C0.368279 19.3643 0.679501 19.5406 0.990723 19.7118C1.93995 20.2149 2.92548 20.6143 3.96289 20.8996C9.30034 22.3727 15.3121 21.2886 19.3217 17.3102C22.4702 14.1824 23.575 9.87199 23.575 5.55119C23.575 5.38002 23.7722 5.29184 23.8915 5.19847C24.711 4.58122 25.3698 3.84466 25.9818 3.02511C26.1167 2.83837 26.1219 2.67758 26.1219 2.61014V2.58421H26.0181Z" fill="#F5F5F5"/>
</svg>