<svg width="32" height="32" viewBox="0 0 32 32" fill="none" xmlns="http://www.w3.org/2000/svg">
    <path d="M2.61328 15.6781L1.50747 14.7934L0.799751 15.6781L1.50747 16.5627L2.61328 15.6781ZM14.2963 17.0942C15.0785 17.0942 15.7125 16.4602 15.7125 15.6781C15.7125 14.896 15.0785 14.262 14.2963 14.262V17.0942ZM6.69994 8.30285L1.50747 14.7934L3.71909 16.5627L8.91157 10.0721L6.69994 8.30285ZM1.50747 16.5627L6.69994 23.0533L8.91157 21.284L3.71909 14.7934L1.50747 16.5627ZM2.61328 17.0942H14.2963V14.262H2.61328V17.0942Z" fill="#DEE1E7"/>
    <path d="M16.4196 26.633L16.6524 25.2361L16.4196 26.633ZM13.4816 25.6512L14.5621 24.7358L13.4816 25.6512ZM27.4869 27.3759L26.5715 26.2954L27.4869 27.3759ZM27.4869 3.97901L26.5715 5.05955L27.4869 3.97901ZM13.4816 5.70378L14.5621 6.61913L13.4816 5.70378ZM16.6524 6.1188L21.6503 5.28582L21.1847 2.49209L16.1868 3.32507L16.6524 6.1188ZM27.1574 9.95099V21.4039H29.9896V9.95099H27.1574ZM21.6503 26.0691L16.6524 25.2361L16.1868 28.0299L21.1847 28.8628L21.6503 26.0691ZM14.4122 10.6563V8.76329H11.58V10.6563H14.4122ZM14.4122 22.5917V20.9556H11.58V22.5917H14.4122ZM16.6524 25.2361C15.799 25.0939 15.2887 25.0062 14.9236 24.8975C14.756 24.8477 14.6664 24.8062 14.6193 24.7791C14.5802 24.7568 14.5688 24.7438 14.5621 24.7358L12.401 26.5665C12.8888 27.1423 13.5038 27.43 14.1154 27.6121C14.6892 27.7829 15.4052 27.8996 16.1868 28.0299L16.6524 25.2361ZM11.58 22.5917C11.58 23.3841 11.5774 24.1095 11.6516 24.7036C11.7306 25.3368 11.9133 25.9908 12.401 26.5665L14.5621 24.7358C14.5553 24.7278 14.5444 24.7145 14.5288 24.6723C14.5099 24.6213 14.4837 24.5261 14.462 24.3527C14.4148 23.9746 14.4122 23.4568 14.4122 22.5917H11.58ZM27.1574 21.4039C27.1574 23.131 27.154 24.2745 27.0356 25.1086C26.9228 25.9036 26.7374 26.1549 26.5715 26.2954L28.4022 28.4565C29.323 27.6765 29.6809 26.6256 29.8398 25.5066C29.993 24.4268 29.9896 23.0445 29.9896 21.4039H27.1574ZM21.1847 28.8628C22.8029 29.1326 24.1659 29.3631 25.2562 29.3895C26.3861 29.4168 27.4815 29.2365 28.4022 28.4565L26.5715 26.2954C26.4056 26.4359 26.1273 26.5774 25.3246 26.5581C24.4823 26.5377 23.3539 26.3531 21.6503 26.0691L21.1847 28.8628ZM21.6503 5.28582C23.3539 5.00188 24.4823 4.81724 25.3246 4.79689C26.1273 4.7775 26.4056 4.91902 26.5715 5.05955L28.4022 2.89848C27.4815 2.11849 26.3861 1.93816 25.2562 1.96546C24.1659 1.9918 22.8029 2.22239 21.1847 2.49209L21.6503 5.28582ZM29.9896 9.95099C29.9896 8.31044 29.993 6.92812 29.8398 5.84832C29.6809 4.72933 29.323 3.67846 28.4022 2.89848L26.5715 5.05955C26.7374 5.20008 26.9228 5.45137 27.0356 6.24633C27.154 7.08049 27.1574 8.2239 27.1574 9.95099H29.9896ZM16.1868 3.32507C15.4052 3.45535 14.6892 3.57207 14.1154 3.74289C13.5038 3.92499 12.8888 4.21269 12.401 4.78843L14.5621 6.61913C14.5688 6.61116 14.5802 6.59816 14.6193 6.5758C14.6664 6.54879 14.756 6.50728 14.9236 6.4574C15.2887 6.3487 15.799 6.26103 16.6524 6.1188L16.1868 3.32507ZM14.4122 8.76329C14.4122 7.89811 14.4148 7.38031 14.462 7.00227C14.4837 6.82882 14.5099 6.73361 14.5288 6.68265C14.5444 6.64045 14.5553 6.62709 14.5621 6.61913L12.401 4.78843C11.9133 5.36417 11.7306 6.01811 11.6516 6.65138C11.5774 7.24543 11.58 7.97084 11.58 8.76329H14.4122Z" fill="#DEE1E7"/>
</svg>