<svg width="30" height="30" viewBox="0 0 30 30" fill="none" xmlns="http://www.w3.org/2000/svg">
    <path d="M3.33333 20H0V26.6667C0 28.5 1.5 30 3.33333 30H10V26.6667H3.33333V20ZM3.33333 3.33333H10V0H3.33333C1.5 0 0 1.5 0 3.33333V10H3.33333V3.33333ZM26.6667 0H20V3.33333H26.6667V10H30V3.33333C30 1.5 28.5 0 26.6667 0ZM26.6667 26.6667H20V30H26.6667C28.5 30 30 28.5 30 26.6667V20H26.6667V26.6667ZM15 8.33333C11.3167 8.33333 8.33333 11.3167 8.33333 15C8.33333 18.6833 11.3167 21.6667 15 21.6667C18.6833 21.6667 21.6667 18.6833 21.6667 15C21.6667 11.3167 18.6833 8.33333 15 8.33333ZM15 18.3333C13.1667 18.3333 11.6667 16.8333 11.6667 15C11.6667 13.1667 13.1667 11.6667 15 11.6667C16.8333 11.6667 18.3333 13.1667 18.3333 15C18.3333 16.8333 16.8333 18.3333 15 18.3333Z" fill="#ffffff" fill-opacity="0.44"/>
</svg>