<svg width="27" height="27" viewBox="0 0 27 27" fill="none" xmlns="http://www.w3.org/2000/svg">
    <path d="M20.3217 4.74609C19.4607 4.74609 18.7656 5.44634 18.7656 6.3022C18.7656 7.16325 19.4607 7.85831 20.3217 7.85831C21.1828 7.85831 21.883 7.15806 21.883 6.3022C21.883 5.44116 21.1828 4.74609 20.3217 4.74609Z" fill="#F5F5F5"/>
    <path d="M13.3976 17.4803C11.0842 17.4803 9.20647 15.5974 9.20647 13.2892C9.20647 10.9758 11.0894 9.09808 13.3976 9.09808C15.711 9.09808 17.5887 10.9758 17.5887 13.2892C17.5887 15.5974 15.711 17.4803 13.3976 17.4803ZM13.3976 6.74316C9.78742 6.74316 6.85156 9.67902 6.85156 13.2892C6.85156 16.8994 9.78742 19.8352 13.3976 19.8352C17.0078 19.8352 19.9436 16.8994 19.9436 13.2892C19.9436 9.67902 17.0078 6.74316 13.3976 6.74316Z" fill="#F5F5F5"/>
    <path d="M7.98284 2.50015C4.9588 2.50015 2.50015 4.9588 2.50015 7.98284V18.5955C2.50015 21.6195 4.9588 24.0782 7.98284 24.0782H18.5955C21.6195 24.0782 24.0782 21.6195 24.0782 18.5955V7.98284C24.0782 4.9588 21.6195 2.50015 18.5955 2.50015H7.98284ZM18.5955 26.5783H7.98284C3.58424 26.5783 0 22.9941 0 18.5955V7.98284C0 3.57905 3.58424 0 7.98284 0H18.5955C22.9941 0 26.5783 3.57905 26.5783 7.98284V18.5955C26.5783 22.9941 22.9941 26.5783 18.5955 26.5783Z" fill="#F5F5F5"/>
</svg>
