<svg width="16" height="17" viewBox="0 0 16 17" fill="none" xmlns="http://www.w3.org/2000/svg">
    <g clip-path="url(#clip0_2586_1182)">
        <path d="M5.03344 15.0005C11.0697 15.0005 14.3722 9.99829 14.3722 5.66173C14.3722 5.5211 14.3691 5.37735 14.3628 5.23673C15.0053 4.77213 15.5597 4.19666 16 3.53735C15.4017 3.80355 14.7664 3.97741 14.1159 4.05298C14.8009 3.64243 15.3137 2.99747 15.5594 2.23767C14.915 2.61953 14.2104 2.8889 13.4756 3.03423C12.9806 2.5082 12.326 2.1599 11.6131 2.04319C10.9003 1.92648 10.1688 2.04786 9.53183 2.38855C8.89486 2.72925 8.38787 3.27029 8.08923 3.92803C7.7906 4.58577 7.71695 5.32357 7.87969 6.02735C6.575 5.96188 5.29862 5.62296 4.13332 5.03255C2.96802 4.44215 1.9398 3.61345 1.11531 2.60017C0.696266 3.32265 0.568038 4.17759 0.756687 4.99122C0.945337 5.80485 1.43671 6.51612 2.13094 6.98048C1.60975 6.96393 1.09998 6.82361 0.64375 6.5711V6.61173C0.643283 7.36992 0.905399 8.10488 1.38554 8.69167C1.86568 9.27846 2.53422 9.68086 3.2775 9.83048C2.7947 9.96257 2.28799 9.98182 1.79656 9.88673C2.0063 10.5388 2.41438 11.1091 2.96385 11.518C3.51331 11.927 4.17675 12.1542 4.86156 12.168C3.69895 13.0812 2.26278 13.5766 0.784375 13.5742C0.522191 13.5738 0.260266 13.5578 0 13.5261C1.5019 14.4897 3.24902 15.0014 5.03344 15.0005Z" fill="white"/>
    </g>
    <defs>
        <clipPath id="clip0_2586_1182">
            <rect width="16" height="16" fill="white" transform="translate(0 0.5)"/>
        </clipPath>
    </defs>
</svg>
