<?xml version="1.0" encoding="UTF-8"?><svg id="a" xmlns="http://www.w3.org/2000/svg" xmlns:xlink="http://www.w3.org/1999/xlink" viewBox="0 0 491.28 153.89"><defs><style>.d{mask:url(#b);}.e{fill:none;}.f{fill:#f7b200;}.g{fill:#1a2f47;}.h{clip-path:url(#c);}</style><mask id="b" x="28.47" y="29.14" width="102.95" height="94.71" maskUnits="userSpaceOnUse"><polygon class="f" points="112.5 80.18 98.13 55.34 92.38 52.67 62.19 52.67 47.82 76.49 47.82 83.47 62.19 108.11 92.38 108.11 98.13 105.24 112.5 80.18"/></mask><clipPath id="c"><rect class="e" x="28.47" y="29.14" width="102.95" height="94.71"/></clipPath></defs><g><path class="f" d="M105.16,46.71c-.41-.7-.21-1.58,.45-1.96l4.35-2.5,1.53,2.53-4.4,2.52c-.65,.38-1.51,.11-1.92-.59Z"/><rect class="f" x="117.94" y="40.43" width="4.13" height="1.52"/><path class="f" d="M113.55,43.37c-1.21,0-2.18-.98-2.18-2.18s.98-2.18,2.18-2.18,2.18,.98,2.18,2.18-.98,2.18-2.18,2.18Zm0-6.65c-2.46,0-4.46,2-4.46,4.46s2,4.46,4.46,4.46,4.46-2,4.46-4.46-2-4.46-4.46-4.46Z"/><path class="f" d="M123.84,42.64c-.8,0-1.45-.65-1.45-1.45s.65-1.45,1.45-1.45,1.45,.65,1.45,1.45-.65,1.45-1.45,1.45Zm0-4.4c-1.63,0-2.95,1.32-2.95,2.95s1.32,2.95,2.95,2.95,2.95-1.32,2.95-2.95-1.32-2.95-2.95-2.95Z"/><path class="f" d="M97.07,113.01c-1.66,0-3-1.34-3-3s1.34-3,3-3,3,1.34,3,3-1.34,3-3,3Zm-5.1-6.05h-28.71l-14.25-23.75c.45-.84,.71-1.79,.71-2.81s-.25-1.96-.7-2.79l14.24-23.74h28.71c1.03,1.72,2.92,2.88,5.08,2.88t14.21,23.67l-14.23,23.68c-2.15,0-4.03,1.15-5.07,2.87Zm5.08-59.09c1.63,0,2.96,1.33,2.96,2.96,0,1.08-.58,2.02-1.44,2.54-.44,.27-.97,.42-1.52,.42-1.63,0-2.96-1.33-2.96-2.96s1.33-2.96,2.96-2.96Zm-53.25,35.55c-1.66,0-3-1.34-3-3s1.34-3,3-3,3,1.34,3,3-1.34,3-3,3Zm56.29,21.52l14.71-24.52-14.7-24.51c1.72-1.03,2.87-2.92,2.87-5.08,0-3.27-2.65-5.92-5.92-5.92s-5.92,2.65-5.92,5.92t-29.59,0l-14.69,24.5c-.89-.54-1.94-.85-3.06-.85-3.27,0-5.92,2.65-5.92,5.92s2.65,5.92,5.92,5.92c1.11,0,2.15-.3,3.04-.84l14.72,24.52h29.58c0,3.26,2.65,5.91,5.91,5.91s5.91-2.65,5.91-5.91c0-2.16-1.15-4.04-2.87-5.07Z"/><path class="f" d="M79.25,68.6c-1.56,0-3.06,.3-4.43,.85,4.35,1.75,7.41,6.01,7.41,10.98s-3.07,9.23-7.41,10.98c1.37,.55,2.86,.85,4.43,.85,6.54,0,11.84-5.3,11.84-11.84s-5.3-11.83-11.84-11.83Z"/><path class="f" d="M92.98,86.16l9.94-5.74-10.21-5.89c.85,1.87,1.33,3.94,1.33,6.13,0,1.95-.38,3.8-1.06,5.5Z"/><path class="f" d="M77.82,65.94l-10.37-5.98v11.77c2.43-3.2,6.14-5.39,10.37-5.79Z"/><path class="f" d="M67.45,89.59v11.31l9.69-5.6c-3.94-.56-7.39-2.67-9.69-5.71Z"/><path class="f" d="M91.08,71.86v-11.89l-10.42,6.01c4.26,.41,7.99,2.63,10.42,5.87Z"/><path class="f" d="M64.44,80.71c0-2.18,.47-4.25,1.32-6.12l-10.14,5.86,9.84,5.68c-.67-1.68-1.03-3.51-1.03-5.43Z"/><path class="f" d="M81.41,95.34l9.67,5.58v-11.36c-2.28,3.05-5.72,5.19-9.67,5.78Z"/><g class="d"><g class="h"><path class="f" d="M111.73,105.74c0-.32,.29-.6,.61-.6,.32,0,.6,.29,.58,.61,0,.29-.3,.57-.59,.58-.32,0-.6-.27-.6-.6Z"/><path class="f" d="M48.13,52.41c.31,0,.59,.31,.58,.62,0,.3-.29,.56-.59,.57-.32,0-.61-.29-.6-.6,0-.32,.29-.6,.61-.59Z"/><path class="f" d="M112.16,55.78c-.31,0-.57-.23-.59-.55-.02-.33,.27-.64,.6-.63,.3,0,.57,.27,.57,.57,0,.32-.26,.6-.59,.61Z"/><path class="f" d="M111.02,106.78c.32,0,.6,.28,.6,.6,0,.3-.28,.55-.6,.55-.34,0-.59-.23-.59-.55,0-.32,.28-.6,.6-.61Z"/><path class="f" d="M111.41,53.55c0,.34-.24,.61-.58,.61-.3,0-.57-.27-.58-.58-.01-.32,.28-.62,.58-.61,.31,0,.57,.27,.57,.58Z"/><path class="f" d="M48.28,107.75c.31,0,.6,.25,.61,.54,.01,.32-.27,.62-.58,.62-.34,0-.61-.26-.6-.59,0-.32,.25-.57,.57-.57Z"/><path class="f" d="M48.9,56.15c0,.31-.23,.55-.53,.55-.32,0-.56-.24-.55-.57,0-.33,.25-.57,.57-.56,.3,.02,.52,.26,.52,.57Z"/><path class="f" d="M52.23,108.71c-.03,.3-.34,.55-.63,.51-.28-.04-.52-.33-.48-.6,.04-.31,.34-.55,.62-.51,.29,.05,.52,.33,.49,.6Z"/><path class="f" d="M107.35,107.54c.32,0,.57,.25,.56,.56,0,.3-.25,.54-.55,.55-.32,.01-.57-.24-.56-.56,0-.29,.26-.55,.55-.55Z"/><path class="f" d="M108.19,53.36c.3,0,.57,.28,.57,.57,0,.28-.27,.54-.55,.55-.28,0-.55-.25-.57-.53-.02-.29,.25-.58,.55-.59Z"/><path class="f" d="M109.52,105.01c0-.3,.24-.53,.55-.54,.33,0,.58,.25,.57,.56-.01,.3-.26,.53-.57,.52-.31,0-.55-.24-.55-.54Z"/><path class="f" d="M108.74,107.15c-.28,0-.53-.27-.54-.56,0-.29,.28-.57,.58-.56,.28,0,.53,.28,.54,.56,0,.3-.27,.56-.58,.56Z"/><path class="f" d="M48.87,106.19c-.28,0-.55-.27-.55-.55,0-.3,.28-.58,.57-.57,.28,0,.55,.27,.55,.55,0,.3-.27,.57-.57,.57Z"/><path class="f" d="M112.55,58.79c0,.31-.23,.54-.54,.55-.3,0-.54-.23-.55-.55,0-.32,.25-.58,.57-.57,.31,.01,.52,.24,.52,.57Z"/><path class="f" d="M111.39,57.1c0,.3-.25,.53-.56,.53s-.57-.23-.56-.53c0-.32,.27-.57,.58-.55,.31,.01,.55,.25,.54,.55Z"/><path class="f" d="M50.24,106.64c.3,0,.54,.25,.54,.55s-.23,.55-.53,.56c-.32,0-.57-.24-.56-.57,.01-.32,.24-.55,.54-.55Z"/><path class="f" d="M109,55.46c0-.3,.24-.54,.55-.54,.3,0,.54,.24,.54,.54,0,.32-.25,.58-.56,.57-.28-.01-.53-.28-.53-.57Z"/><path class="f" d="M107.3,52.45c0,.31-.25,.55-.54,.55s-.55-.28-.55-.59c.01-.3,.26-.53,.57-.52,.3,0,.53,.25,.52,.56Z"/><path class="f" d="M111.32,102.83c.31,0,.55,.21,.56,.52,.01,.32-.23,.57-.56,.56-.29,0-.55-.26-.55-.55,0-.29,.25-.53,.55-.53Z"/><path class="f" d="M51.11,53.61c-.32,.01-.57-.23-.58-.55,0-.29,.21-.51,.5-.53,.34-.02,.6,.2,.6,.52,0,.3-.23,.56-.53,.57Z"/><path class="f" d="M112.47,101.12c.31,0,.55,.23,.56,.53,0,.32-.24,.56-.57,.55-.31,0-.55-.25-.55-.54s.27-.54,.55-.54Z"/><path class="f" d="M49.13,54.56c0-.31,.25-.55,.55-.54,.32,0,.56,.25,.54,.58-.02,.3-.27,.54-.56,.53-.28-.01-.53-.28-.53-.57Z"/><path class="f" d="M48.16,104.04c0,.31-.24,.53-.55,.53-.32,0-.55-.25-.53-.58,.02-.31,.25-.52,.57-.5,.31,.02,.52,.25,.51,.56Z"/><path class="f" d="M108.6,57.16c0,.27-.21,.51-.48,.52-.27,.02-.54-.23-.55-.49s.24-.54,.51-.55c.28,0,.52,.23,.53,.52Z"/><path class="f" d="M52.59,106.97c0-.28,.25-.52,.53-.52,.27,0,.52,.28,.51,.55-.02,.27-.28,.51-.56,.49-.27-.01-.48-.25-.48-.52Z"/><path class="f" d="M49.96,58.37c0,.28-.25,.5-.54,.49-.28,0-.49-.23-.5-.49,0-.28,.23-.51,.53-.51,.29,0,.52,.23,.51,.51Z"/><path class="f" d="M48.25,59.51c.27,0,.53,.25,.53,.52s-.26,.52-.53,.52-.49-.23-.5-.5c-.01-.28,.22-.53,.5-.54Z"/><path class="f" d="M106.23,55.62c0-.27,.22-.51,.48-.52,.27-.01,.54,.23,.55,.5,.01,.27-.24,.54-.51,.54-.28,0-.53-.24-.53-.52Z"/><path class="f" d="M50.86,103.95c0,.28-.23,.5-.49,.51-.28,0-.54-.24-.54-.51s.26-.53,.52-.53c.28,0,.51,.24,.51,.53Z"/><path class="f" d="M52.18,105.49c0,.29-.23,.53-.51,.52-.27,0-.48-.22-.49-.5-.01-.31,.23-.55,.53-.54,.26,0,.47,.24,.47,.52Z"/><path class="f" d="M107.21,104.39c0-.27,.23-.49,.5-.49,.3,0,.55,.25,.53,.55-.02,.26-.25,.47-.53,.47-.27,0-.51-.25-.51-.53Z"/><path class="f" d="M109.51,102.81c0,.29-.24,.52-.53,.51-.25,0-.49-.25-.5-.51,0-.28,.23-.53,.51-.53,.28,0,.51,.24,.51,.53Z"/><path class="f" d="M54.6,108.9c-.26,0-.53-.27-.53-.53,0-.24,.25-.5,.5-.52,.26-.02,.54,.24,.55,.51,0,.25-.25,.53-.52,.54Z"/><path class="f" d="M112.52,63.52c.29,0,.52,.25,.51,.53,0,.27-.28,.52-.54,.51-.25-.01-.49-.26-.49-.51,0-.29,.23-.52,.52-.52Z"/><path class="f" d="M53.48,54.27c-.27,0-.49-.23-.49-.5,0-.28,.23-.51,.53-.51s.53,.23,.51,.51c-.02,.3-.24,.5-.54,.49Z"/><path class="f" d="M47.97,100.13c.29,0,.52,.25,.5,.53-.02,.28-.26,.49-.55,.47-.27-.02-.48-.24-.48-.51,0-.28,.24-.5,.53-.49Z"/><path class="f" d="M55.54,52.37c0,.28-.23,.53-.5,.54-.29,0-.52-.22-.52-.51,0-.28,.23-.51,.52-.51,.27,0,.49,.21,.5,.48Z"/><path class="f" d="M51.21,56.77c0,.29-.24,.52-.53,.5-.28-.02-.49-.26-.48-.56,.01-.26,.24-.48,.51-.48,.28,0,.49,.24,.49,.54Z"/><path class="f" d="M52.58,55.21c0,.28-.24,.52-.52,.52-.27,0-.52-.27-.51-.53,0-.25,.25-.49,.51-.5,.29,0,.53,.24,.53,.51Z"/><path class="f" d="M112.27,98.11c-.3,0-.53-.21-.53-.5,0-.28,.23-.51,.53-.51,.28,0,.51,.23,.51,.52,0,.26-.23,.47-.51,.48Z"/><path class="f" d="M111.26,99.91c-.29,0-.52-.24-.51-.53s.25-.5,.55-.48c.27,.01,.49,.24,.48,.51,0,.28-.23,.51-.53,.5Z"/><path class="f" d="M110.7,101.14c0,.29-.23,.52-.52,.51-.27,0-.51-.25-.51-.53,0-.27,.23-.48,.5-.49,.29,0,.53,.23,.53,.51Z"/><path class="f" d="M105.42,107.4c0,.28-.22,.51-.48,.51-.29,0-.53-.23-.53-.51,0-.3,.23-.53,.51-.53,.28,0,.51,.23,.5,.53Z"/><path class="f" d="M49.63,102.33c0,.28-.25,.51-.54,.5-.27-.01-.51-.28-.5-.55,.02-.25,.26-.48,.52-.49,.26,0,.53,.28,.52,.54Z"/><path class="f" d="M109.33,59.3c-.3,0-.51-.22-.5-.52,0-.29,.24-.52,.53-.5,.27,.01,.48,.24,.48,.51,0,.3-.21,.52-.51,.51Z"/><path class="f" d="M106.36,106.45c-.29,0-.51-.23-.51-.53,0-.28,.24-.49,.54-.48,.28,.01,.49,.23,.49,.49,0,.29-.24,.52-.52,.51Z"/><path class="f" d="M104.35,52.74c0,.3-.24,.53-.52,.52-.29,0-.5-.24-.49-.54,0-.29,.25-.51,.53-.49,.27,.02,.48,.25,.47,.51Z"/><path class="f" d="M112.06,62.22c0,.29-.23,.52-.52,.51-.28,0-.48-.21-.49-.49,0-.3,.21-.53,.49-.53,.29,0,.52,.22,.52,.51Z"/><path class="f" d="M105.83,54.13c0,.29-.22,.52-.51,.52-.26,0-.48-.22-.5-.49-.01-.29,.21-.53,.49-.54,.29,0,.51,.22,.51,.51Z"/><path class="f" d="M110.51,60.98c-.27,0-.5-.19-.52-.46-.02-.3,.18-.53,.48-.54,.29,0,.5,.18,.52,.46,.02,.29-.2,.53-.48,.55Z"/><path class="f" d="M57.01,54c0,.27-.22,.49-.49,.49-.25,0-.47-.22-.47-.47,0-.26,.23-.49,.5-.49,.25,0,.46,.22,.47,.47Z"/><path class="f" d="M110.49,65.9c0-.27,.23-.49,.5-.48,.25,0,.46,.23,.46,.48,0,.26-.24,.49-.51,.48-.25,0-.46-.22-.46-.48Z"/><path class="f" d="M112.45,91.95c-.25,0-.48-.21-.48-.46,0-.28,.22-.51,.48-.5,.27,0,.48,.21,.48,.46,0,.26-.22,.5-.48,.5Z"/><path class="f" d="M55.04,105.3c.27,0,.49,.25,.48,.51-.01,.25-.23,.46-.48,.46-.26,0-.49-.24-.48-.51,0-.24,.24-.46,.48-.45Z"/><path class="f" d="M108.45,100.48c-.01,.26-.26,.48-.52,.46-.25-.02-.44-.24-.44-.51,0-.26,.25-.48,.52-.46,.25,.02,.44,.25,.44,.5Z"/><path class="f" d="M110.07,64.58c-.25,0-.48-.21-.48-.46,0-.27,.22-.5,.48-.51,.25,0,.47,.21,.48,.46,.01,.26-.21,.49-.48,.5Z"/><path class="f" d="M47.9,95.63c.25,0,.48,.19,.5,.44,.02,.27-.2,.51-.46,.52-.26,0-.48-.19-.5-.44-.02-.27,.2-.51,.47-.52Z"/><path class="f" d="M106.3,102.08c0-.28,.21-.48,.5-.47,.25,0,.47,.23,.46,.47,0,.26-.25,.49-.51,.48-.25,0-.45-.23-.45-.48Z"/><path class="f" d="M110.98,94.74c.25,0,.47,.21,.48,.46,.02,.26-.22,.5-.48,.5s-.49-.23-.48-.5c0-.24,.23-.45,.48-.46Z"/><path class="f" d="M109.07,99.24c-.28,0-.48-.22-.47-.5,0-.26,.21-.45,.48-.44,.26,0,.49,.25,.48,.51-.02,.25-.23,.45-.49,.44Z"/><path class="f" d="M53.15,56.79c0-.25,.21-.48,.45-.48,.27-.01,.51,.21,.51,.47,0,.24-.23,.48-.46,.49-.27,0-.5-.22-.5-.48Z"/><path class="f" d="M112.45,69.17c.26,0,.49,.24,.48,.5-.01,.23-.25,.45-.49,.46-.26,0-.48-.23-.47-.51,0-.25,.23-.46,.48-.45Z"/><path class="f" d="M55.04,55.83c-.25,0-.47-.21-.48-.46,0-.26,.23-.49,.49-.49,.27,0,.49,.24,.48,.5-.02,.25-.23,.45-.49,.44Z"/><path class="f" d="M51.52,59.92c0,.25-.23,.46-.47,.46-.26,0-.49-.25-.47-.51,.02-.27,.22-.46,.48-.45,.28,0,.48,.22,.46,.5Z"/><path class="f" d="M110.56,97.04c0,.26-.25,.48-.51,.46-.25-.02-.46-.25-.45-.49,0-.26,.25-.49,.51-.46,.25,.02,.46,.25,.45,.49Z"/><path class="f" d="M102.64,54.17c.27,0,.48,.18,.48,.44,0,.27-.18,.48-.43,.51-.26,.02-.5-.2-.51-.48-.01-.26,.18-.46,.46-.47Z"/><path class="f" d="M105.97,103.63c0,.25-.26,.49-.51,.47-.25-.02-.46-.24-.46-.48,0-.26,.24-.48,.51-.46,.25,.01,.47,.23,.46,.47Z"/><path class="f" d="M100.65,53.34c0-.25,.21-.47,.46-.48,.26,0,.48,.2,.49,.45,0,.25-.23,.51-.49,.51s-.46-.22-.46-.48Z"/><path class="f" d="M108.6,62.36c0-.26,.21-.48,.46-.48,.28,0,.5,.22,.48,.5,0,.25-.25,.48-.48,.47-.26-.01-.46-.23-.46-.48Z"/><path class="f" d="M107.95,61.15c-.25,0-.47-.23-.46-.48,0-.26,.26-.49,.52-.48,.25,.01,.45,.25,.44,.51,0,.25-.23,.46-.49,.45Z"/><path class="f" d="M58.58,108.39c0,.25-.2,.47-.45,.48-.25,0-.5-.23-.51-.48,0-.25,.23-.48,.5-.48,.25,0,.45,.22,.46,.48Z"/><path class="f" d="M50.38,61.54c0,.25-.2,.47-.46,.48-.23,.01-.48-.21-.49-.46-.02-.27,.21-.5,.48-.5,.25,0,.46,.22,.47,.48Z"/><path class="f" d="M53.63,104.81c-.27,0-.47-.2-.48-.46,0-.28,.22-.5,.5-.48,.24,0,.46,.24,.46,.49,0,.25-.22,.46-.48,.46Z"/><path class="f" d="M104.1,104.64c.27,0,.48,.19,.48,.45,0,.28-.21,.5-.48,.5-.24,0-.47-.23-.47-.48,0-.25,.21-.47,.47-.47Z"/><path class="f" d="M105.49,57.04c.25,0,.48,.22,.48,.46,0,.24-.23,.48-.47,.48-.27,.01-.51-.23-.5-.49,0-.25,.23-.46,.48-.46Z"/><path class="f" d="M51.53,101.26c0,.27-.2,.46-.47,.46-.28,0-.47-.21-.46-.51,.02-.28,.21-.44,.49-.43,.27,.01,.44,.2,.44,.48Z"/><path class="f" d="M102.19,106.51c0-.28,.17-.47,.44-.48,.28,0,.47,.16,.48,.44,.02,.29-.18,.51-.46,.51-.27,0-.46-.19-.46-.46Z"/><path class="f" d="M56.55,107.6c-.26,0-.48-.2-.49-.45,0-.24,.21-.48,.45-.5,.28-.02,.51,.2,.51,.47,0,.25-.21,.46-.47,.47Z"/><path class="f" d="M111.74,67.28c.27-.01,.47,.17,.48,.44,0,.28-.2,.51-.46,.51-.25,0-.46-.21-.46-.47-.01-.28,.17-.47,.44-.48Z"/><path class="f" d="M47.93,64.57c.26,0,.47,.23,.46,.48,0,.24-.24,.47-.48,.47-.25,0-.5-.25-.48-.51,.01-.25,.24-.45,.5-.44Z"/><path class="f" d="M104.13,55.57c.26,.01,.46,.23,.46,.48,0,.28-.24,.49-.51,.46-.24-.02-.46-.27-.44-.51,.01-.26,.24-.46,.5-.44Z"/><path class="f" d="M52.3,58.77c-.27,0-.46-.19-.46-.46,0-.27,.19-.48,.45-.49,.27-.01,.48,.21,.48,.49,0,.27-.19,.46-.46,.46Z"/><path class="f" d="M58.58,52.74c0,.27-.18,.47-.45,.47-.28,0-.51-.21-.5-.48,0-.25,.22-.45,.48-.45,.27,0,.46,.18,.47,.46Z"/><path class="f" d="M52.76,102.85c0,.25-.22,.48-.46,.48-.26,0-.48-.25-.46-.52,.02-.25,.24-.46,.49-.45,.26,.01,.44,.22,.44,.49Z"/><path class="f" d="M50.38,99.57c0,.28-.2,.49-.48,.49-.27,0-.45-.19-.44-.47,0-.27,.2-.48,.46-.47,.27,0,.47,.2,.47,.46Z"/><path class="f" d="M48.87,98.34c-.28,0-.48-.21-.48-.49,0-.27,.2-.44,.48-.43,.27,0,.47,.21,.46,.46-.01,.27-.21,.46-.47,.46Z"/><path class="f" d="M111.76,93.84c-.28,0-.48-.23-.46-.51,.02-.25,.23-.44,.49-.44,.25,0,.44,.22,.43,.49,0,.28-.19,.46-.46,.45Z"/><path class="f" d="M106.78,59.52c-.28,0-.47-.17-.48-.44,0-.28,.2-.49,.48-.49,.26,0,.46,.2,.46,.47,0,.25-.2,.46-.47,.46Z"/><path class="f" d="M101.11,107.33c.27,0,.48,.19,.49,.44,.01,.27-.22,.49-.49,.48-.27,0-.46-.21-.46-.47,0-.27,.2-.46,.47-.46Z"/><path class="f" d="M49.32,63.27c0,.25-.21,.47-.46,.47s-.46-.21-.46-.47c0-.27,.23-.5,.49-.48,.25,.01,.44,.22,.44,.48Z"/><path class="f" d="M112.31,83.22c0,.28-.19,.49-.44,.48-.23,0-.44-.22-.46-.44-.01-.28,.21-.51,.48-.5,.25,0,.42,.19,.42,.46Z"/><path class="f" d="M110.05,69.02c.23,0,.44,.21,.44,.45s-.22,.44-.45,.44-.44-.22-.44-.45,.22-.45,.45-.44Z"/><path class="f" d="M110,92.94c0,.25-.2,.44-.44,.44-.25,0-.44-.2-.44-.44,0-.24,.2-.43,.45-.43,.25,0,.44,.18,.44,.44Z"/><path class="f" d="M112.39,79.23c0,.25-.2,.43-.45,.43-.23,0-.44-.22-.43-.46,0-.23,.22-.43,.46-.43,.24,0,.42,.2,.42,.46Z"/><path class="f" d="M48.32,71.04c0,.25-.17,.44-.43,.44-.25,0-.46-.18-.46-.42,0-.24,.19-.44,.44-.45,.25-.02,.45,.18,.46,.42Z"/><path class="f" d="M109.29,67.19c.26,0,.46,.16,.46,.41,.01,.25-.17,.44-.42,.46-.25,.01-.45-.17-.47-.41,0-.25,.18-.44,.43-.45Z"/><path class="f" d="M106.89,62.36c0,.25-.18,.44-.43,.44s-.46-.18-.46-.42,.19-.44,.44-.44c.24-.01,.44,.18,.45,.43Z"/><path class="f" d="M59.01,54.41c.25,0,.45,.21,.44,.44,0,.24-.21,.43-.46,.43s-.44-.2-.43-.45c0-.25,.19-.43,.45-.42Z"/><path class="f" d="M108.45,66.23c-.25,0-.44-.19-.43-.44,0-.25,.21-.44,.46-.42,.25,.01,.44,.21,.43,.45,0,.24-.21,.42-.46,.41Z"/><path class="f" d="M48.52,69.59c-.25,0-.44-.19-.44-.44,0-.24,.22-.45,.45-.44,.23,0,.44,.21,.44,.45,0,.25-.19,.44-.45,.43Z"/><path class="f" d="M47.39,72.54c.23,.01,.44,.23,.43,.46-.01,.23-.23,.44-.46,.43-.23-.01-.44-.23-.43-.46,.01-.24,.23-.44,.46-.43Z"/><path class="f" d="M96.89,52.72c0,.26-.16,.45-.41,.46-.24,0-.44-.18-.46-.43-.01-.24,.18-.45,.42-.46,.25,0,.44,.18,.45,.43Z"/><path class="f" d="M57.91,56.1c0,.24-.19,.44-.44,.45-.23,0-.45-.2-.46-.43,0-.23,.2-.44,.44-.45,.23-.01,.45,.2,.45,.44Z"/><path class="f" d="M61.04,53.66c0,.25-.19,.44-.44,.44-.23,0-.44-.21-.44-.45s.21-.44,.45-.44c.24,0,.43,.19,.43,.45Z"/><path class="f" d="M59.48,107.11c-.25,0-.44-.2-.42-.45,.01-.24,.23-.44,.46-.43,.23,0,.44,.23,.43,.46,0,.23-.22,.42-.47,.42Z"/><path class="f" d="M98.07,54.27c-.25-.02-.41-.24-.38-.49,.03-.24,.26-.41,.49-.39,.23,.03,.42,.27,.39,.49-.03,.23-.26,.41-.5,.38Z"/><path class="f" d="M103.6,59.19c0-.25,.19-.44,.44-.43,.24,0,.44,.21,.44,.45s-.21,.44-.45,.44c-.23,0-.43-.21-.43-.46Z"/><path class="f" d="M110.64,71.8c-.25-.01-.42-.21-.4-.46,.02-.24,.24-.44,.46-.42,.24,.02,.44,.24,.41,.47-.03,.24-.23,.42-.48,.41Z"/><path class="f" d="M103.55,102.99c-.02,.25-.23,.43-.47,.41-.25-.01-.41-.21-.4-.47,.01-.25,.21-.43,.46-.41,.24,.01,.43,.23,.41,.47Z"/><path class="f" d="M50.87,96.18c0,.25-.18,.44-.44,.44-.25,0-.44-.21-.44-.44,0-.24,.21-.44,.44-.44,.24,0,.43,.2,.43,.45Z"/><path class="f" d="M56.45,57.46c0,.25-.17,.46-.41,.47-.24,0-.46-.19-.47-.42-.01-.23,.18-.46,.42-.47,.25-.01,.46,.17,.46,.41Z"/><path class="f" d="M53.82,60.47c0,.25-.18,.44-.43,.44s-.46-.2-.46-.43,.21-.45,.44-.45c.24,0,.44,.2,.45,.44Z"/><path class="f" d="M111.39,77.21c0-.25,.19-.44,.44-.43,.24,0,.44,.21,.44,.45,0,.23-.22,.44-.45,.44-.23,0-.43-.22-.43-.46Z"/><path class="f" d="M102.13,104.4c0,.24-.21,.42-.46,.41-.23-.01-.43-.23-.41-.47,.01-.23,.23-.43,.47-.42,.23,.01,.42,.23,.41,.48Z"/><path class="f" d="M110.85,89.58c-.25,0-.44-.17-.45-.42,0-.25,.19-.45,.43-.45s.45,.19,.46,.43c0,.23-.2,.44-.44,.44Z"/><path class="f" d="M103.11,57.72c0,.24-.21,.46-.43,.46-.24,0-.45-.21-.45-.44s.21-.45,.44-.45c.25,0,.45,.18,.44,.43Z"/><path class="f" d="M96.97,107.61c.25,0,.47,.23,.46,.47,0,.21-.21,.41-.43,.41-.24,0-.45-.18-.46-.42-.01-.24,.19-.46,.42-.46Z"/><path class="f" d="M111.73,87.22c0,.24-.22,.45-.44,.44-.24,0-.43-.21-.43-.46s.2-.43,.45-.43,.44,.19,.43,.44Z"/><path class="f" d="M98.62,107.35c-.25,0-.44-.21-.43-.45,0-.23,.22-.43,.46-.43,.23,0,.43,.22,.43,.46,0,.24-.2,.43-.45,.42Z"/><path class="f" d="M107.53,63.62c.23,0,.43,.23,.41,.47-.01,.24-.22,.43-.46,.41-.22-.01-.42-.21-.42-.42,0-.25,.23-.47,.47-.46Z"/><path class="f" d="M56.44,103.65c.24,0,.46,.18,.48,.41,.01,.23-.18,.46-.41,.47-.24,.01-.46-.18-.47-.41-.02-.25,.16-.46,.41-.46Z"/><path class="f" d="M51.45,97.45c.24,0,.45,.21,.44,.44,0,.24-.21,.44-.44,.44-.25,0-.44-.19-.44-.44,0-.25,.21-.46,.44-.45Z"/><path class="f" d="M58.39,105.43c0,.22-.21,.44-.44,.44-.24,0-.44-.2-.44-.44,0-.23,.21-.45,.44-.45,.23,0,.44,.21,.45,.44Z"/><path class="f" d="M49.71,67.34c0,.24-.23,.44-.46,.43-.23-.02-.43-.23-.43-.46s.23-.43,.46-.42c.24,0,.43,.21,.42,.46Z"/><path class="f" d="M104.44,101.03c.24,0,.44,.21,.44,.44,0,.24-.21,.44-.44,.44-.24,0-.44-.21-.44-.45,0-.25,.19-.44,.44-.43Z"/><path class="f" d="M109.83,91.05c0-.25,.19-.44,.44-.43,.24,0,.44,.21,.44,.45s-.21,.44-.45,.43c-.24,0-.43-.21-.43-.45Z"/><path class="f" d="M62.28,53.02c-.23,0-.44-.22-.43-.46,0-.24,.21-.44,.45-.43,.24,0,.45,.23,.44,.45-.02,.23-.23,.44-.46,.44Z"/><path class="f" d="M53,99.57c0,.25-.2,.43-.46,.41-.24-.01-.45-.23-.43-.45,.01-.24,.22-.42,.46-.42,.24,0,.43,.21,.42,.46Z"/><path class="f" d="M100.22,106.13c-.24,0-.46-.21-.46-.43s.21-.45,.44-.45c.23,0,.45,.21,.45,.44,0,.25-.18,.44-.43,.44Z"/><path class="f" d="M111.63,84.81c.25,0,.45,.18,.46,.42,0,.25-.18,.45-.42,.46-.23,.01-.44-.19-.45-.43-.01-.25,.16-.45,.41-.46Z"/><path class="f" d="M54.65,58.51c.24,0,.44,.2,.45,.44,0,.23-.2,.45-.44,.44-.24,0-.44-.2-.44-.44-.01-.25,.17-.44,.43-.44Z"/><path class="f" d="M48.07,91.13c-.25,0-.43-.2-.41-.45,.01-.24,.22-.44,.45-.44,.24,.01,.42,.21,.42,.46,0,.24-.21,.43-.46,.42Z"/><path class="f" d="M109.18,94.76c0,.24-.21,.45-.44,.45-.23,0-.45-.21-.45-.44s.21-.44,.44-.44c.25,0,.45,.19,.44,.44Z"/><path class="f" d="M54.22,101.15c0,.23-.22,.44-.46,.43-.24,0-.44-.21-.44-.45,0-.24,.21-.44,.45-.43,.24,0,.45,.22,.45,.45Z"/><path class="f" d="M105.73,60.75c0,.23-.21,.44-.44,.44s-.44-.21-.44-.44c0-.24,.2-.44,.44-.44,.25,0,.44,.2,.44,.44Z"/><path class="f" d="M107.81,96.97c-.24,0-.43-.21-.42-.46,0-.25,.2-.41,.46-.41,.25,0,.44,.21,.42,.45-.02,.25-.21,.43-.46,.41Z"/><path class="f" d="M100.16,55.05c0,.24-.21,.44-.45,.43-.23,0-.44-.22-.43-.45,0-.23,.22-.44,.45-.44,.23,0,.43,.22,.43,.46Z"/><path class="f" d="M50.12,65.96c-.23-.01-.42-.23-.41-.47,.02-.24,.22-.43,.46-.41,.23,.01,.43,.23,.41,.47-.02,.23-.24,.43-.47,.41Z"/><path class="f" d="M101.23,56.79c-.23,0-.43-.22-.43-.46,0-.24,.21-.44,.45-.43,.23,0,.44,.22,.43,.45,0,.23-.22,.44-.45,.44Z"/><path class="f" d="M52.64,62.11c-.01,.24-.22,.44-.46,.43-.24-.01-.43-.21-.42-.46,0-.23,.23-.44,.45-.43,.24,.02,.44,.23,.43,.46Z"/><path class="f" d="M47.96,88.81c-.01,.23-.23,.43-.46,.42-.23,0-.42-.23-.41-.47,.01-.24,.22-.43,.46-.41,.23,.01,.43,.23,.41,.46Z"/><path class="f" d="M55.09,103.09c-.24,0-.44-.18-.45-.43,0-.23,.19-.44,.43-.45,.23,0,.44,.19,.46,.43,.01,.23-.2,.44-.43,.45Z"/><path class="f" d="M48.74,93.01c-.24,0-.43-.21-.42-.46,0-.23,.23-.44,.45-.43,.24,.01,.44,.23,.43,.46-.02,.24-.23,.44-.46,.43Z"/><path class="f" d="M111.18,73.74c-.23,0-.45-.2-.45-.43,0-.24,.19-.44,.43-.45,.23,0,.45,.2,.46,.43,0,.23-.21,.45-.44,.45Z"/><path class="f" d="M60.7,107.83c0-.25,.2-.43,.45-.41,.24,.01,.45,.22,.44,.44-.01,.22-.24,.43-.46,.43-.23,0-.43-.21-.42-.46Z"/><path class="f" d="M105.66,100.32c-.24,0-.42-.16-.43-.4-.01-.25,.18-.46,.41-.46,.23,0,.46,.21,.46,.43,0,.24-.2,.44-.45,.44Z"/><path class="f" d="M111.93,81.63c-.25-.02-.41-.23-.38-.48,.03-.23,.23-.4,.45-.38,.23,.02,.43,.25,.41,.48-.02,.23-.24,.41-.48,.39Z"/><path class="f" d="M50.69,63.77c0-.25,.19-.44,.44-.43,.23,0,.42,.19,.43,.41,0,.23-.2,.45-.44,.46-.23,.01-.44-.19-.44-.44Z"/><path class="f" d="M49.97,94.4c0,.25-.19,.43-.45,.42-.23,0-.42-.19-.42-.41,0-.23,.2-.45,.44-.45,.24,0,.44,.2,.44,.44Z"/><path class="f" d="M111.56,74.82c.25,0,.43,.2,.42,.45-.01,.23-.19,.41-.42,.42-.23,0-.45-.2-.45-.44,0-.23,.2-.43,.45-.43Z"/><path class="f" d="M107.23,98.23c0,.25-.18,.44-.43,.44-.23,0-.43-.18-.44-.4-.02-.23,.18-.46,.42-.47,.24-.02,.44,.18,.45,.43Z"/><path class="f" d="M110.09,82.89c0,.26-.18,.45-.42,.44-.22,0-.4-.2-.4-.43s.21-.46,.43-.45c.23,.01,.39,.19,.39,.44Z"/><path class="f" d="M48.69,80.59c-.23,0-.42-.18-.42-.41,0-.21,.18-.39,.39-.4,.24,0,.44,.16,.44,.39,0,.24-.16,.42-.41,.42Z"/><path class="f" d="M100.05,58.63c-.25,0-.42-.16-.41-.4,0-.22,.16-.4,.37-.41,.22-.02,.43,.16,.44,.39,.02,.23-.16,.41-.4,.42Z"/><path class="f" d="M63.32,54.27c0-.23,.19-.41,.42-.39,.2,.01,.38,.2,.39,.4,0,.23-.18,.41-.41,.41-.23,0-.4-.18-.4-.41Z"/><path class="f" d="M50.12,89.42c.23,0,.41,.2,.4,.42-.01,.22-.21,.4-.44,.39-.21,0-.37-.18-.37-.4,0-.23,.18-.41,.41-.41Z"/><path class="f" d="M49.39,76.31c0,.23-.2,.4-.43,.39-.21-.01-.38-.19-.38-.4,0-.22,.18-.41,.41-.41,.23,0,.4,.18,.39,.42Z"/><path class="f" d="M56.12,100.07c0,.23-.21,.4-.44,.38-.2-.02-.38-.22-.37-.41,0-.23,.19-.41,.42-.4,.23,0,.4,.19,.39,.43Z"/><path class="f" d="M109.27,73.19c0,.23-.2,.4-.43,.39-.2-.02-.38-.21-.38-.41,0-.23,.18-.41,.41-.4,.23,0,.4,.18,.39,.42Z"/><path class="f" d="M95.39,55.07c-.22,0-.39-.17-.4-.38-.01-.24,.16-.43,.4-.43,.23,0,.42,.2,.41,.42-.01,.21-.21,.39-.41,.39Z"/><path class="f" d="M108.34,70.89c.23,0,.42,.2,.4,.43-.02,.2-.21,.39-.41,.38-.23,0-.41-.2-.39-.43,.02-.22,.19-.39,.41-.38Z"/><path class="f" d="M53.82,96.87c0,.22-.15,.39-.37,.41-.23,.02-.43-.16-.44-.39,0-.2,.17-.4,.38-.42,.22-.02,.42,.17,.43,.4Z"/><path class="f" d="M108.51,90.57c0,.22-.21,.41-.44,.4-.21,0-.37-.18-.37-.41s.19-.41,.43-.4c.2,.01,.39,.21,.38,.41Z"/><path class="f" d="M52.79,65.66c-.23,0-.41-.19-.4-.42,0-.21,.18-.38,.39-.39,.23,0,.44,.21,.42,.45-.02,.21-.19,.37-.41,.36Z"/><path class="f" d="M56.23,60.9c-.23,0-.43-.18-.43-.4,0-.2,.18-.39,.39-.41,.23-.01,.42,.17,.42,.41,0,.22-.16,.39-.38,.4Z"/><path class="f" d="M57.01,101.11c.22,0,.4,.16,.41,.37,.01,.22-.18,.44-.4,.44-.21,0-.42-.2-.41-.42,0-.21,.17-.38,.4-.38Z"/><path class="f" d="M105.63,95.49c.21-.01,.41,.18,.42,.4,0,.21-.15,.39-.37,.4-.23,.02-.43-.14-.44-.37-.01-.21,.17-.43,.39-.44Z"/><path class="f" d="M48.78,77.84c.22,0,.4,.15,.41,.36,.02,.23-.19,.45-.43,.44-.21,0-.38-.18-.39-.39,0-.23,.17-.41,.41-.41Z"/><path class="f" d="M52.83,95.18c0,.22-.2,.43-.41,.43-.2,0-.39-.19-.4-.39-.02-.23,.17-.41,.41-.41,.22,0,.4,.16,.4,.38Z"/><path class="f" d="M53.84,63.2c.23,0,.41,.21,.39,.44-.02,.22-.19,.38-.41,.37-.23-.01-.42-.21-.4-.43,.02-.21,.22-.39,.42-.38Z"/><path class="f" d="M100.89,101.69c.22,0,.39,.17,.4,.39,0,.21-.2,.43-.41,.42-.23,0-.41-.21-.39-.44,.01-.21,.19-.37,.41-.37Z"/><path class="f" d="M51.18,91.67c0,.22-.21,.41-.43,.4-.23-.01-.4-.21-.39-.43,.02-.21,.19-.37,.4-.38,.22,0,.41,.19,.41,.41Z"/><path class="f" d="M106.59,94.57c-.23,0-.43-.18-.43-.4,0-.2,.18-.39,.39-.41,.23-.01,.42,.17,.42,.41,0,.23-.16,.4-.38,.4Z"/><path class="f" d="M99.44,103.01c.22,0,.42,.18,.42,.4s-.19,.41-.41,.41c-.21,0-.39-.17-.4-.38-.02-.22,.17-.42,.39-.44Z"/><path class="f" d="M105.02,63.83c.23,0,.42,.18,.41,.4,0,.23-.19,.41-.42,.4-.22-.01-.41-.21-.4-.43,.01-.21,.18-.37,.4-.37Z"/><path class="f" d="M49.79,72.06c.2,0,.39,.2,.39,.4,0,.22-.19,.41-.42,.41-.23,0-.4-.2-.39-.44,.02-.21,.2-.38,.41-.37Z"/><path class="f" d="M48.89,84.5c-.22,0-.4-.16-.4-.38,0-.23,.18-.43,.4-.43s.42,.21,.41,.43c-.01,.21-.19,.38-.41,.38Z"/><path class="f" d="M59.39,57.74c0,.21-.18,.38-.4,.38-.24,0-.43-.18-.41-.41,.01-.21,.2-.39,.4-.4,.21,0,.41,.21,.41,.43Z"/><path class="f" d="M61.41,105.77c-.22-.01-.4-.22-.38-.45,.02-.21,.2-.37,.42-.36,.23,0,.41,.21,.39,.44-.02,.2-.23,.38-.42,.37Z"/><path class="f" d="M66.51,108.72c-.22,0-.39-.17-.4-.38-.01-.24,.16-.43,.4-.42,.23,0,.42,.19,.41,.42-.01,.2-.21,.39-.41,.39Z"/><path class="f" d="M58.39,103.29c-.22,0-.41-.21-.39-.43s.22-.4,.44-.38c.21,.02,.38,.21,.38,.41,0,.22-.21,.41-.42,.4Z"/><path class="f" d="M60.28,104.15c0,.21-.16,.4-.37,.42-.24,.02-.44-.15-.44-.38,0-.23,.18-.43,.41-.43,.2,0,.39,.19,.4,.39Z"/><path class="f" d="M93.69,54.09c-.21,0-.4-.17-.41-.38-.02-.22,.17-.42,.4-.43,.22,0,.4,.16,.41,.37,0,.23-.17,.43-.4,.44Z"/><path class="f" d="M109.5,84.48c.22,0,.39,.17,.39,.39s-.19,.41-.41,.42c-.23,0-.41-.19-.4-.41,0-.23,.19-.39,.43-.39Z"/><path class="f" d="M107.3,67.64c0,.23-.18,.41-.41,.42-.22,0-.41-.2-.4-.42,0-.21,.18-.39,.39-.39,.24,0,.42,.16,.41,.39Z"/><path class="f" d="M54.92,98.5c0,.22-.21,.41-.42,.4-.22,0-.41-.21-.39-.43,.02-.21,.2-.38,.4-.38,.22,0,.41,.2,.41,.41Z"/><path class="f" d="M49.97,87.95c0,.22-.17,.39-.38,.4-.23,0-.43-.2-.42-.41,.02-.23,.22-.41,.44-.4,.21,0,.37,.18,.37,.41Z"/><path class="f" d="M108.68,89.09c-.23,0-.39-.16-.4-.38,0-.23,.19-.43,.41-.42,.23,.01,.41,.21,.41,.43,0,.21-.18,.37-.41,.37Z"/><path class="f" d="M65.84,53.36c-.02,.23-.23,.41-.44,.39-.22-.02-.37-.2-.36-.42,0-.24,.2-.41,.43-.39,.22,.02,.39,.21,.37,.41Z"/><path class="f" d="M51.93,93.46c0,.21-.17,.39-.38,.4-.23,0-.43-.18-.42-.41,0-.22,.21-.41,.43-.41,.2,0,.37,.19,.37,.41Z"/><path class="f" d="M63.47,106.44c.01,.21-.19,.42-.41,.42-.21,0-.39-.16-.39-.38-.01-.23,.17-.42,.4-.42,.2,0,.4,.18,.41,.38Z"/><path class="f" d="M65.14,107.43c0,.23-.15,.4-.37,.41-.22,.01-.44-.18-.44-.39,0-.21,.21-.42,.42-.41,.22,0,.39,.18,.39,.39Z"/><path class="f" d="M91.93,52.4c.22,0,.41,.21,.41,.43,0,.21-.18,.38-.41,.37-.24,0-.41-.18-.4-.42,0-.22,.18-.39,.4-.38Z"/><path class="f" d="M57.97,59.05c0,.22-.18,.42-.41,.43-.21,0-.39-.16-.41-.38-.02-.23,.17-.43,.4-.43s.41,.17,.42,.37Z"/><path class="f" d="M67.23,52.93c-.22,0-.42-.18-.43-.41,0-.21,.16-.39,.38-.39,.24,0,.42,.16,.42,.4,0,.22-.16,.39-.38,.4Z"/><path class="f" d="M49.33,74.77c-.23,0-.42-.18-.42-.41,0-.2,.18-.39,.39-.4,.21-.02,.42,.19,.42,.41,0,.21-.18,.39-.39,.39Z"/><path class="f" d="M48.71,82.54c-.22,0-.39-.17-.39-.39,0-.23,.21-.43,.42-.41,.23,.02,.41,.23,.39,.44-.02,.21-.2,.36-.42,.36Z"/><path class="f" d="M109.74,78.55c.22,0,.41,.2,.41,.43,0,.2-.19,.39-.4,.39s-.39-.17-.41-.38c0-.23,.17-.43,.4-.43Z"/><path class="f" d="M51.84,67.38c-.22,0-.39-.18-.38-.4,0-.22,.21-.41,.43-.4,.21,0,.38,.18,.37,.41,0,.24-.18,.4-.43,.39Z"/><path class="f" d="M109.99,77.01c0,.21-.2,.41-.42,.41-.21,0-.38-.18-.39-.4,0-.22,.15-.39,.37-.4,.23-.02,.43,.16,.44,.39Z"/><path class="f" d="M109.68,75.07c0,.22-.16,.4-.37,.41-.22,0-.43-.19-.44-.4,0-.2,.18-.39,.39-.41,.23-.02,.42,.17,.42,.4Z"/><path class="f" d="M109.54,86.79c0,.23-.2,.42-.42,.41-.21,0-.39-.19-.39-.4,0-.21,.18-.4,.38-.41,.23-.01,.44,.18,.44,.4Z"/><path class="f" d="M51.08,69.17c-.22,0-.43-.18-.44-.4,0-.19,.18-.39,.39-.41,.23-.02,.42,.17,.42,.4,0,.22-.16,.39-.37,.41Z"/><path class="f" d="M102.75,61.47c-.22,0-.43-.18-.44-.4,0-.2,.18-.39,.38-.41,.23-.02,.42,.17,.43,.4,0,.22-.16,.4-.37,.41Z"/><path class="f" d="M102.2,101.05c-.21,0-.39-.18-.39-.39,0-.21,.2-.41,.42-.41s.4,.21,.38,.44c-.01,.21-.19,.37-.41,.36Z"/><path class="f" d="M98.56,56.55c.21,0,.41,.18,.42,.37,.01,.21-.18,.42-.41,.43-.21,0-.4-.17-.41-.37-.01-.23,.18-.43,.4-.43Z"/><path class="f" d="M110.17,80.91c0,.24-.18,.41-.42,.4-.22,0-.39-.18-.38-.39,0-.22,.21-.41,.43-.41,.21,0,.38,.18,.37,.4Z"/><path class="f" d="M97.94,105.06c-.22,0-.4-.17-.4-.38,0-.22,.19-.42,.41-.42,.21,0,.41,.21,.39,.44,0,.21-.18,.37-.41,.36Z"/><path class="f" d="M60.88,56.5c0,.22-.18,.39-.39,.39-.22,0-.43-.21-.42-.42,0-.2,.21-.39,.4-.39,.23,0,.41,.19,.41,.42Z"/><path class="f" d="M50.36,70.99c-.22,0-.39-.16-.4-.37,0-.23,.19-.43,.4-.42,.21,0,.4,.18,.41,.38,0,.23-.17,.41-.41,.41Z"/><path class="f" d="M103.86,99.16c0,.23-.2,.41-.43,.39-.2-.02-.37-.21-.37-.42,0-.21,.22-.4,.44-.39,.22,.02,.37,.19,.37,.41Z"/><path class="f" d="M107.67,69.84c-.22,0-.39-.17-.38-.39,0-.24,.19-.42,.41-.41,.23,.02,.41,.22,.39,.44-.02,.21-.2,.37-.42,.36Z"/><path class="f" d="M106.43,65.92c-.01,.23-.21,.41-.44,.39-.21-.02-.38-.2-.38-.41s.21-.41,.44-.39c.21,.02,.39,.21,.38,.41Z"/><path class="f" d="M93,108.22c-.21,0-.38-.17-.39-.39-.01-.23,.16-.41,.4-.41,.22,0,.39,.16,.4,.38,0,.22-.19,.42-.41,.42Z"/><path class="f" d="M107.39,91.99c.23,0,.41,.2,.41,.42,0,.21-.18,.38-.4,.39-.22,0-.41-.2-.4-.42,0-.21,.19-.39,.39-.39Z"/><path class="f" d="M61.68,55.29c.02-.22,.2-.38,.41-.37,.22,.01,.41,.22,.39,.44-.02,.21-.21,.38-.41,.37-.23,0-.39-.2-.38-.44Z"/><path class="f" d="M105,97.55c0,.23-.19,.41-.42,.41-.21,0-.38-.19-.39-.4s.17-.4,.37-.41c.23-.01,.43,.17,.43,.4Z"/><path class="f" d="M95.12,106.87c0,.2-.18,.39-.39,.4-.23,.02-.41-.16-.41-.4,0-.22,.16-.39,.37-.41,.22-.02,.42,.18,.43,.4Z"/><path class="f" d="M49.17,85.63c.22,0,.38,.16,.39,.38,.01,.24-.17,.42-.4,.41-.22,0-.41-.21-.4-.43,0-.21,.19-.37,.41-.37Z"/><path class="f" d="M54.97,61.62c.23,0,.4,.15,.41,.37,.01,.22-.18,.44-.39,.44s-.4-.18-.41-.38c-.01-.23,.17-.42,.4-.42Z"/><path class="f" d="M96.62,55.74c0-.23,.2-.41,.43-.39,.2,.01,.37,.21,.37,.41s-.21,.4-.44,.39c-.21,0-.37-.18-.37-.41Z"/><path class="f" d="M101.43,59.2c.21,0,.39,.18,.4,.39,0,.23-.18,.42-.41,.41-.23,0-.41-.2-.4-.43,.02-.2,.21-.37,.41-.37Z"/><path class="f" d="M96.37,106.21c-.22,0-.39-.16-.4-.37,0-.23,.19-.43,.4-.42,.21,0,.4,.18,.41,.38,0,.23-.17,.41-.41,.41Z"/><path class="f" d="M104.33,62.62c0,.21-.18,.39-.39,.39-.23,0-.42-.19-.41-.41,0-.23,.21-.41,.43-.39,.21,.02,.38,.21,.37,.41Z"/><path class="f" d="M107.49,82.17c.2,0,.36,.14,.38,.35,.02,.23-.13,.42-.34,.44-.21,.02-.39-.15-.4-.37s.15-.4,.37-.41Z"/><path class="f" d="M106.29,90.13c0,.2-.18,.38-.39,.38-.19,0-.36-.17-.36-.36,0-.21,.18-.39,.39-.38,.18,0,.35,.18,.36,.37Z"/><path class="f" d="M81.23,51.97c.2,0,.36,.16,.36,.37s-.17,.36-.37,.37c-.21,0-.4-.19-.39-.39,0-.19,.18-.34,.39-.34Z"/><path class="f" d="M60.2,101.22c0,.19-.19,.36-.38,.36-.21,0-.37-.19-.36-.41,.02-.2,.19-.35,.39-.34,.19,.01,.36,.2,.35,.39Z"/><path class="f" d="M53.22,92.16c-.19,.01-.37-.15-.39-.34-.02-.21,.16-.41,.37-.41,.19,0,.36,.17,.36,.37,.01,.2-.14,.38-.34,.39Z"/><path class="f" d="M105.61,69.32c0,.2-.15,.37-.35,.38-.19,.01-.37-.15-.39-.34-.01-.21,.17-.41,.37-.41,.19,0,.36,.17,.37,.37Z"/><path class="f" d="M98.99,59.92c0,.19-.18,.35-.38,.35-.21,0-.39-.19-.37-.4,.02-.2,.2-.35,.39-.33s.37,.19,.36,.38Z"/><path class="f" d="M66.24,55.03c.19,0,.36,.17,.37,.37,0,.2-.15,.37-.34,.39-.21,.01-.39-.17-.39-.39,0-.2,.17-.37,.37-.37Z"/><path class="f" d="M103.46,65.53c.21,0,.39,.2,.38,.4-.02,.2-.19,.35-.39,.34-.2-.01-.35-.17-.35-.38s.16-.37,.36-.37Z"/><path class="f" d="M50.98,82.06c.19,.01,.36,.21,.34,.39-.02,.2-.19,.36-.38,.35-.21,0-.38-.2-.36-.41,.02-.19,.21-.34,.4-.33Z"/><path class="f" d="M64.57,55.99c.2,0,.37,.17,.37,.37,0,.21-.2,.38-.41,.37-.2-.02-.36-.19-.34-.39,.01-.19,.19-.35,.39-.34Z"/><path class="f" d="M94.37,56.4c0,.21-.21,.39-.41,.37-.17-.02-.33-.18-.34-.36,0-.21,.18-.39,.39-.39,.2,0,.36,.18,.35,.38Z"/><path class="f" d="M89.01,107.26c0,.21-.14,.37-.34,.38-.21,.02-.39-.17-.39-.38,0-.19,.18-.35,.37-.36,.2,0,.36,.15,.36,.36Z"/><path class="f" d="M69.78,53.51c.21,0,.36,.14,.36,.35s-.15,.37-.34,.38c-.21,0-.39-.17-.39-.38,0-.19,.16-.34,.37-.35Z"/><path class="f" d="M101.13,98.14c.21-.01,.41,.17,.4,.37,0,.19-.18,.37-.36,.37-.2,0-.36-.15-.37-.35,0-.21,.14-.38,.33-.39Z"/><path class="f" d="M68.35,54.6c0,.21-.17,.36-.37,.35-.2-.01-.37-.18-.36-.37,0-.21,.2-.39,.4-.37,.2,.02,.34,.18,.33,.39Z"/><path class="f" d="M58.94,61.21c0,.2-.16,.35-.37,.35s-.37-.15-.38-.35c0-.2,.19-.39,.39-.38,.18,0,.35,.18,.35,.38Z"/><path class="f" d="M85.06,53.23c-.21,0-.4-.19-.39-.39,.01-.19,.2-.36,.38-.36,.2,0,.35,.17,.35,.37,0,.21-.15,.38-.34,.37Z"/><path class="f" d="M53.26,68.86c.2,0,.39,.21,.37,.41-.01,.19-.19,.33-.4,.32-.21,0-.35-.16-.34-.37,0-.19,.18-.37,.37-.36Z"/><path class="f" d="M71.63,53.66c-.21,0-.37-.19-.35-.41,.02-.21,.18-.34,.39-.32,.2,.02,.36,.2,.34,.39,0,.2-.18,.36-.38,.35Z"/><path class="f" d="M90.44,106.2c.2,0,.37,.16,.37,.35,0,.2-.14,.37-.34,.38-.21,.02-.4-.16-.39-.37,0-.2,.16-.36,.36-.37Z"/><path class="f" d="M59.94,59.47c.19,0,.35,.16,.36,.37,0,.2-.15,.37-.35,.37-.19,0-.37-.15-.38-.34-.02-.2,.16-.39,.37-.4Z"/><path class="f" d="M56.41,96.84c0,.2-.18,.36-.37,.35-.21,0-.37-.17-.37-.36,0-.21,.2-.39,.4-.38,.2,.02,.36,.19,.34,.39Z"/><path class="f" d="M51.47,75.12c-.18,0-.36-.19-.35-.38,0-.21,.2-.37,.41-.36,.2,.01,.34,.19,.32,.39-.01,.21-.18,.36-.38,.35Z"/><path class="f" d="M95.47,103.38c.21-.01,.41,.17,.41,.37,0,.19-.18,.37-.36,.37-.2,0-.36-.15-.37-.35,0-.21,.13-.38,.33-.39Z"/><path class="f" d="M56.93,62.67c0-.2,.14-.37,.34-.38,.21-.02,.4,.16,.39,.37,0,.19-.17,.36-.36,.37-.2,0-.37-.16-.37-.35Z"/><path class="f" d="M62.83,103.28c.21,.01,.37,.2,.34,.42-.02,.19-.17,.33-.35,.32-.21,0-.39-.2-.37-.4,.02-.19,.21-.36,.39-.34Z"/><path class="f" d="M87.28,53.3c0,.2-.14,.37-.34,.38-.21,.01-.4-.16-.39-.37,0-.19,.17-.36,.37-.36,.2,0,.37,.16,.37,.35Z"/><path class="f" d="M66.12,105.31c.19,0,.37,.16,.38,.35,0,.2-.15,.37-.34,.38-.21,0-.39-.14-.4-.32-.01-.22,.16-.41,.37-.41Z"/><path class="f" d="M88.77,53.53c.2,0,.37,.17,.37,.36,0,.21-.17,.38-.39,.37-.21,0-.35-.16-.34-.37,0-.2,.18-.37,.37-.36Z"/><path class="f" d="M61.41,58.2c.19,0,.36,.17,.36,.37s-.16,.36-.36,.37c-.21,0-.39-.17-.38-.39,.01-.2,.18-.35,.38-.35Z"/><path class="f" d="M103.39,94.98c.2,0,.37,.15,.38,.34,.01,.2-.14,.37-.33,.39-.21,.02-.4-.15-.4-.36,0-.19,.16-.36,.36-.37Z"/><path class="f" d="M106.89,72.96c0,.21-.16,.37-.35,.37-.21,0-.39-.18-.38-.39,0-.19,.17-.34,.38-.34,.21,0,.35,.15,.35,.36Z"/><path class="f" d="M97.14,58.27c.2,0,.37,.14,.39,.34,.02,.21-.16,.4-.37,.39-.2,0-.36-.16-.37-.36,0-.19,.15-.36,.35-.37Z"/><path class="f" d="M54.97,94.84c.18,0,.37,.16,.38,.35,.02,.2-.17,.39-.38,.39-.2,0-.35-.16-.35-.37s.15-.37,.35-.37Z"/><path class="f" d="M52.32,72.88c0,.2-.18,.37-.37,.36-.21,0-.38-.18-.37-.4,.01-.21,.17-.35,.38-.34,.2,.02,.36,.19,.35,.38Z"/><path class="f" d="M97.42,102.57c0,.2-.16,.36-.36,.37-.21,0-.38-.14-.39-.33,0-.21,.17-.4,.37-.4,.19,0,.37,.18,.37,.37Z"/><path class="f" d="M104.73,93.67c0,.18-.18,.37-.36,.38-.21,0-.38-.17-.37-.39,0-.21,.17-.36,.37-.35,.2,0,.37,.18,.37,.37Z"/><path class="f" d="M104.42,67.95c-.2,0-.37-.14-.38-.34-.01-.19,.14-.37,.34-.39,.2-.02,.39,.15,.41,.37,0,.19-.15,.35-.36,.37Z"/><path class="f" d="M54.46,67.51c0,.19-.18,.35-.38,.35-.21,0-.38-.19-.36-.41,.02-.2,.2-.34,.39-.33,.2,.02,.35,.19,.34,.39Z"/><path class="f" d="M77.71,52.33c0,.2-.18,.37-.37,.36-.2,0-.37-.17-.37-.36,0-.21,.17-.38,.39-.37,.21,0,.35,.16,.34,.37Z"/><path class="f" d="M92.69,55.47c0,.2-.18,.35-.38,.35-.21,0-.38-.19-.36-.41,.02-.2,.2-.34,.39-.33,.2,.02,.35,.19,.34,.39Z"/><path class="f" d="M51.15,84c.2,0,.36,.16,.37,.36,0,.2-.16,.37-.35,.37-.21,0-.39-.17-.38-.38,0-.2,.17-.35,.37-.35Z"/><path class="f" d="M58.83,99.84c0,.21-.17,.37-.36,.37-.21,0-.39-.19-.37-.4,.01-.19,.18-.34,.39-.34,.21,0,.35,.16,.34,.37Z"/><path class="f" d="M51.34,78.57c0,.19-.15,.35-.36,.37-.21,.01-.37-.13-.37-.34,0-.21,.14-.38,.33-.39,.21-.02,.4,.16,.41,.37Z"/><path class="f" d="M90.55,54.99c-.2,0-.37-.21-.35-.42,.02-.19,.2-.33,.41-.31,.2,.02,.35,.19,.34,.39-.02,.19-.21,.36-.39,.35Z"/><path class="f" d="M106.5,88.66c-.2,0-.36-.17-.36-.37,0-.2,.16-.36,.35-.37,.21,0,.39,.17,.38,.39,0,.2-.18,.35-.37,.35Z"/><path class="f" d="M107.94,80.6c0,.19-.17,.36-.36,.37-.2,0-.37-.16-.37-.35,0-.21,.16-.39,.38-.39,.2,0,.36,.17,.36,.37Z"/><path class="f" d="M107.31,84.16c.21,0,.37,.16,.37,.36s-.21,.39-.41,.37c-.19-.02-.34-.2-.34-.39,0-.2,.17-.34,.38-.34Z"/><path class="f" d="M107.51,79.04c-.2-.01-.37-.18-.37-.37,0-.21,.2-.39,.4-.37,.2,.02,.34,.18,.34,.39,0,.21-.17,.36-.37,.35Z"/><path class="f" d="M86.43,107.85c0-.21,.16-.35,.37-.35,.21,0,.38,.16,.38,.34,0,.2-.2,.39-.4,.39-.19,0-.35-.18-.34-.38Z"/><path class="f" d="M107.34,86.42c0,.19-.17,.35-.37,.36-.2,0-.37-.15-.38-.34-.01-.21,.17-.39,.39-.38,.18,0,.36,.18,.37,.37Z"/><path class="f" d="M61.66,102.5c-.01,.2-.18,.35-.37,.35-.21,0-.36-.16-.36-.36,0-.21,.19-.39,.39-.37,.19,.01,.35,.19,.34,.38Z"/><path class="f" d="M98.49,100.95c.21,0,.37,.14,.39,.34,.01,.21-.16,.4-.37,.39-.2,0-.37-.17-.37-.36,0-.2,.16-.36,.35-.37Z"/><path class="f" d="M95.98,57.48c0,.2-.17,.36-.37,.36s-.36-.17-.37-.37c0-.21,.18-.38,.39-.37,.2,.01,.34,.18,.34,.38Z"/><path class="f" d="M70.04,107.21c0,.22-.18,.39-.38,.38-.2,0-.35-.18-.35-.37,0-.2,.16-.36,.36-.36,.2,0,.37,.16,.37,.35Z"/><path class="f" d="M52.87,89.98c0,.2-.16,.36-.36,.37-.21,0-.39-.18-.38-.39,.01-.2,.18-.35,.38-.34,.19,0,.36,.17,.36,.37Z"/><path class="f" d="M102.34,96.61c.2,0,.36,.17,.36,.37s-.16,.37-.36,.37c-.22,0-.39-.18-.38-.39,.01-.2,.18-.35,.38-.34Z"/><path class="f" d="M107.36,74.82c0,.19-.15,.37-.34,.39-.21,.02-.39-.15-.39-.37,0-.21,.14-.36,.35-.36,.21,0,.37,.14,.38,.34Z"/><path class="f" d="M75.79,52.53c-.01,.2-.18,.35-.38,.34-.21,0-.38-.19-.36-.4,.02-.2,.2-.34,.39-.32,.21,.02,.35,.19,.34,.38Z"/><path class="f" d="M55.04,66.18c-.2,0-.36-.17-.36-.37,0-.21,.19-.39,.4-.37,.19,.02,.35,.2,.34,.39,0,.19-.18,.35-.38,.35Z"/><path class="f" d="M73.89,52.83c0,.2-.16,.37-.35,.37-.21,0-.37-.14-.39-.34-.01-.21,.16-.4,.37-.4,.19,0,.37,.17,.37,.36Z"/><path class="f" d="M107.3,77.11c-.2-.01-.35-.18-.35-.37,0-.21,.19-.38,.4-.36,.18,.02,.33,.17,.33,.35,0,.22-.17,.39-.38,.38Z"/><path class="f" d="M92.56,105.72c0,.2-.15,.37-.34,.39-.21,.02-.4-.16-.4-.37,0-.2,.16-.36,.36-.36,.2,0,.37,.15,.37,.34Z"/><path class="f" d="M56.84,98.39c0-.2,.14-.37,.34-.38,.2-.02,.38,.13,.39,.32,.02,.21-.15,.41-.36,.41-.2,0-.36-.15-.37-.35Z"/><path class="f" d="M52.91,71.03c0,.2-.16,.36-.36,.37-.21,0-.39-.17-.38-.38,0-.18,.16-.34,.33-.34,.21-.02,.4,.16,.4,.36Z"/><path class="f" d="M102.78,64.28c0,.21-.18,.38-.39,.37-.18,0-.33-.15-.34-.34-.02-.21,.16-.39,.37-.39,.2,0,.36,.16,.37,.36Z"/><path class="f" d="M56.12,63.83c.21,0,.37,.16,.36,.36,0,.19-.17,.37-.36,.38-.2,0-.38-.18-.38-.39,0-.2,.17-.35,.38-.34Z"/><path class="f" d="M93.87,104.43c.19,0,.36,.16,.37,.36,.01,.2-.18,.39-.38,.39-.18,0-.34-.18-.35-.38,0-.2,.16-.36,.36-.37Z"/><path class="f" d="M51.26,80.5c0,.21-.2,.39-.4,.37-.18-.01-.32-.17-.33-.36,0-.2,.16-.37,.36-.37,.21,0,.38,.16,.37,.35Z"/><path class="f" d="M64.81,104.7c0,.21-.18,.39-.39,.38-.19,0-.36-.18-.35-.37,0-.19,.18-.36,.37-.36,.2,0,.37,.16,.37,.35Z"/><path class="f" d="M51.84,86.28c0,.19-.18,.35-.38,.34-.2,0-.36-.18-.35-.38s.18-.37,.38-.35c.19,.01,.36,.19,.35,.38Z"/><path class="f" d="M100.33,61.29c0,.2-.18,.36-.38,.35-.2,0-.37-.18-.35-.37,.01-.19,.19-.36,.38-.36,.2,0,.36,.18,.35,.38Z"/><path class="f" d="M84.93,108.67c-.2,0-.37-.16-.37-.37s.16-.37,.36-.37c.19,0,.37,.18,.37,.37,0,.19-.16,.36-.37,.36Z"/><path class="f" d="M73.75,108.3c0,.2-.18,.37-.38,.34-.2-.02-.36-.19-.35-.39,0-.2,.18-.35,.39-.34,.2,.01,.35,.18,.34,.38Z"/><path class="f" d="M101.61,62.76c-.01,.2-.18,.36-.38,.35-.2-.01-.35-.18-.34-.39,0-.2,.18-.36,.38-.35,.2,0,.36,.19,.34,.39Z"/><path class="f" d="M51.89,88.51c-.19,0-.35-.18-.34-.38,0-.19,.18-.35,.37-.35,.21,0,.39,.19,.36,.4-.02,.19-.2,.34-.39,.33Z"/><path class="f" d="M68.24,106.51c0,.19-.17,.36-.38,.35-.2,0-.36-.17-.36-.37,0-.18,.15-.34,.33-.35,.21-.01,.4,.17,.4,.38Z"/><path class="f" d="M51.52,76.66c0,.21-.16,.37-.36,.37-.19,0-.37-.17-.37-.37,0-.19,.16-.36,.37-.37,.2,0,.36,.16,.37,.36Z"/><path class="f" d="M71.51,107.44c.2,0,.36,.16,.36,.37,0,.2-.17,.37-.37,.36-.2,0-.37-.17-.37-.37,0-.19,.18-.36,.37-.37Z"/><path class="f" d="M54.39,93.51c0,.2-.15,.38-.34,.38-.19,0-.37-.16-.39-.35-.02-.19,.15-.37,.35-.38,.21,0,.37,.15,.38,.35Z"/><path class="f" d="M83.5,52.51c.01,.19-.15,.37-.34,.38-.21,.01-.39-.16-.39-.37,0-.2,.16-.36,.36-.36,.19,0,.36,.16,.37,.35Z"/><path class="f" d="M105.21,92.28c-.2,0-.37-.14-.38-.34-.01-.2,.14-.37,.34-.38,.19-.01,.37,.15,.38,.35,.02,.19-.14,.36-.34,.37Z"/><path class="f" d="M63.31,57.42c0,.19-.18,.36-.37,.36-.2,0-.36-.17-.35-.37,0-.2,.17-.36,.37-.36s.36,.17,.36,.37Z"/><path class="f" d="M106.31,71.1c0,.2-.15,.37-.35,.37-.21,0-.37-.15-.38-.35,0-.2,.17-.37,.36-.38,.2,0,.37,.16,.37,.36Z"/><path class="f" d="M100.24,99.93c.01,.2-.14,.37-.34,.38-.21,.01-.38-.14-.39-.34,0-.19,.15-.37,.34-.39,.2-.01,.38,.15,.39,.34Z"/><path class="f" d="M105.32,81.88c.18,0,.33,.16,.33,.35s-.14,.35-.32,.37c-.19,.01-.36-.16-.35-.37,.01-.2,.16-.35,.34-.34Z"/><path class="f" d="M82.31,106.15c.17,0,.34,.16,.35,.33,0,.18-.15,.34-.33,.34-.18,0-.34-.15-.35-.32,0-.17,.16-.34,.33-.35Z"/><path class="f" d="M103.71,89.35c.18,0,.34,.14,.35,.32,0,.17-.15,.34-.32,.36-.17,0-.34-.15-.35-.32,0-.18,.14-.34,.32-.35Z"/><path class="f" d="M103,91.12c.18,0,.34,.16,.33,.34s-.16,.32-.35,.32c-.18,0-.33-.16-.32-.34,0-.18,.16-.33,.34-.32Z"/><path class="f" d="M78.5,106.33c.18,0,.34,.14,.34,.32s-.14,.34-.32,.34-.33-.15-.34-.33c0-.18,.14-.34,.32-.34Z"/><path class="f" d="M74.25,55.28c-.18,0-.34-.14-.34-.32s.14-.34,.32-.35c.17,0,.33,.14,.34,.33,0,.18-.14,.34-.32,.34Z"/><path class="f" d="M76.45,54.64c0,.18-.15,.34-.32,.34-.18,0-.33-.15-.34-.33,0-.18,.14-.34,.32-.34,.18,0,.34,.14,.34,.33Z"/><path class="f" d="M105.1,83.83c.19,0,.35,.14,.35,.31s-.14,.34-.32,.34c-.18,0-.34-.14-.35-.32-.01-.17,.14-.33,.32-.34Z"/><path class="f" d="M89.55,56.43c0,.18-.16,.34-.33,.34s-.34-.16-.34-.34c0-.17,.17-.34,.34-.34s.34,.17,.34,.34Z"/><path class="f" d="M97.51,99.54c-.18,0-.32-.17-.32-.35,0-.18,.16-.32,.34-.32,.18,0,.32,.16,.31,.35,0,.18-.16,.33-.34,.32Z"/><path class="f" d="M81.85,54.92c-.18,0-.34-.13-.34-.32,0-.18,.14-.34,.32-.34,.18,0,.34,.14,.35,.32,0,.17-.14,.32-.33,.34Z"/><path class="f" d="M101.16,95.12c-.17,0-.33-.14-.34-.32-.01-.18,.13-.34,.31-.35,.18,0,.34,.14,.34,.32,0,.18-.14,.34-.31,.35Z"/><path class="f" d="M56.9,93.54c0,.17-.16,.34-.34,.34-.18,0-.34-.16-.34-.33s.16-.34,.33-.34c.17,0,.34,.16,.34,.33Z"/><path class="f" d="M85.92,55.23c0,.18-.14,.34-.32,.34-.18,0-.34-.14-.35-.32,0-.18,.14-.33,.33-.34,.18,0,.34,.13,.34,.32Z"/><path class="f" d="M89.99,104.53c0,.18-.17,.32-.35,.31-.18-.01-.32-.17-.31-.35,.01-.18,.18-.33,.35-.32,.17,.01,.32,.18,.31,.36Z"/><path class="f" d="M69.11,56.63c0,.18-.15,.33-.33,.33s-.34-.15-.34-.33c0-.18,.15-.33,.34-.33,.18,0,.34,.14,.34,.33Z"/><path class="f" d="M55.79,69.7c0,.18-.14,.34-.32,.35-.18,0-.33-.14-.34-.33s.13-.34,.32-.34c.19,0,.34,.14,.34,.32Z"/><path class="f" d="M55.23,90.1c0,.18-.14,.34-.32,.36-.18,.02-.34-.14-.35-.32,0-.18,.14-.35,.32-.35,.19,0,.35,.14,.35,.32Z"/><path class="f" d="M88.22,105.2c0,.18-.14,.34-.32,.34-.18,0-.34-.14-.35-.32,0-.18,.14-.33,.32-.34,.18,0,.34,.13,.34,.32Z"/><path class="f" d="M105.7,80.3c0,.18-.16,.33-.34,.33s-.33-.15-.34-.34c0-.18,.15-.32,.34-.32s.34,.15,.34,.33Z"/><path class="f" d="M56.01,91.86c0,.18-.15,.33-.34,.33-.18,0-.34-.14-.34-.32,0-.18,.15-.34,.33-.34s.34,.15,.34,.33Z"/><path class="f" d="M104.77,85.71c.19,0,.35,.13,.36,.31,0,.18-.14,.34-.32,.35-.18,0-.34-.13-.35-.32-.02-.18,.13-.33,.32-.34Z"/><path class="f" d="M59.91,97.84c.19,0,.35,.14,.35,.31,0,.18-.14,.34-.32,.35-.18,0-.34-.14-.35-.32-.02-.18,.13-.34,.32-.34Z"/><path class="f" d="M105.62,78.39c0,.17-.17,.33-.34,.33s-.34-.16-.33-.34c0-.17,.17-.34,.34-.34,.17,0,.34,.18,.34,.34Z"/><path class="f" d="M80.74,106.64c0,.18-.15,.34-.32,.34s-.34-.16-.34-.33c0-.18,.15-.34,.33-.34,.18,0,.33,.15,.34,.33Z"/><path class="f" d="M94.56,59.19c0,.18-.16,.33-.35,.32-.19,0-.33-.17-.32-.35,.01-.18,.19-.32,.37-.3,.16,.02,.3,.17,.3,.33Z"/><path class="f" d="M105.07,76.16c.18,0,.33,.17,.32,.35s-.17,.33-.34,.32c-.18,0-.32-.17-.32-.35,0-.18,.16-.33,.34-.32Z"/><path class="f" d="M53.17,83.05c-.18,0-.32-.16-.32-.34,0-.17,.16-.33,.34-.32,.17,0,.33,.17,.32,.34,0,.18-.16,.33-.34,.32Z"/><path class="f" d="M65.82,102.64c.18,0,.34,.16,.33,.34,0,.18-.16,.34-.34,.33-.18,0-.34-.16-.33-.34,0-.18,.16-.34,.34-.33Z"/><path class="f" d="M54.26,88.65c-.18,0-.33-.17-.33-.34,0-.17,.17-.33,.35-.32,.18,0,.34,.16,.33,.34,0,.18-.17,.33-.35,.32Z"/><path class="f" d="M97.18,61.93c-.17,0-.33-.15-.34-.33,0-.18,.15-.34,.32-.34s.34,.16,.34,.33c0,.18-.15,.34-.32,.34Z"/><path class="f" d="M103.54,71.31c-.19,0-.34-.16-.33-.34,0-.16,.16-.3,.32-.31,.19,0,.35,.15,.34,.33,0,.19-.15,.34-.34,.32Z"/><path class="f" d="M94.95,101.65c.01,.18-.14,.34-.32,.35-.18,.01-.34-.13-.36-.31-.02-.17,.13-.34,.32-.35,.18-.01,.35,.13,.36,.31Z"/><path class="f" d="M87.4,56.11c-.18-.01-.31-.18-.29-.37,.02-.18,.16-.31,.33-.3,.19,.01,.34,.17,.32,.35-.02,.18-.18,.32-.36,.32Z"/><path class="f" d="M92.62,58.48c-.19,0-.34-.15-.34-.34,0-.18,.16-.33,.35-.33,.16,0,.3,.14,.31,.32,0,.19-.13,.34-.32,.34Z"/><path class="f" d="M60.93,62.29c-.18,.01-.34-.14-.35-.32,0-.17,.12-.32,.3-.33,.19-.02,.37,.12,.37,.3,0,.18-.14,.34-.32,.36Z"/><path class="f" d="M69.56,104.69c0,.18-.16,.33-.35,.33s-.32-.17-.31-.36c.01-.17,.15-.3,.32-.31,.19,0,.34,.14,.34,.33Z"/><path class="f" d="M53.74,84.61c0,.18-.15,.34-.34,.33-.17,0-.31-.14-.32-.31-.01-.2,.16-.37,.36-.36,.16,0,.3,.16,.3,.33Z"/><path class="f" d="M104.66,87.88c0,.19-.17,.34-.34,.33-.19,0-.32-.17-.31-.36,.02-.17,.16-.31,.32-.31,.18,0,.34,.16,.33,.34Z"/><path class="f" d="M53.77,86.81c-.18,0-.34-.16-.34-.33s.16-.33,.34-.34c.18,0,.34,.15,.34,.33,0,.18-.15,.33-.33,.34Z"/><path class="f" d="M67.08,57.13c.18,0,.33,.17,.31,.36-.02,.17-.16,.3-.33,.3-.19,0-.35-.16-.34-.34,.01-.18,.17-.33,.35-.32Z"/><path class="f" d="M59.02,96.71c0,.19-.16,.33-.35,.32-.18-.01-.32-.15-.31-.32,0-.18,.16-.34,.34-.34,.18,0,.34,.16,.33,.34Z"/><path class="f" d="M84.06,54.85c0,.18-.16,.33-.35,.32-.19,0-.33-.16-.32-.35,.01-.18,.19-.32,.37-.3,.17,.02,.31,.17,.3,.33Z"/><path class="f" d="M61.26,99.85c-.19,0-.33-.16-.32-.35,.01-.18,.15-.32,.31-.32,.18,0,.34,.16,.34,.33,0,.18-.15,.34-.34,.33Z"/><path class="f" d="M53.66,77.01c0,.19-.16,.34-.34,.34-.16,0-.31-.15-.32-.32,0-.18,.14-.35,.32-.36,.18,0,.34,.15,.33,.34Z"/><path class="f" d="M93.35,102.76c-.02,.19-.19,.33-.37,.3-.16-.02-.3-.18-.29-.34,.01-.19,.17-.34,.35-.32,.19,.01,.33,.18,.31,.37Z"/><path class="f" d="M101.21,65.94c0,.18-.15,.35-.33,.34-.16,0-.31-.14-.33-.31-.02-.19,.12-.35,.3-.37,.18,0,.34,.14,.35,.33Z"/><path class="f" d="M67.47,103.57c.19,0,.35,.14,.35,.32,0,.16-.14,.32-.3,.33-.18,.02-.36-.13-.37-.3-.01-.19,.13-.35,.32-.35Z"/><path class="f" d="M63.83,59.82c-.18,0-.33-.15-.34-.33,0-.17,.12-.3,.3-.32,.2-.01,.35,.12,.36,.3,0,.18-.14,.34-.32,.34Z"/><path class="f" d="M91.71,103.68c0,.17-.12,.3-.3,.32-.2,.02-.35-.12-.36-.3,0-.18,.14-.34,.32-.35,.18,0,.33,.14,.34,.33Z"/><path class="f" d="M98.54,63.28c-.2,0-.35-.13-.34-.31,0-.18,.15-.34,.33-.34s.33,.16,.32,.34c0,.17-.13,.3-.31,.31Z"/><path class="f" d="M99.17,97.8c0,.18-.14,.35-.31,.36-.18,0-.34-.14-.35-.32,0-.17,.12-.31,.29-.33,.19-.02,.35,.11,.37,.3Z"/><path class="f" d="M96.45,100.5c-.01,.18-.18,.33-.36,.32-.17,0-.31-.15-.31-.32,0-.2,.18-.37,.38-.34,.16,.02,.3,.18,.29,.34Z"/><path class="f" d="M105,74.64c0,.19-.16,.34-.34,.32-.17-.02-.31-.16-.31-.32,0-.18,.15-.34,.33-.34,.18,0,.33,.15,.32,.34Z"/><path class="f" d="M102.15,93.49c-.18,0-.34-.14-.35-.32,0-.17,.12-.31,.29-.33,.2-.02,.36,.11,.37,.29,0,.19-.13,.35-.31,.36Z"/><path class="f" d="M71.02,105.69c-.18,0-.33-.17-.33-.35,0-.16,.14-.31,.32-.32,.17-.01,.34,.15,.35,.33,0,.17-.16,.34-.34,.34Z"/><path class="f" d="M64.21,101.61c.19,0,.34,.16,.34,.33,0,.18-.17,.32-.35,.32-.18,0-.32-.16-.3-.36,.01-.17,.14-.3,.32-.3Z"/><path class="f" d="M74.69,106.61c-.18,0-.32-.16-.3-.36,.01-.18,.15-.3,.32-.3,.18,0,.34,.16,.33,.34,0,.18-.17,.33-.35,.32Z"/><path class="f" d="M84.54,106.19c0,.18-.14,.34-.33,.34-.17,0-.31-.13-.33-.3-.02-.18,.12-.35,.31-.36,.18-.01,.34,.13,.35,.32Z"/><path class="f" d="M65.73,58.43c-.01,.18-.18,.34-.35,.33-.18,0-.33-.18-.31-.36,.02-.18,.19-.32,.37-.3,.17,.02,.3,.16,.29,.34Z"/><path class="f" d="M56.32,67.69c.19,0,.34,.15,.34,.33,0,.16-.15,.31-.32,.32-.18,.01-.34-.14-.36-.32-.01-.17,.14-.33,.34-.33Z"/><path class="f" d="M102.22,67.58c0,.18-.17,.33-.35,.31-.18-.01-.32-.19-.3-.37,.02-.16,.17-.29,.34-.3,.18,0,.32,.16,.32,.35Z"/><path class="f" d="M57.58,94.83c.16,0,.32,.14,.32,.31,.01,.19-.16,.37-.36,.36-.17,0-.31-.16-.3-.32,0-.18,.16-.34,.34-.34Z"/><path class="f" d="M57.27,66.7c-.18,0-.32-.18-.31-.37,.01-.16,.16-.29,.34-.29,.19,0,.34,.15,.33,.34,0,.18-.17,.32-.36,.32Z"/><path class="f" d="M73.17,105.89c0,.19-.14,.32-.34,.32-.18,0-.31-.14-.31-.3,0-.18,.14-.34,.32-.35,.18,0,.33,.15,.33,.34Z"/><path class="f" d="M70.53,56.27c-.18,0-.33-.16-.32-.35,.01-.17,.15-.3,.32-.3,.18,0,.34,.15,.34,.33,0,.18-.15,.32-.34,.32Z"/><path class="f" d="M72.69,55.39c0,.19-.16,.34-.34,.32-.17-.02-.31-.16-.31-.32,0-.19,.15-.34,.33-.34,.18,0,.33,.16,.32,.34Z"/><path class="f" d="M100.08,96.68c-.18,0-.34-.14-.36-.32-.01-.17,.12-.32,.29-.34,.2-.02,.38,.14,.38,.34,0,.17-.14,.32-.31,.32Z"/><path class="f" d="M59.94,63.31c0,.18-.15,.34-.33,.35-.17,0-.32-.13-.34-.29-.02-.18,.12-.36,.3-.37,.19-.02,.36,.13,.37,.31Z"/><path class="f" d="M62.66,60.66c0,.18-.16,.32-.34,.32-.19,0-.32-.15-.31-.34,.01-.17,.14-.3,.32-.3,.18,0,.34,.15,.34,.33Z"/><path class="f" d="M95.74,60.66c-.18,0-.33-.16-.33-.34,0-.18,.18-.32,.35-.31,.18,.02,.32,.17,.3,.36-.02,.18-.15,.3-.32,.29Z"/><path class="f" d="M78.34,54.5c0,.18-.16,.34-.34,.32-.18,0-.32-.18-.31-.36,.02-.18,.18-.32,.37-.3,.17,.02,.3,.16,.29,.33Z"/><path class="f" d="M58.39,64.49c.19,0,.34,.14,.34,.32,0,.18-.16,.34-.33,.33-.18,0-.32-.16-.32-.35,0-.17,.14-.3,.31-.3Z"/><path class="f" d="M86.06,105.45c.18,0,.32,.12,.33,.29,.01,.2-.15,.37-.34,.36-.16,0-.3-.15-.31-.32-.01-.18,.14-.33,.32-.33Z"/><path class="f" d="M63.01,100.8c0,.18-.17,.32-.35,.31-.16-.01-.3-.16-.3-.32,0-.18,.16-.33,.34-.33,.18,0,.32,.15,.31,.34Z"/><path class="f" d="M53.42,80.81c0,.18-.12,.32-.29,.32-.2,.01-.37-.16-.36-.34,.01-.16,.16-.3,.32-.3,.18,0,.33,.14,.33,.32Z"/><path class="f" d="M79.94,54.81c-.18,0-.34-.14-.35-.32,0-.18,.16-.34,.33-.34,.17,0,.31,.14,.32,.3,.02,.19-.12,.36-.3,.37Z"/><path class="f" d="M53.48,78.9c0,.18-.15,.34-.33,.34-.18,0-.32-.16-.32-.34,0-.17,.13-.3,.31-.31,.19-.01,.34,.13,.34,.32Z"/><path class="f" d="M53.64,75.47c-.16,0-.31-.16-.31-.32,0-.18,.16-.33,.35-.33,.18,0,.31,.14,.3,.32,0,.19-.16,.34-.34,.33Z"/><path class="f" d="M91.28,57.2c.01,.18-.14,.34-.33,.34-.18,0-.32-.12-.32-.3,0-.19,.14-.35,.32-.35,.17,0,.32,.14,.33,.3Z"/><path class="f" d="M76.93,106.55c-.01,.18-.18,.32-.37,.31-.17-.01-.3-.16-.29-.33,.01-.19,.18-.34,.36-.32,.17,.01,.31,.17,.3,.34Z"/><path class="f" d="M54.12,72.95c.16,0,.32,.13,.34,.3,.02,.18-.13,.34-.32,.36-.18,.01-.32-.11-.33-.29,0-.19,.13-.36,.32-.37Z"/><path class="f" d="M104.2,73.11c-.19,0-.34-.16-.34-.34,0-.17,.15-.31,.32-.32,.18,0,.33,.15,.33,.34,0,.18-.13,.31-.31,.31Z"/><path class="f" d="M55.05,71.48c0,.18-.13,.31-.31,.31-.19,0-.34-.15-.34-.33,0-.17,.15-.31,.31-.32,.18,0,.34,.16,.34,.34Z"/><path class="f" d="M102.78,68.92c.17,0,.32,.11,.33,.28,.01,.18-.12,.35-.3,.37s-.35-.13-.35-.31c0-.18,.14-.33,.32-.34Z"/><path class="f" d="M99.78,64.09c.17,0,.3,.14,.3,.31,0,.18-.15,.34-.32,.34-.18,0-.33-.16-.32-.34,0-.18,.16-.32,.35-.32Z"/><path class="f" d="M103.43,81.89c0,.18-.14,.32-.3,.32-.17,0-.31-.14-.31-.32s.14-.31,.31-.32c.16,0,.31,.14,.3,.32Z"/><path class="f" d="M79.62,104.45c0,.17-.14,.32-.3,.32-.16,0-.3-.13-.3-.28,0-.17,.14-.32,.31-.32,.15,0,.29,.13,.3,.28Z"/><path class="f" d="M98.42,65.9c0,.15-.14,.29-.29,.29-.17,0-.32-.14-.31-.31,0-.17,.16-.3,.33-.29,.15,.01,.28,.16,.27,.31Z"/><path class="f" d="M63.89,98.64c.01,.15-.11,.3-.26,.32-.17,.02-.33-.11-.34-.28-.01-.17,.13-.32,.3-.32,.15,0,.29,.12,.3,.28Z"/><path class="f" d="M101.04,91.05c0,.16-.16,.31-.32,.3-.15,0-.28-.14-.28-.3,0-.17,.14-.31,.31-.3,.16,.01,.29,.14,.29,.29Z"/><path class="f" d="M89.25,58.57c.17,0,.32,.13,.32,.3,0,.15-.14,.29-.28,.3-.16,.02-.31-.13-.32-.3,0-.16,.12-.28,.28-.29Z"/><path class="f" d="M58.44,69.25c0,.17-.14,.31-.31,.31-.15,0-.28-.14-.29-.29s.12-.3,.27-.31c.17-.02,.32,.12,.33,.29Z"/><path class="f" d="M57,89.17c.15,0,.3,.11,.31,.26,.02,.17-.11,.32-.28,.33s-.31-.13-.31-.3c0-.15,.13-.28,.28-.29Z"/><path class="f" d="M83.41,104.17c0,.16-.17,.3-.33,.29-.15-.01-.27-.15-.27-.31,0-.17,.15-.3,.32-.28,.16,.02,.28,.15,.28,.3Z"/><path class="f" d="M86.8,102.95c.15,0,.29,.12,.3,.28,.01,.16-.13,.32-.3,.32-.16,0-.29-.13-.3-.28,0-.17,.13-.32,.3-.32Z"/><path class="f" d="M83.82,57.41c-.16,0-.28-.14-.27-.3,0-.17,.16-.32,.32-.3,.15,.02,.28,.16,.28,.3,0,.16-.15,.3-.32,.29Z"/><path class="f" d="M77.72,104.41c0,.17-.16,.3-.33,.29-.15-.01-.28-.16-.27-.31s.14-.29,.29-.29c.17,0,.32,.14,.31,.31Z"/><path class="f" d="M81.52,104.39c0,.15-.12,.28-.28,.3-.17,.02-.32-.12-.32-.3,0-.16,.13-.29,.28-.3,.16-.01,.32,.13,.32,.3Z"/><path class="f" d="M56.37,87.39c.15,0,.29,.11,.31,.27,.02,.16-.12,.33-.29,.33-.15,0-.29-.12-.31-.27-.02-.16,.12-.32,.29-.32Z"/><path class="f" d="M102.43,87.51c0,.15-.11,.29-.27,.3-.17,.02-.32-.11-.32-.29,0-.16,.11-.3,.27-.31,.16-.01,.32,.13,.33,.29Z"/><path class="f" d="M95.55,63.39c-.17,0-.3-.17-.28-.33,.02-.15,.16-.27,.31-.26,.16,0,.28,.14,.28,.29,0,.17-.14,.31-.31,.3Z"/><path class="f" d="M55.84,83.99c0,.17-.16,.31-.32,.29-.15-.01-.28-.15-.28-.3,0-.16,.16-.31,.32-.29,.15,.02,.28,.16,.28,.3Z"/><path class="f" d="M60.5,66.05c0,.17-.14,.32-.3,.32-.15,0-.28-.14-.3-.29-.01-.16,.13-.31,.31-.31,.16,0,.28,.12,.29,.28Z"/><path class="f" d="M90.6,101.78c0,.16-.14,.28-.29,.28-.17,0-.32-.15-.3-.31,.01-.15,.15-.28,.3-.28,.16,0,.3,.14,.3,.32Z"/><path class="f" d="M93.51,99.45c.17,0,.31,.15,.3,.32,0,.15-.15,.28-.3,.28s-.3-.13-.3-.28c0-.17,.14-.32,.3-.32Z"/><path class="f" d="M68.31,101.55c.15,0,.28,.11,.3,.27,.02,.17-.11,.32-.29,.32-.16,0-.3-.11-.31-.27-.02-.16,.12-.32,.29-.33Z"/><path class="f" d="M73.68,104.11c-.17,0-.32-.13-.32-.3,0-.15,.13-.28,.28-.3,.15,0,.3,.11,.32,.26,.02,.17-.12,.33-.28,.34Z"/><path class="f" d="M90.97,59.43c.16,0,.3,.16,.28,.33-.01,.16-.15,.28-.3,.27-.16,0-.3-.17-.29-.33,.01-.15,.16-.28,.31-.27Z"/><path class="f" d="M88.58,102.87c-.16,0-.29-.12-.3-.28-.01-.16,.13-.32,.3-.32,.16,0,.31,.15,.3,.32,0,.16-.14,.28-.3,.28Z"/><path class="f" d="M81.98,56.53c.16,0,.28,.14,.28,.29,0,.16-.15,.31-.32,.3-.15,0-.28-.14-.28-.29,0-.16,.14-.3,.31-.3Z"/><path class="f" d="M61.21,95.97c0,.16-.13,.29-.28,.29-.16,0-.31-.16-.3-.32,.02-.16,.16-.28,.31-.27,.16,0,.28,.14,.27,.3Z"/><path class="f" d="M56.36,74.57c0,.17-.16,.3-.32,.28-.15-.02-.26-.15-.25-.31,0-.17,.15-.3,.32-.28,.16,.02,.26,.15,.25,.3Z"/><path class="f" d="M61.42,64.31c.16,0,.3,.15,.3,.32,0,.15-.14,.28-.29,.28-.16,0-.31-.16-.3-.32,0-.15,.14-.28,.3-.28Z"/><path class="f" d="M87.53,58.43c-.16,0-.32-.14-.32-.3,0-.15,.13-.28,.28-.29,.17,0,.32,.14,.32,.3,0,.16-.13,.28-.28,.29Z"/><path class="f" d="M103.24,83.82c0,.16-.14,.27-.3,.27-.16,0-.29-.13-.29-.28,0-.17,.16-.31,.32-.29,.16,.02,.28,.16,.27,.31Z"/><path class="f" d="M101.77,72.23c.16,0,.28,.13,.29,.29,0,.16-.11,.3-.26,.31-.17,.01-.32-.14-.31-.3,0-.16,.14-.29,.29-.29Z"/><path class="f" d="M85.7,57.25c.16,0,.3,.14,.3,.32,0,.16-.14,.28-.29,.28-.16,0-.31-.16-.3-.32,0-.15,.14-.28,.29-.28Z"/><path class="f" d="M96.87,64.74c-.15,0-.28-.14-.28-.3,0-.16,.15-.3,.32-.3,.15,0,.28,.14,.28,.29,0,.16-.16,.31-.32,.3Z"/><path class="f" d="M55.41,78.59c-.16,0-.28-.12-.29-.28,0-.16,.11-.29,.27-.3,.18-.01,.32,.12,.31,.3,0,.16-.14,.28-.29,.28Z"/><path class="f" d="M57.59,70.95c0,.18-.14,.32-.3,.31-.15,0-.28-.15-.27-.3,0-.15,.14-.29,.29-.29,.15,0,.28,.13,.29,.28Z"/><path class="f" d="M69.01,58.68c.16,0,.29,.14,.28,.29,0,.15-.14,.28-.29,.29s-.3-.12-.3-.27c-.01-.16,.13-.3,.31-.3Z"/><path class="f" d="M78.16,56.4c.15,0,.3,.12,.3,.27,0,.16-.14,.31-.31,.3-.16,0-.29-.14-.28-.29,0-.15,.14-.28,.29-.29Z"/><path class="f" d="M55.6,80.21c0,.16-.14,.28-.3,.27s-.29-.14-.3-.28c0-.16,.16-.31,.33-.29,.15,.01,.28,.15,.27,.3Z"/><path class="f" d="M70.02,102.93c-.16,0-.28-.15-.27-.3,.01-.15,.15-.28,.3-.27,.16,0,.29,.14,.29,.28,0,.16-.16,.3-.33,.29Z"/><path class="f" d="M103.05,77.78c.15,0,.29,.14,.28,.29,0,.15-.13,.28-.29,.28-.18,0-.32-.14-.3-.31,.02-.15,.16-.28,.31-.26Z"/><path class="f" d="M62.72,63.53c-.16,0-.28-.15-.27-.3,.01-.15,.15-.28,.3-.28,.16,0,.29,.14,.29,.28,0,.16-.15,.3-.32,.29Z"/><path class="f" d="M55.67,76.71c-.16,0-.29-.12-.3-.28,0-.17,.13-.31,.3-.3,.16,0,.28,.14,.28,.29,0,.16-.13,.29-.28,.29Z"/><path class="f" d="M72.84,57.63c0,.16-.14,.29-.29,.28-.16,0-.3-.16-.28-.33,.01-.16,.16-.28,.31-.26,.15,.01,.28,.16,.27,.31Z"/><path class="f" d="M56.62,72.45c.15,0,.29,.14,.29,.29s-.14,.28-.29,.28c-.18,0-.32-.15-.31-.31,.01-.15,.16-.27,.31-.26Z"/><path class="f" d="M71.82,103.01c.16,0,.28,.13,.29,.28,0,.16-.11,.29-.27,.3-.18,.01-.32-.12-.31-.3,0-.16,.14-.28,.29-.28Z"/><path class="f" d="M102.36,74.63c-.15,0-.29-.11-.31-.27-.02-.17,.13-.33,.29-.33,.15,0,.28,.13,.29,.29s-.11,.3-.27,.3Z"/><path class="f" d="M74.41,57.45c-.15,0-.3-.12-.31-.27-.01-.15,.11-.3,.26-.31,.17-.01,.33,.12,.33,.29,0,.15-.13,.28-.29,.29Z"/><path class="f" d="M66.95,100.92c0,.16-.13,.28-.28,.29-.17,0-.31-.14-.3-.31,.01-.16,.14-.27,.3-.26,.16,0,.28,.13,.28,.29Z"/><path class="f" d="M92.25,100.83c0,.15-.14,.28-.29,.29-.15,0-.3-.12-.31-.27s.11-.3,.27-.3c.17-.01,.33,.13,.33,.29Z"/><path class="f" d="M67.31,60.14c-.15,0-.28-.14-.29-.29,0-.17,.14-.32,.31-.31,.15,.01,.27,.15,.27,.31s-.13,.29-.28,.29Z"/><path class="f" d="M59.13,67.92c-.15,0-.29-.11-.31-.27-.02-.17,.12-.33,.29-.32,.15,0,.28,.13,.28,.29,.01,.16-.11,.29-.26,.3Z"/><path class="f" d="M58.69,92.57c.17,0,.31,.13,.32,.3,0,.16-.12,.29-.27,.29-.16,0-.31-.14-.32-.3,0-.14,.12-.28,.28-.29Z"/><path class="f" d="M95.29,98.55c0,.16-.13,.29-.28,.29-.18,0-.32-.14-.31-.3,0-.15,.15-.28,.3-.27,.16,0,.29,.14,.29,.29Z"/><path class="f" d="M99.85,92.44c.15,0,.29,.14,.29,.29s-.14,.28-.29,.28c-.18,0-.32-.15-.31-.31,.01-.15,.16-.27,.31-.26Z"/><path class="f" d="M92.58,60.43c.15,0,.28,.13,.28,.29s-.12,.3-.27,.3c-.16,.01-.32-.14-.31-.31,0-.15,.14-.28,.29-.28Z"/><path class="f" d="M60.05,94.43c0,.16-.11,.29-.26,.3-.16,.01-.3-.09-.31-.25-.02-.17,.11-.32,.28-.32,.16,0,.29,.12,.3,.28Z"/><path class="f" d="M97.94,95.84c0,.16-.13,.28-.29,.28s-.28-.12-.29-.28c0-.17,.14-.31,.31-.3,.16,.01,.28,.14,.27,.3Z"/><path class="f" d="M99.51,67.44c0,.16-.13,.29-.28,.29s-.29-.13-.3-.28c0-.16,.14-.32,.31-.31,.16,0,.28,.13,.27,.3Z"/><path class="f" d="M65.07,99.56c.16,0,.29,.11,.3,.26,.02,.17-.12,.32-.29,.31-.16,0-.28-.13-.28-.28,0-.16,.11-.28,.27-.29Z"/><path class="f" d="M96.37,97.52c-.16,0-.29-.12-.29-.28,0-.15,.13-.29,.28-.3,.17-.01,.32,.14,.31,.3,0,.15-.14,.27-.3,.27Z"/><path class="f" d="M85.27,103.76c.01,.15-.11,.29-.27,.3-.15,.01-.3-.1-.32-.25-.02-.15,.09-.3,.25-.32,.17-.02,.33,.1,.34,.27Z"/><path class="f" d="M62.5,97.38c-.01,.15-.15,.28-.3,.28-.17,0-.3-.16-.28-.33,.02-.16,.16-.28,.31-.25,.16,.02,.28,.16,.27,.3Z"/><path class="f" d="M55.63,82.1c0,.16-.13,.28-.28,.29s-.29-.12-.29-.28c0-.17,.14-.31,.31-.31,.15,0,.27,.14,.27,.3Z"/><path class="f" d="M100.2,68.77c.15-.01,.28,.11,.29,.28s-.11,.29-.26,.31c-.16,.02-.3-.1-.32-.25-.01-.16,.13-.32,.29-.33Z"/><path class="f" d="M98.79,94.03c.15-.01,.29,.11,.31,.27,.02,.17-.12,.33-.29,.33-.15,0-.28-.14-.29-.29,0-.16,.11-.3,.27-.31Z"/><path class="f" d="M65.69,60.57c.16,0,.3,.11,.31,.26s-.11,.29-.26,.31c-.17,.02-.33-.12-.33-.28,0-.15,.13-.28,.28-.29Z"/><path class="f" d="M75.82,104.17c0,.16-.11,.29-.27,.3-.16,0-.32-.13-.32-.3,0-.15,.13-.28,.29-.28,.16,0,.29,.12,.3,.28Z"/><path class="f" d="M57.82,90.91c.15,.01,.27,.15,.27,.3,0,.17-.16,.31-.32,.28-.15-.02-.26-.17-.25-.32,.01-.15,.16-.28,.3-.26Z"/><path class="f" d="M102.75,75.9c.15,0,.29,.11,.3,.27s-.11,.29-.26,.3c-.16,.02-.3-.09-.32-.24-.02-.16,.11-.32,.28-.33Z"/><path class="f" d="M101.8,89.31c0,.15-.12,.3-.26,.31s-.29-.11-.31-.26c-.02-.16,.12-.33,.28-.33,.14,0,.28,.14,.29,.29Z"/><path class="f" d="M80.08,56.39c.15,0,.29,.14,.29,.29,0,.16-.17,.3-.33,.28-.16-.02-.28-.16-.26-.31,.01-.15,.15-.27,.31-.26Z"/><path class="f" d="M55.59,85.84c0-.16,.14-.28,.29-.28,.17,0,.31,.16,.3,.32,0,.15-.15,.27-.31,.25-.16-.02-.28-.14-.28-.3Z"/><path class="f" d="M102.62,85.39c.16,0,.29,.14,.29,.28,0,.15-.13,.28-.29,.29-.17,0-.32-.14-.31-.3,0-.14,.15-.27,.3-.27Z"/><path class="f" d="M101.07,70.48c.16,0,.29,.14,.29,.29s-.14,.28-.29,.28c-.17,0-.32-.14-.3-.31,.02-.15,.16-.27,.31-.26Z"/><path class="f" d="M71.04,58.21c0,.17-.16,.31-.32,.3-.15,0-.27-.15-.25-.31s.14-.28,.3-.28c.15,0,.28,.13,.28,.28Z"/><path class="f" d="M64.19,62.28c-.15,.01-.28-.11-.29-.27,0-.16,.1-.29,.26-.3,.16-.02,.3,.09,.31,.24,.02,.16-.12,.32-.28,.33Z"/><path class="f" d="M94.41,61.86c0,.15-.14,.28-.3,.27-.16,0-.28-.13-.28-.3,0-.14,.11-.27,.25-.28,.16-.01,.32,.13,.32,.3Z"/><path class="f" d="M76.56,56.83c0,.16-.11,.29-.27,.3-.17,.01-.32-.12-.32-.29,0-.15,.14-.28,.29-.28,.16,0,.29,.12,.29,.28Z"/><path class="f" d="M103.44,79.98c0,.16-.13,.28-.29,.28s-.28-.12-.29-.28c0-.17,.15-.32,.31-.3,.16,.01,.28,.15,.27,.3Z"/><path class="f" d="M101.2,81.54c0,.16-.11,.3-.26,.3-.13,0-.25-.11-.27-.25-.01-.16,.1-.3,.25-.3,.14,0,.26,.1,.27,.24Z"/><path class="f" d="M99.35,72.15c.14-.01,.26,.1,.28,.24,.01,.14-.1,.26-.24,.27s-.26-.1-.28-.23c0-.14,.1-.27,.24-.28Z"/><path class="f" d="M71.48,60.54c-.14,0-.25-.14-.24-.27,0-.14,.14-.25,.27-.24,.14,0,.25,.14,.24,.27,0,.14-.14,.25-.27,.24Z"/><path class="f" d="M88.06,100.5c0,.14-.11,.26-.25,.27-.14,0-.26-.11-.27-.25,0-.14,.11-.26,.25-.27,.14,0,.27,.1,.27,.24Z"/><path class="f" d="M73.26,59.44c.14,0,.27,.11,.27,.24,0,.14-.1,.26-.24,.27-.14,0-.26-.1-.27-.25-.02-.14,.1-.26,.24-.26Z"/><path class="f" d="M62.74,66.74c0,.14-.13,.26-.26,.25-.14,0-.25-.12-.25-.26,0-.14,.12-.25,.26-.25s.26,.12,.25,.26Z"/><circle class="f" cx="100.45" cy="85.28" r=".26"/><path class="f" d="M65.27,96.99c0,.14-.13,.25-.26,.25-.14,0-.25-.13-.25-.26,0-.14,.13-.25,.26-.25,.14,0,.26,.13,.25,.26Z"/><path class="f" d="M76.81,102.39c-.14-.01-.25-.14-.23-.28,.01-.14,.14-.25,.28-.23,.14,.01,.25,.14,.24,.28-.01,.14-.14,.25-.28,.23Z"/><path class="f" d="M60.61,69.81c0,.14-.13,.25-.26,.25-.14,0-.25-.13-.25-.27s.12-.25,.26-.25c.13,0,.24,.13,.24,.27Z"/><path class="f" d="M79.06,58.87c0,.14-.13,.25-.26,.25s-.25-.11-.25-.26c0-.13,.12-.25,.26-.25,.14,0,.26,.13,.25,.26Z"/><path class="f" d="M63.73,65.09c.14,0,.26,.11,.26,.25,0,.13-.09,.24-.21,.25-.14,.02-.27-.08-.28-.23-.01-.14,.09-.27,.23-.28Z"/><path class="f" d="M86.16,60.24c-.14,0-.26-.12-.26-.26,0-.14,.13-.25,.28-.24,.13,0,.23,.11,.23,.23,0,.14-.11,.26-.25,.26Z"/><path class="f" d="M94.03,96.2c.14,0,.26,.11,.25,.25,0,.13-.1,.23-.23,.24-.14,.01-.27-.09-.28-.23,0-.14,.11-.26,.25-.26Z"/><path class="f" d="M66.74,98.14c0,.14-.13,.26-.27,.25-.14,0-.25-.14-.25-.28,0-.13,.11-.23,.24-.23,.14,0,.27,.11,.27,.25Z"/><path class="f" d="M98.79,90.53c0,.13-.11,.25-.25,.26-.14,0-.26-.11-.26-.24s.11-.25,.25-.26c.14,0,.26,.1,.26,.24Z"/><path class="f" d="M58.07,84.24c0,.14-.13,.25-.27,.24-.14,0-.25-.13-.25-.26,0-.14,.12-.25,.27-.24,.14,0,.25,.12,.25,.26Z"/><path class="f" d="M57.75,80.51c0,.14-.12,.25-.26,.25-.13,0-.23-.1-.23-.23,0-.14,.1-.27,.24-.28,.13,0,.25,.12,.25,.26Z"/><path class="f" d="M57.84,78.63c0,.14-.1,.27-.24,.27-.14,0-.25-.11-.25-.26,0-.13,.1-.23,.22-.25,.14-.02,.27,.09,.28,.23Z"/><path class="f" d="M75.11,59.01c.14,0,.25,.14,.23,.28-.02,.12-.13,.22-.25,.22-.14,0-.26-.12-.25-.26s.13-.24,.28-.23Z"/><path class="f" d="M77.19,58.97c0,.14-.1,.27-.24,.27-.14,0-.25-.11-.25-.26,0-.13,.1-.23,.22-.25,.14-.01,.27,.09,.28,.24Z"/><path class="f" d="M91.19,62.7c-.14,0-.26-.12-.25-.26,0-.14,.13-.24,.28-.23,.13,.01,.23,.11,.23,.24,0,.14-.12,.26-.25,.25Z"/><path class="f" d="M84.63,59.45c.01,.14-.1,.27-.24,.28-.14,0-.27-.11-.27-.25,0-.12,.09-.23,.22-.25,.14-.02,.28,.08,.29,.22Z"/><path class="f" d="M80.67,59.16c-.14,0-.26-.13-.25-.27,0-.14,.14-.24,.28-.23,.13,.01,.23,.12,.23,.24,0,.14-.13,.26-.26,.26Z"/><path class="f" d="M92.95,63.54c0,.15-.11,.26-.25,.26-.14,0-.25-.13-.24-.27,0-.12,.11-.23,.23-.24,.14,0,.26,.11,.26,.25Z"/><path class="f" d="M70.04,61.01c0,.14-.11,.26-.25,.27-.12,0-.23-.09-.25-.23-.02-.15,.09-.28,.22-.29,.14,0,.27,.11,.28,.25Z"/><path class="f" d="M95.67,66.1c0,.15-.11,.27-.25,.26-.14,0-.25-.14-.24-.28,0-.12,.11-.23,.24-.24,.14,0,.26,.11,.26,.25Z"/><path class="f" d="M87.92,60.91c-.15,0-.27-.09-.27-.24,0-.14,.12-.25,.26-.25,.12,0,.23,.1,.25,.22,.02,.14-.09,.26-.24,.27Z"/><path class="f" d="M82.77,59.14c0,.14-.13,.25-.27,.24-.14-.02-.24-.15-.22-.29,.02-.12,.13-.22,.25-.22,.14,0,.25,.12,.24,.27Z"/><path class="f" d="M65.36,64.1c0,.12-.11,.23-.23,.23-.16,0-.29-.13-.27-.28,.02-.12,.13-.21,.25-.21,.14,0,.26,.12,.25,.26Z"/><path class="f" d="M101.04,77.79c0,.12-.09,.24-.21,.26-.16,.02-.3-.1-.3-.26,0-.12,.1-.23,.23-.24,.13,0,.26,.1,.28,.24Z"/><path class="f" d="M89.73,99.73c0,.12-.11,.23-.24,.23-.14,0-.25-.11-.25-.26,0-.14,.12-.26,.26-.25,.14,.01,.24,.14,.23,.28Z"/><path class="f" d="M100.22,87.09c0,.14-.14,.25-.28,.25-.13,0-.23-.11-.23-.24,0-.16,.14-.28,.29-.26,.13,.02,.23,.14,.22,.25Z"/><path class="f" d="M68.3,99.19c0,.14-.13,.25-.28,.23-.13,0-.23-.11-.24-.24,0-.14,.12-.26,.26-.26,.14,0,.26,.13,.26,.27Z"/><path class="f" d="M86.3,101.16c0,.14-.1,.26-.24,.27-.12,0-.23-.09-.25-.21-.02-.14,.08-.27,.22-.29,.14-.02,.26,.09,.27,.23Z"/><path class="f" d="M58.8,72.94c.12,0,.23,.1,.25,.22,.01,.14-.1,.26-.24,.27-.15,0-.27-.1-.27-.24s.12-.25,.26-.25Z"/><path class="f" d="M59.48,71.71c-.14,0-.25-.14-.23-.27,.02-.12,.12-.22,.25-.22,.14,0,.26,.11,.25,.25,0,.14-.13,.25-.27,.24Z"/><path class="f" d="M73.42,101.41c0,.14-.12,.25-.26,.25s-.25-.12-.23-.27c.01-.13,.11-.22,.23-.23,.14,0,.27,.11,.26,.25Z"/><path class="f" d="M98.61,70.96c-.14,0-.26-.11-.26-.25,0-.13,.09-.24,.21-.25,.14-.02,.26,.09,.28,.23,.02,.14-.09,.27-.23,.28Z"/><path class="f" d="M60.33,91.49c-.14,.01-.26-.1-.27-.24-.01-.14,.1-.27,.24-.27,.12,0,.23,.09,.25,.22,.02,.14-.08,.28-.22,.29Z"/><path class="f" d="M97.92,69.07c0,.12-.09,.24-.21,.25-.14,.02-.28-.08-.3-.21-.02-.14,.08-.27,.23-.28,.14-.01,.27,.09,.28,.23Z"/><path class="f" d="M61.11,68.2c0-.13,.11-.23,.23-.23,.16,0,.28,.14,.26,.29-.02,.13-.12,.21-.25,.21-.14,0-.25-.12-.23-.27Z"/><path class="f" d="M78.95,102.27c0,.14-.14,.24-.28,.23-.14,0-.25-.14-.23-.28,.02-.14,.15-.23,.3-.21,.13,.02,.22,.13,.21,.25Z"/><path class="f" d="M96.6,67.29c.14-.01,.26,.1,.27,.24,0,.12-.09,.23-.22,.25-.14,.02-.28-.08-.29-.22-.01-.14,.1-.26,.24-.27Z"/><path class="f" d="M91.34,98.76c0,.14-.12,.25-.27,.23-.14-.01-.25-.14-.23-.28,.01-.12,.12-.22,.25-.22,.14,0,.26,.12,.25,.26Z"/><path class="f" d="M97.86,92.13c.01,.14-.1,.26-.24,.27-.14,0-.26-.11-.25-.25,0-.12,.09-.23,.22-.25,.14-.02,.27,.09,.28,.23Z"/><path class="f" d="M61.53,92.83c0,.14-.14,.25-.27,.23-.12-.02-.22-.13-.22-.25,0-.14,.12-.25,.25-.25,.14,0,.24,.12,.23,.27Z"/><path class="f" d="M59.7,89.58c0,.14-.13,.25-.27,.23-.13-.01-.23-.11-.23-.23,0-.13,.11-.25,.25-.25,.14,0,.26,.11,.25,.25Z"/><path class="f" d="M96.53,93.94c-.14,0-.24-.14-.23-.28,.01-.14,.14-.25,.28-.23,.12,.02,.21,.13,.21,.25,0,.14-.13,.26-.26,.25Z"/><path class="f" d="M95.6,95.12c0,.14-.13,.25-.27,.25-.14-.01-.25-.14-.24-.28,.01-.12,.12-.22,.25-.22,.14,0,.26,.11,.26,.25Z"/><path class="f" d="M58.21,86.3c-.14,0-.25-.12-.25-.26,0-.14,.13-.25,.27-.24,.12,0,.22,.11,.23,.23,0,.14-.11,.26-.25,.26Z"/><path class="f" d="M101.02,83.45c0,.14-.12,.24-.28,.23-.13,0-.23-.11-.23-.23,0-.14,.12-.26,.25-.26,.14,0,.25,.13,.25,.26Z"/><path class="f" d="M68.14,61.65c.14,0,.25,.14,.25,.27,0,.14-.14,.24-.28,.23-.12-.01-.23-.11-.23-.24,0-.14,.12-.26,.26-.25Z"/><path class="f" d="M69.68,100.31c-.14,0-.26-.11-.25-.25,0-.13,.11-.23,.23-.24,.14-.01,.26,.09,.28,.23,0,.14-.11,.25-.25,.26Z"/><path class="f" d="M80.57,102.48c-.14,0-.26-.11-.26-.25,0-.14,.12-.25,.26-.25,.12,0,.22,.1,.23,.23,.02,.15-.09,.27-.23,.27Z"/><path class="f" d="M101.19,79.68c0,.14-.13,.24-.27,.23-.13,0-.23-.11-.23-.23,0-.14,.11-.25,.25-.26,.14,0,.25,.12,.25,.26Z"/><path class="f" d="M66.83,62.91c0,.13-.12,.26-.25,.27-.14,0-.26-.12-.25-.26,0-.13,.1-.23,.23-.24,.14-.01,.28,.1,.28,.23Z"/><path class="f" d="M82.4,102.27c-.13,0-.23-.11-.23-.23,0-.14,.11-.25,.25-.26,.14,0,.25,.12,.25,.26,0,.14-.13,.24-.28,.23Z"/><path class="f" d="M94.37,64.75c0,.14-.11,.25-.25,.25-.13,0-.24-.1-.25-.21-.01-.14,.1-.27,.23-.28,.14,0,.26,.1,.27,.24Z"/><path class="f" d="M71.65,100.81c0,.14-.12,.26-.26,.25-.13,0-.24-.1-.25-.22-.01-.14,.1-.27,.24-.28,.14-.02,.26,.1,.26,.24Z"/><path class="f" d="M62.66,94.3c0,.12-.09,.24-.21,.26-.14,.02-.26-.09-.28-.23-.01-.13,.08-.24,.2-.25,.14-.02,.27,.09,.28,.22Z"/><path class="f" d="M58.22,74.74c.14,0,.26,.11,.25,.25,0,.13-.11,.23-.23,.23-.14,0-.25-.11-.25-.25,0-.13,.1-.23,.23-.23Z"/><path class="f" d="M89.59,61.72c-.14,0-.26-.12-.25-.25,0-.12,.11-.23,.24-.23,.14,0,.25,.11,.25,.26,0,.13-.11,.23-.24,.23Z"/><path class="f" d="M58.73,88.09c-.12,0-.23-.11-.23-.24,0-.14,.11-.25,.26-.25,.13,0,.23,.1,.23,.23,0,.15-.11,.26-.25,.25Z"/><path class="f" d="M57.57,82.13c.12,0,.24,.09,.25,.21,.02,.14-.09,.26-.23,.27-.13,0-.24-.08-.25-.21,0-.14,.1-.27,.23-.28Z"/><path class="f" d="M99.32,89.08c-.14,0-.24-.14-.23-.28,.02-.12,.14-.21,.25-.21,.14,0,.25,.14,.23,.28-.02,.12-.13,.21-.25,.21Z"/><path class="f" d="M100.24,74.18c0,.12-.12,.22-.24,.22-.14,0-.25-.12-.24-.26,0-.12,.11-.22,.24-.22,.14,0,.25,.12,.24,.26Z"/><path class="f" d="M84.49,101.69c0,.13-.1,.23-.22,.24-.14,.01-.26-.11-.26-.24,0-.14,.13-.25,.26-.24,.12,0,.22,.11,.22,.24Z"/><path class="f" d="M100.47,75.73c.14,0,.26,.11,.25,.25,0,.12-.11,.23-.23,.23-.14,0-.26-.11-.25-.25,0-.13,.1-.23,.23-.24Z"/><path class="f" d="M75.22,101.84c0,.12-.09,.23-.21,.25-.14,.02-.27-.09-.27-.23,0-.12,.09-.23,.21-.25,.14-.02,.26,.09,.27,.23Z"/><path class="f" d="M58.07,76.8c0,.12-.1,.23-.22,.24-.14,.01-.26-.1-.26-.24,0-.12,.1-.23,.22-.24,.14-.01,.26,.1,.26,.24Z"/><path class="f" d="M63.64,95.47c.12,0,.24,.08,.25,.21,.02,.14-.09,.27-.23,.28-.14,0-.26-.11-.25-.25,0-.13,.1-.23,.23-.23Z"/><path class="f" d="M92.6,97.43c.12,0,.24,.08,.25,.21,.02,.14-.09,.27-.23,.28-.14,0-.26-.11-.25-.25,0-.13,.1-.23,.23-.23Z"/><path class="f" d="M98.96,81.23c0,.13-.11,.23-.24,.22-.12-.02-.21-.14-.2-.26,.01-.11,.11-.2,.22-.2,.13,0,.23,.12,.22,.25Z"/><path class="f" d="M75.79,61.15c.12,0,.22,.12,.21,.25-.01,.11-.11,.19-.22,.18-.11,0-.2-.09-.21-.2,0-.12,.1-.23,.23-.23Z"/><path class="f" d="M66.66,95.31c0,.11-.08,.21-.19,.22-.13,.02-.24-.08-.24-.21,0-.11,.08-.21,.19-.23,.12-.02,.23,.08,.24,.21Z"/><path class="f" d="M60.4,75.19c.11,0,.21,.09,.21,.2,0,.13-.09,.24-.22,.23-.11,0-.21-.09-.22-.2,0-.12,.09-.23,.22-.23Z"/><path class="f" d="M73.99,61.99c-.12,0-.23-.11-.22-.23,0-.11,.1-.2,.21-.2,.11,0,.21,.08,.22,.19,.01,.13-.09,.24-.21,.24Z"/><path class="f" d="M60.53,86.02c.12,0,.23,.1,.22,.23,0,.11-.1,.2-.21,.2s-.21-.09-.22-.19c-.01-.12,.09-.23,.21-.24Z"/><path class="f" d="M90.45,96.68c0,.13-.11,.23-.24,.21-.11-.01-.19-.11-.19-.22,0-.12,.11-.23,.24-.21,.11,.01,.2,.11,.19,.22Z"/><path class="f" d="M69.41,97.22c.11,0,.21,.08,.22,.19,.01,.12-.09,.24-.21,.24-.11,0-.21-.09-.22-.19-.02-.12,.08-.23,.21-.24Z"/><path class="f" d="M71.26,98.29c0,.11-.09,.2-.21,.21-.13,0-.24-.1-.23-.22,0-.11,.09-.2,.2-.21,.13,0,.24,.1,.23,.23Z"/><path class="f" d="M97.36,88.36c0,.11-.1,.2-.21,.2-.13,0-.23-.11-.22-.23s.13-.22,.25-.2c.1,.01,.18,.12,.18,.23Z"/><path class="f" d="M95.6,91.52c0,.12-.1,.23-.23,.23-.11,0-.2-.09-.21-.21,0-.11,.08-.21,.18-.23,.12-.02,.24,.08,.25,.21Z"/><path class="f" d="M72.96,98.98c0,.11-.08,.21-.2,.21-.13,0-.24-.09-.23-.21,0-.11,.09-.21,.2-.21,.12-.02,.23,.09,.23,.21Z"/><path class="f" d="M91.5,65.23c0,.11-.1,.21-.21,.2-.13,0-.23-.12-.21-.25,.01-.11,.13-.19,.23-.18,.11,.01,.2,.11,.19,.23Z"/><path class="f" d="M65.14,93.84c.11,.01,.2,.11,.19,.23,0,.11-.09,.21-.21,.21-.13,0-.23-.12-.22-.25,.01-.11,.12-.19,.23-.18Z"/><path class="f" d="M78.32,100.04c0,.13-.12,.23-.24,.22-.11-.01-.19-.12-.18-.23,.01-.11,.11-.2,.22-.2,.11,0,.21,.1,.21,.21Z"/><path class="f" d="M77.58,61.34c-.13,0-.23-.13-.21-.25,.02-.11,.13-.19,.24-.17s.19,.12,.18,.23c0,.11-.11,.2-.22,.19Z"/><path class="f" d="M79.64,61.06c0,.11-.08,.22-.19,.23-.13,0-.24-.1-.24-.23,0-.11,.1-.2,.21-.2s.21,.09,.22,.2Z"/><path class="f" d="M81.78,99.7c.11,0,.21,.1,.2,.21,0,.13-.13,.23-.25,.21-.11-.02-.19-.13-.18-.24,.01-.11,.11-.19,.23-.18Z"/><path class="f" d="M97.85,74.02c0,.11-.1,.21-.21,.21-.13,0-.23-.12-.22-.24,.01-.11,.12-.19,.23-.18,.11,0,.2,.11,.2,.22Z"/><path class="f" d="M60.95,73.88c-.11,0-.2-.09-.2-.21,0-.11,.09-.21,.2-.21,.11,0,.21,.09,.22,.19,.01,.13-.09,.24-.22,.23Z"/><path class="f" d="M62.86,90.97c.11,0,.21,.11,.21,.21,0,.13-.12,.23-.25,.21-.11-.01-.19-.12-.18-.23,.01-.11,.11-.2,.22-.19Z"/><path class="f" d="M90.02,64.18c0,.11-.1,.2-.21,.2s-.21-.09-.21-.2c0-.11,.09-.22,.19-.22,.13-.01,.24,.09,.23,.22Z"/><path class="f" d="M62.57,70.18c.13,0,.23,.12,.22,.24-.01,.11-.12,.19-.23,.18-.11-.01-.2-.11-.2-.22,0-.11,.1-.21,.21-.2Z"/><path class="f" d="M59.92,80.8c0,.11-.07,.22-.18,.23-.12,.02-.25-.09-.25-.21,0-.11,.09-.21,.21-.21,.11,0,.21,.08,.22,.19Z"/><path class="f" d="M84.85,61.66c.11,0,.2,.11,.2,.22,0,.11-.09,.21-.21,.21-.11,0-.21-.08-.22-.2,0-.13,.1-.23,.23-.23Z"/><path class="f" d="M95.09,68.96c.11,0,.21,.09,.22,.2,0,.11-.09,.22-.19,.23-.13,0-.24-.1-.24-.23,0-.11,.09-.2,.21-.2Z"/><path class="f" d="M63.92,92.46c.11,0,.21,.09,.21,.2s-.08,.21-.2,.22c-.11,.01-.22-.07-.23-.18-.01-.12,.09-.24,.22-.25Z"/><path class="f" d="M97.81,86.41c.11,0,.21,.1,.21,.21s-.09,.21-.21,.21c-.13,0-.23-.11-.23-.23,0-.11,.11-.2,.23-.19Z"/><path class="f" d="M98.59,83.26c-.11,0-.21-.09-.21-.2s.09-.2,.2-.21c.13,0,.23,.1,.23,.22,0,.11-.11,.19-.22,.18Z"/><path class="f" d="M67.67,65.01c0,.11-.1,.21-.21,.21-.12,0-.22-.12-.2-.25,.02-.11,.12-.19,.22-.18,.11,0,.19,.11,.18,.22Z"/><path class="f" d="M96.54,89.97c0,.11-.08,.21-.18,.22-.11,0-.21-.07-.22-.18-.02-.12,.09-.25,.21-.24,.11,0,.2,.09,.2,.21Z"/><path class="f" d="M59.76,78.79c.11,0,.2,.09,.21,.21,0,.13-.1,.23-.22,.22-.11-.01-.19-.11-.18-.22,0-.11,.1-.21,.2-.21Z"/><path class="f" d="M60.03,82.65c0,.11-.09,.2-.2,.21-.13,0-.23-.1-.23-.22,0-.11,.11-.19,.22-.18,.11,0,.2,.09,.21,.2Z"/><path class="f" d="M72.26,62.13c.11,0,.2,.1,.21,.21,0,.13-.11,.23-.24,.21-.11-.02-.19-.12-.18-.23,0-.11,.11-.2,.22-.19Z"/><path class="f" d="M93.06,94.14c.11,0,.21,.09,.2,.21,0,.11-.09,.21-.2,.22-.11,0-.21-.08-.22-.19-.01-.13,.09-.24,.22-.24Z"/><path class="f" d="M86.77,62.47c0,.11-.08,.21-.19,.22-.12,.01-.24-.09-.23-.22,0-.11,.09-.2,.21-.2,.11,0,.21,.09,.21,.2Z"/><path class="f" d="M80.14,100.05c0,.11-.08,.21-.18,.22-.12,.01-.23-.09-.22-.22,0-.11,.1-.21,.21-.2,.11,0,.2,.09,.2,.2Z"/><path class="f" d="M76.3,99.65c.11,0,.21,.1,.21,.21s-.09,.2-.21,.2c-.13,0-.23-.1-.22-.22,.01-.11,.11-.19,.22-.18Z"/><path class="f" d="M83.78,99.61c0,.11-.11,.2-.22,.19-.11,0-.2-.11-.2-.21,0-.11,.09-.21,.2-.21,.13,0,.23,.1,.22,.23Z"/><path class="f" d="M74.52,99.71c-.13,0-.24-.09-.24-.22,0-.11,.09-.21,.21-.2,.11,0,.21,.09,.22,.2,.01,.11-.08,.22-.18,.23Z"/><path class="f" d="M85.32,99.31c-.11,0-.21-.09-.21-.21,0-.13,.11-.23,.23-.22,.11,.01,.2,.11,.19,.23,0,.11-.1,.2-.21,.2Z"/><path class="f" d="M87.04,98.66c-.11,0-.21-.08-.22-.18,0-.11,.07-.21,.18-.22,.13-.02,.25,.09,.25,.21,0,.1-.1,.19-.21,.2Z"/><path class="f" d="M63.81,68.86c0,.13-.11,.23-.24,.22-.1,0-.18-.09-.19-.18-.01-.13,.08-.24,.21-.24,.12,0,.21,.09,.21,.2Z"/><path class="f" d="M64.97,67.47c0,.11-.1,.21-.21,.2-.12,0-.22-.12-.2-.25,.02-.11,.12-.19,.23-.18,.11,.02,.19,.11,.18,.23Z"/><path class="f" d="M88.89,97.62c.01,.11-.07,.21-.18,.22-.12,.02-.25-.08-.25-.21,0-.11,.09-.2,.21-.2,.11,0,.21,.08,.23,.18Z"/><path class="f" d="M96.08,70.92c-.11,0-.21-.09-.21-.21,0-.11,.08-.21,.19-.22,.12-.01,.23,.09,.23,.23,0,.11-.1,.2-.21,.2Z"/><path class="f" d="M61.7,72.2c-.11,0-.21-.08-.22-.18-.01-.12,.1-.23,.23-.22,.11,0,.21,.1,.2,.21,0,.11-.09,.2-.21,.2Z"/><path class="f" d="M67.88,96.23c.11,0,.2,.09,.21,.21,0,.13-.1,.23-.22,.22-.11,0-.19-.11-.18-.22,0-.11,.09-.21,.2-.21Z"/><path class="f" d="M92.9,66.41c0,.11-.07,.21-.18,.22-.12,.01-.24-.09-.24-.21,0-.11,.1-.2,.21-.2,.11,0,.21,.08,.22,.19Z"/><path class="f" d="M91.71,95.79c-.11,0-.21-.08-.22-.18-.01-.12,.09-.23,.22-.22,.11,0,.21,.09,.21,.2s-.09,.2-.21,.21Z"/><path class="f" d="M68.99,64.17c-.11,0-.21-.07-.23-.18-.02-.12,.09-.23,.22-.23,.11,0,.21,.09,.21,.2,0,.11-.09,.2-.21,.21Z"/><path class="f" d="M61.94,89.81c-.11,0-.21-.07-.23-.18-.01-.12,.09-.23,.22-.23,.11,0,.21,.09,.21,.2,0,.11-.09,.2-.2,.21Z"/><path class="f" d="M98.49,84.88c0,.11-.11,.19-.22,.18-.13,0-.23-.12-.2-.24,.02-.11,.13-.18,.24-.17,.11,.02,.2,.12,.18,.23Z"/><path class="f" d="M98.52,77.34c.11,0,.21,.08,.22,.19,.02,.12-.09,.24-.22,.23-.11,0-.2-.1-.2-.21,0-.11,.08-.2,.2-.21Z"/><path class="f" d="M70.78,63.1c0,.11-.11,.19-.23,.18-.12-.01-.2-.11-.19-.23,.01-.11,.11-.2,.23-.18,.11,.02,.2,.12,.19,.23Z"/><path class="f" d="M94.49,93.02c-.01,.11-.11,.19-.23,.19-.11,0-.19-.11-.18-.23,.01-.11,.11-.2,.22-.19,.11,.01,.2,.12,.18,.23Z"/><path class="f" d="M98.93,79.35c0,.11-.07,.21-.18,.22-.11,0-.21-.07-.22-.18,0-.11,.07-.21,.18-.22,.11,0,.21,.07,.22,.18Z"/><path class="f" d="M60.01,77.4c-.11,0-.21-.08-.21-.2,0-.12,.08-.22,.19-.22,.11,0,.21,.09,.21,.2,0,.11-.08,.21-.19,.22Z"/><path class="f" d="M66.03,66.38c-.11-.01-.19-.11-.18-.23,0-.11,.1-.2,.21-.2,.12,0,.23,.12,.21,.25-.02,.11-.13,.18-.24,.18Z"/><path class="f" d="M98.38,75.76c0,.11-.09,.21-.21,.21s-.21-.09-.21-.2c0-.11,.09-.2,.21-.21,.11,0,.21,.09,.21,.2Z"/><path class="f" d="M97.14,72.32c0,.11-.09,.21-.21,.21s-.21-.09-.21-.2c0-.11,.09-.2,.21-.21,.11,0,.21,.09,.21,.2Z"/><path class="f" d="M93.94,67.95c-.11,0-.21-.09-.21-.2,0-.11,.09-.21,.21-.21s.21,.09,.21,.2c0,.11-.09,.2-.21,.21Z"/><path class="f" d="M61.36,87.94c0,.11-.09,.21-.19,.22-.11,0-.21-.09-.21-.2,0-.11,.08-.21,.19-.21,.11,0,.21,.08,.21,.19Z"/><path class="f" d="M81.27,60.96c.11,0,.2,.11,.18,.22-.01,.11-.11,.2-.22,.19-.11,0-.19-.11-.18-.23,0-.11,.11-.2,.22-.18Z"/><path class="f" d="M88.24,63.05c.11,0,.19,.11,.18,.23s-.11,.2-.22,.19c-.11,0-.2-.11-.18-.22,.01-.11,.11-.21,.22-.19Z"/><path class="f" d="M60.29,84.45c0,.11-.08,.21-.2,.21-.1,0-.18-.07-.2-.16-.02-.11,.07-.22,.18-.23,.11-.01,.21,.07,.22,.18Z"/><path class="f" d="M83.25,61.43c0,.11-.08,.21-.2,.21-.1,0-.18-.07-.2-.17-.02-.11,.07-.22,.18-.23,.11-.01,.21,.07,.22,.19Z"/><path class="f" d="M96.75,80.88c0,.1-.07,.19-.16,.2-.11,.01-.2-.09-.2-.21,0-.1,.09-.18,.18-.18s.17,.09,.18,.19Z"/><path class="f" d="M92.49,69.2c0,.09-.07,.18-.16,.19-.09,0-.18-.07-.19-.16,0-.09,.07-.18,.16-.19s.18,.07,.19,.16Z"/><path class="f" d="M93.07,91.19c-.09,0-.18-.07-.19-.16-.01-.09,.06-.18,.16-.19,.09-.01,.18,.06,.19,.16,0,.1-.07,.19-.16,.2Z"/><path class="f" d="M72.49,64.8c-.09,0-.18-.07-.19-.16,0-.09,.07-.18,.16-.19,.09,0,.18,.06,.19,.16,0,.09-.07,.18-.16,.19Z"/><path class="f" d="M77.9,63.32c0,.09-.09,.17-.18,.17-.09,0-.17-.09-.17-.18s.09-.17,.18-.17c.09,0,.17,.09,.17,.18Z"/><path class="f" d="M67.86,67.32c.09,0,.18,.07,.19,.16,0,.09-.07,.18-.16,.19s-.18-.07-.19-.16c-.01-.09,.07-.18,.16-.19Z"/><path class="f" d="M67.39,93.04c.09,0,.18,.09,.18,.18s-.09,.18-.18,.18-.18-.09-.18-.18,.09-.18,.18-.18Z"/><path class="f" d="M76.1,63.55c0,.09-.06,.18-.16,.19-.09,.01-.18-.06-.19-.16-.01-.09,.06-.18,.16-.19,.1,0,.19,.07,.2,.16Z"/><path class="f" d="M63.7,73.22c0,.09-.07,.18-.16,.19-.09,0-.18-.07-.19-.16,0-.09,.07-.18,.16-.19,.1,0,.18,.07,.19,.16Z"/><path class="f" d="M95.18,73.63c.09,0,.18,.07,.19,.16,0,.09-.07,.18-.16,.19-.09,0-.18-.07-.19-.16-.01-.09,.07-.18,.16-.19Z"/><path class="f" d="M96.52,79.23c-.09,0-.19-.07-.19-.16,0-.08,.06-.16,.14-.17,.1-.02,.19,.05,.21,.14,.01,.09-.06,.19-.16,.2Z"/><path class="f" d="M62.21,78.46c0,.1-.1,.17-.2,.16-.1-.01-.16-.11-.15-.21,.02-.08,.09-.14,.17-.14,.1,0,.18,.09,.17,.18Z"/><path class="f" d="M68.95,94.36c.01,.09-.07,.19-.17,.19-.09,0-.18-.08-.18-.18,0-.08,.07-.16,.15-.16,.11-.02,.2,.05,.21,.15Z"/><path class="f" d="M65.57,70.13c0,.09-.09,.18-.18,.17-.08,0-.15-.07-.16-.15-.01-.1,.06-.19,.16-.19,.1,0,.19,.07,.19,.17Z"/><path class="f" d="M96.44,82.54c.09,0,.18,.09,.17,.19,0,.1-.1,.17-.2,.15-.08-.01-.15-.09-.15-.16,0-.1,.09-.18,.18-.18Z"/><path class="f" d="M71.88,96.07c.09,0,.18,.09,.18,.18,0,.09-.07,.16-.15,.16-.1,0-.19-.07-.2-.16,0-.09,.07-.19,.17-.19Z"/><path class="f" d="M95.6,86.41c-.1,0-.18-.09-.16-.19,.01-.08,.09-.15,.17-.15,.09,0,.18,.09,.18,.18s-.09,.17-.19,.16Z"/><path class="f" d="M84.27,97.31c-.08,0-.16-.06-.17-.14-.02-.11,.07-.21,.19-.21,.08,0,.15,.08,.15,.16,0,.09-.07,.18-.17,.18Z"/><path class="f" d="M89.14,94.6c.09,0,.18,.09,.18,.18,0,.09-.09,.18-.19,.17-.08,0-.15-.07-.15-.16,0-.1,.07-.19,.16-.19Z"/><path class="f" d="M73.56,96.76c.1,0,.18,.08,.18,.18,0,.09-.09,.17-.19,.16-.09,0-.15-.07-.16-.16,0-.1,.07-.18,.17-.18Z"/><path class="f" d="M70.83,65.25c.09,0,.18,.08,.18,.18,0,.08-.07,.15-.15,.16-.1,.01-.19-.05-.2-.15,0-.09,.07-.18,.17-.19Z"/><path class="f" d="M64.37,71.47c.09,0,.18,.08,.18,.18,0,.09-.09,.17-.19,.16-.08,0-.15-.07-.16-.16,0-.09,.07-.18,.17-.18Z"/><path class="f" d="M86.15,96.52c0,.1-.09,.17-.19,.16-.1,0-.16-.1-.15-.2,.01-.08,.08-.14,.16-.14,.1,0,.18,.08,.17,.18Z"/><path class="f" d="M94.56,72.17c0,.09-.09,.18-.18,.18-.08,0-.16-.07-.16-.15-.01-.11,.08-.21,.2-.2,.08,0,.15,.08,.15,.16Z"/><path class="f" d="M90.56,93.49c.1,0,.18,.07,.19,.16,0,.09-.08,.18-.18,.18-.08,0-.16-.07-.16-.15-.01-.1,.06-.18,.16-.19Z"/><path class="f" d="M70.45,95.41c0,.09-.1,.17-.19,.16-.1,0-.17-.1-.15-.2,.02-.09,.08-.14,.17-.14,.1,0,.18,.09,.18,.18Z"/><path class="f" d="M69.47,66.39c-.01,.1-.1,.16-.2,.15-.08-.02-.14-.08-.14-.16,0-.1,.09-.18,.18-.17,.1,0,.18,.09,.16,.19Z"/><path class="f" d="M81.36,63.55c-.1,0-.18-.07-.19-.17,0-.08,.06-.16,.14-.17,.11-.02,.21,.07,.21,.18,0,.08-.07,.15-.16,.16Z"/><path class="f" d="M63.26,87.14c.09,0,.18,.08,.18,.18,0,.08-.06,.16-.14,.17-.09,.02-.19-.06-.2-.15,0-.1,.07-.19,.16-.2Z"/><path class="f" d="M83.15,63.87c-.1,0-.19-.07-.19-.16s.09-.18,.18-.17c.09,0,.15,.06,.16,.15,.02,.09-.06,.18-.16,.19Z"/><path class="f" d="M62.82,85.59c0,.1-.07,.18-.17,.19-.09,0-.18-.08-.18-.18,0-.1,.09-.17,.19-.17,.08,0,.15,.08,.16,.16Z"/><path class="f" d="M77.26,97.77c0,.1-.1,.16-.2,.15-.1-.02-.16-.11-.14-.21,.02-.08,.09-.14,.18-.13,.1,0,.18,.09,.16,.19Z"/><path class="f" d="M74.35,63.99c0,.09-.07,.18-.17,.18-.08,0-.16-.06-.17-.14-.02-.09,.05-.19,.15-.2,.09-.02,.18,.05,.19,.15Z"/><path class="f" d="M62.38,83.83c0,.1-.06,.18-.16,.2-.09,.01-.19-.07-.18-.16s.09-.18,.18-.18c.08,0,.16,.06,.16,.14Z"/><path class="f" d="M85.05,64.22c0,.08-.08,.15-.16,.15-.1,0-.18-.08-.18-.17,0-.1,.09-.18,.18-.17,.1,0,.17,.1,.16,.19Z"/><path class="f" d="M62.14,82.06c0,.09-.09,.18-.18,.17-.08,0-.16-.07-.16-.15,0-.11,.09-.21,.2-.19,.08,.01,.14,.09,.14,.17Z"/><path class="f" d="M65.97,91.9c0-.09,.09-.18,.19-.17,.09,0,.16,.1,.15,.2-.01,.08-.09,.15-.16,.15-.09,0-.18-.09-.17-.18Z"/><path class="f" d="M86.58,65.05c-.1,0-.18-.07-.19-.16,0-.09,.08-.18,.18-.18,.1,0,.17,.09,.17,.19,0,.08-.07,.15-.15,.15Z"/><path class="f" d="M91.89,92.22c.09,0,.18,.08,.17,.18,0,.09-.07,.16-.14,.17-.09,.01-.19-.06-.2-.16,0-.09,.07-.18,.17-.19Z"/><path class="f" d="M82.68,97.58c0,.1-.09,.17-.19,.16-.09,0-.16-.1-.15-.2,.02-.09,.08-.14,.17-.14,.09,0,.18,.09,.17,.18Z"/><path class="f" d="M80.88,97.83c0,.08-.07,.15-.16,.15-.09,0-.17-.08-.16-.18,0-.09,.07-.15,.16-.15,.1,0,.17,.08,.16,.18Z"/><path class="f" d="M66.74,68.75c0,.09-.09,.18-.18,.17-.09,0-.17-.09-.16-.19,0-.08,.08-.14,.16-.15,.1,0,.18,.07,.18,.17Z"/><path class="f" d="M87.77,95.72c0,.1-.08,.18-.17,.18-.08,0-.15-.07-.15-.16,0-.1,.08-.18,.17-.18,.08,0,.15,.07,.15,.16Z"/><path class="f" d="M89.69,66.91c-.09,0-.18-.07-.18-.16s.09-.18,.18-.18c.08,0,.15,.07,.16,.15,.02,.1-.05,.18-.15,.19Z"/><path class="f" d="M91.22,67.91c0,.1-.08,.18-.18,.17-.08,0-.14-.08-.15-.16,0-.1,.08-.18,.18-.17,.08,.01,.14,.08,.15,.16Z"/><path class="f" d="M78.91,98.04c-.1,0-.18-.07-.18-.17s.09-.18,.18-.17c.09,.01,.14,.06,.16,.15,.02,.1-.06,.18-.16,.19Z"/><path class="f" d="M94.94,88.09c-.09,0-.18-.09-.18-.18s.09-.17,.19-.16c.09,.01,.14,.07,.16,.16,.01,.09-.07,.18-.16,.18Z"/><path class="f" d="M64.22,88.98c-.02,.09-.12,.16-.21,.12-.08-.03-.13-.09-.12-.18,0-.1,.1-.17,.2-.15s.16,.11,.14,.21Z"/><path class="f" d="M94.24,89.51c0,.09-.07,.18-.17,.18-.09,0-.15-.05-.16-.14-.02-.1,.05-.19,.15-.2,.09,0,.18,.07,.18,.16Z"/><path class="f" d="M96.28,84.51c0,.09-.1,.16-.2,.14-.08-.02-.14-.09-.13-.17,0-.1,.1-.16,.2-.14,.08,.02,.14,.09,.13,.17Z"/><path class="f" d="M65.19,90.5c0,.09-.1,.16-.2,.14-.09-.02-.16-.11-.14-.21,.02-.08,.09-.14,.18-.13,.1,0,.17,.09,.16,.19Z"/><path class="f" d="M79.52,63.09c.09,0,.19,.07,.19,.16s-.09,.18-.18,.18c-.08,0-.15-.07-.16-.14-.01-.1,.06-.18,.16-.19Z"/><path class="f" d="M61.91,80.42c-.1,0-.18-.07-.18-.17,0-.08,.06-.16,.14-.17,.09-.02,.18,.05,.2,.15,.02,.09-.06,.18-.16,.19Z"/><path class="f" d="M96.42,77.25c.01,.09-.07,.18-.16,.18s-.18-.09-.18-.18c0-.08,.07-.15,.15-.16,.1-.01,.18,.05,.2,.15Z"/><path class="f" d="M88.33,65.74c0,.09-.09,.17-.19,.15-.09-.01-.14-.08-.14-.16,0-.1,.09-.17,.19-.15,.08,.01,.14,.08,.14,.16Z"/><path class="f" d="M62.33,76.49c.08,0,.16,.05,.17,.13,.02,.1-.05,.19-.14,.2-.08,0-.16-.05-.17-.13-.02-.1,.05-.19,.14-.2Z"/><path class="f" d="M62.82,75.09c-.09-.01-.16-.11-.14-.21,.02-.08,.1-.14,.18-.13,.09,.01,.16,.11,.14,.21-.02,.08-.09,.14-.18,.13Z"/><path class="f" d="M95.81,75.34c.1,0,.17,.09,.16,.19-.01,.09-.08,.14-.16,.14-.1,0-.17-.09-.16-.19,0-.08,.08-.14,.16-.14Z"/><path class="f" d="M93.28,70.63c0-.08,.08-.15,.16-.14,.08,0,.15,.08,.14,.16,0,.08-.08,.15-.16,.14-.09,0-.15-.08-.14-.16Z"/><path class="f" d="M75.46,97.45c0,.08-.08,.15-.16,.14-.08,0-.15-.08-.14-.16,0-.08,.08-.15,.16-.14,.08,0,.15,.08,.14,.16Z"/><path class="f" d="M80.63,95.5c.07,.02,.11,.06,.11,.14,0,.09-.08,.14-.16,.12-.07-.02-.1-.08-.09-.15,0-.07,.08-.11,.14-.11Z"/><path class="f" d="M87.43,67.79c-.02,.07-.06,.12-.14,.12-.08,0-.14-.08-.12-.16,.02-.07,.08-.11,.15-.09,.07,0,.11,.06,.11,.14Z"/><path class="f" d="M93.23,86.65c-.01,.07-.05,.12-.13,.12-.08,0-.16-.08-.13-.16,.02-.07,.07-.11,.15-.1s.11,.06,.11,.14Z"/><path class="f" d="M91.41,89.74c0,.08-.05,.12-.13,.13-.08,0-.16-.08-.14-.16,.02-.07,.07-.11,.14-.11,.07,0,.12,.07,.12,.14Z"/><path class="f" d="M84.1,94.76c.07,0,.12,.05,.13,.13,0,.08-.07,.16-.15,.14-.07-.02-.11-.07-.11-.14,0-.07,.07-.12,.13-.12Z"/><path class="f" d="M93.83,76.15c-.02,.07-.06,.11-.14,.11-.08,0-.14-.09-.12-.17,.02-.07,.08-.1,.15-.09,.07,0,.12,.08,.11,.15Z"/><path class="f" d="M87.36,93.21c.07,.02,.11,.06,.11,.14,0,.09-.09,.14-.17,.12-.07-.02-.1-.08-.09-.16,.01-.06,.09-.11,.15-.1Z"/><path class="f" d="M66.8,72.14c-.02,.07-.06,.11-.14,.11-.08,0-.14-.09-.11-.17,.02-.07,.08-.11,.15-.09,.07,.02,.11,.07,.1,.15Z"/><path class="f" d="M67.77,70.83c-.08,0-.13-.04-.14-.11-.01-.08,.03-.13,.1-.15,.08-.02,.16,.05,.16,.13,0,.08-.05,.12-.12,.13Z"/><path class="f" d="M73.66,66.57c-.02,.07-.06,.11-.14,.11-.08,0-.14-.09-.12-.17,.02-.07,.08-.11,.15-.09,.07,.01,.11,.07,.11,.14Z"/><path class="f" d="M85.86,66.89c0,.08-.04,.12-.11,.14-.08,.01-.15-.06-.15-.14,0-.05,.03-.1,.09-.11,.09-.02,.16,.03,.17,.11Z"/><path class="f" d="M80.7,65.52c-.02,.07-.06,.11-.14,.11-.08,0-.14-.09-.11-.17,.02-.07,.08-.1,.15-.09,.07,.02,.11,.07,.1,.15Z"/><path class="f" d="M84.05,66.36c-.07-.02-.11-.06-.11-.14,0-.08,.09-.14,.16-.12,.07,.02,.1,.08,.09,.15-.01,.06-.09,.11-.15,.11Z"/><path class="f" d="M94.33,81.58c-.07-.02-.11-.06-.11-.14,0-.07,.05-.12,.13-.12,.08,0,.15,.08,.13,.16-.02,.06-.09,.11-.15,.1Z"/><path class="f" d="M64.08,80.44c.08,0,.12,.05,.14,.12,.02,.09-.06,.16-.14,.15-.08-.01-.12-.06-.11-.14,0-.08,.05-.13,.12-.14Z"/><path class="f" d="M94.47,79.67c-.02,.07-.06,.11-.14,.11-.08,0-.14-.08-.12-.16,.02-.07,.08-.11,.15-.09,.07,.01,.11,.06,.11,.14Z"/><path class="f" d="M73.7,94.6c0,.08-.09,.14-.16,.12-.07-.02-.11-.08-.09-.15,.02-.07,.07-.11,.14-.1,.07,.01,.11,.06,.11,.14Z"/><path class="f" d="M67.9,90.45c0,.08-.05,.12-.12,.14-.07,0-.14-.05-.14-.12,0-.08,.05-.12,.12-.14,.07,0,.13,.05,.14,.12Z"/><path class="f" d="M82.5,95.37c0,.07-.05,.12-.12,.12-.08,0-.12-.04-.13-.11-.01-.08,.06-.16,.14-.14,.07,.01,.11,.06,.11,.13Z"/><path class="f" d="M77.15,95.53c0,.07-.04,.12-.11,.13s-.12-.03-.15-.1c-.02-.07,.05-.16,.13-.16,.08,0,.12,.05,.13,.12Z"/><path class="f" d="M64.64,84.16c0,.08-.05,.12-.12,.12-.08,0-.12-.05-.13-.11-.01-.08,.06-.16,.14-.14,.07,.01,.11,.06,.11,.14Z"/><path class="f" d="M93.72,85.1c-.07-.02-.12-.05-.12-.13,0-.08,.08-.15,.16-.13,.07,.02,.11,.07,.09,.15-.01,.07-.06,.11-.14,.11Z"/><path class="f" d="M65.17,85.87c0,.08-.05,.12-.12,.12-.07,0-.12-.04-.14-.11-.02-.08,.06-.16,.14-.14,.07,.01,.11,.05,.12,.13Z"/><path class="f" d="M65.17,75.32c-.02,.07-.06,.11-.14,.11-.07,0-.12-.05-.12-.13,0-.08,.08-.15,.16-.13,.06,.02,.11,.09,.1,.15Z"/><path class="f" d="M93.09,74.59c-.07,0-.12-.05-.13-.12,0-.08,.07-.15,.15-.14,.07,.02,.12,.06,.11,.14,0,.08-.05,.12-.13,.12Z"/><path class="f" d="M65.79,87.38c.07,.02,.11,.06,.11,.14,0,.07-.07,.13-.14,.11-.07-.02-.12-.06-.11-.14,0-.07,.07-.12,.14-.11Z"/><path class="f" d="M92.25,73c-.07-.02-.11-.06-.11-.14,0-.08,.09-.14,.16-.12,.07,.02,.11,.08,.09,.15-.02,.07-.07,.11-.14,.11Z"/><path class="f" d="M92.41,88.26c-.02,.07-.06,.12-.14,.11-.07,0-.12-.05-.12-.13,0-.08,.08-.15,.16-.13,.07,.02,.1,.07,.1,.14Z"/><path class="f" d="M68.88,69.4c.01-.07,.05-.12,.13-.12,.08,0,.15,.08,.13,.15-.02,.07-.07,.11-.14,.1-.07,0-.12-.06-.11-.13Z"/><path class="f" d="M78.94,95.7c0,.08-.05,.12-.12,.12-.07,0-.12-.04-.14-.11-.01-.08,.03-.12,.1-.14,.08-.02,.16,.05,.16,.14Z"/><path class="f" d="M88.9,68.83c0,.07-.05,.12-.12,.12-.08,0-.12-.04-.13-.11-.01-.08,.06-.16,.14-.14,.07,0,.11,.05,.11,.13Z"/><path class="f" d="M70.4,68.41c-.08,0-.12-.05-.14-.13,0-.07,.05-.14,.12-.13,.08,0,.12,.05,.14,.12,0,.07-.05,.14-.12,.14Z"/><path class="f" d="M72.07,93.82c0,.09-.05,.13-.12,.14-.08,0-.13-.05-.13-.12,0-.08,.05-.13,.12-.13,.08,0,.12,.05,.14,.11Z"/><path class="f" d="M66.69,89.16c-.07,0-.13-.06-.12-.13,0-.07,.07-.12,.14-.11,.06,.01,.09,.05,.1,.11,0,.07-.05,.13-.12,.13Z"/><path class="f" d="M64.51,77.14c-.07,0-.13-.05-.13-.12,0-.08,.05-.13,.12-.13s.12,.05,.13,.12c0,.08-.05,.11-.12,.13Z"/><path class="f" d="M82.35,65.63c.07,0,.13,.06,.12,.13,0,.07-.05,.13-.13,.12-.08,0-.12-.05-.12-.13,0-.07,.06-.12,.13-.12Z"/><path class="f" d="M75.36,65.96c0,.08-.04,.13-.11,.14-.08,.01-.13-.04-.14-.11-.01-.08,.04-.13,.11-.14,.08-.01,.12,.04,.14,.11Z"/><path class="f" d="M65.89,73.67c0,.07-.06,.13-.13,.12-.07,0-.13-.05-.12-.13,0-.08,.05-.13,.13-.12,.07,0,.11,.05,.12,.13Z"/><path class="f" d="M91.38,71.37c0,.07-.05,.14-.11,.14-.06,0-.11-.03-.12-.09-.02-.07,.01-.13,.09-.15,.07-.02,.14,.03,.14,.1Z"/><path class="f" d="M89.96,70c.02-.08,.07-.12,.14-.11,.07,.01,.12,.07,.11,.14,0,.07-.08,.12-.14,.11-.08-.02-.12-.07-.11-.14Z"/><path class="f" d="M69.16,91.73c0,.08-.04,.13-.11,.14-.08,.01-.13-.03-.14-.11-.01-.08,.03-.13,.11-.14,.08-.02,.13,.03,.14,.1Z"/><path class="f" d="M88.91,92.31c-.02,.07-.06,.12-.14,.11-.07,0-.12-.06-.11-.14,0-.07,.06-.12,.14-.11,.07,0,.11,.06,.11,.14Z"/><path class="f" d="M85.76,94.34c-.07-.02-.12-.06-.11-.14,.01-.07,.06-.12,.14-.11,.07,0,.12,.06,.11,.14,0,.08-.06,.11-.14,.11Z"/><path class="f" d="M75.26,95.29c-.07-.02-.12-.06-.11-.14,0-.08,.06-.12,.14-.11,.07,0,.12,.06,.11,.14-.01,.08-.06,.12-.14,.11Z"/><path class="f" d="M90.11,90.97c.07,.02,.12,.06,.11,.14,0,.07-.06,.12-.14,.11-.07,0-.12-.06-.11-.14,0-.08,.06-.11,.14-.11Z"/><path class="f" d="M94.13,83.1c.08,0,.13,.05,.13,.12,0,.08-.04,.13-.12,.13-.08,0-.13-.04-.13-.12,0-.08,.05-.11,.12-.13Z"/><path class="f" d="M64.33,82.37c0,.08-.04,.13-.11,.14-.08,.01-.13-.04-.14-.11-.01-.08,.04-.13,.11-.14,.08,0,.12,.04,.14,.11Z"/><path class="f" d="M64.32,78.77c0,.08-.04,.13-.11,.14-.08,.01-.13-.04-.14-.11-.01-.08,.04-.13,.11-.14,.08,0,.12,.04,.14,.11Z"/><path class="f" d="M94.15,78c-.08,0-.12-.05-.13-.12,0-.08,.05-.12,.12-.13,.08,0,.13,.04,.13,.12,0,.08-.05,.12-.12,.13Z"/><path class="f" d="M78.79,65.33c.07,.02,.12,.06,.11,.14,0,.07-.06,.12-.14,.11-.07,0-.12-.06-.11-.14,0-.08,.06-.12,.14-.11Z"/><path class="f" d="M77,65.74c-.08,0-.12-.05-.13-.12s.05-.12,.12-.13c.08,0,.12,.05,.13,.12,0,.08-.04,.12-.12,.13Z"/><path class="f" d="M72.04,67.33c-.02,.07-.06,.12-.14,.11-.07-.01-.12-.06-.11-.14,0-.07,.06-.12,.14-.11,.08,0,.12,.06,.11,.14Z"/><path class="f" d="M70.54,92.88c0,.07-.07,.12-.14,.11-.08-.02-.1-.07-.09-.14,0-.06,.06-.09,.11-.09,.07,0,.12,.06,.11,.13Z"/></g></g></g><g><path class="g" d="M179.73,92.14c2.54,0,4.67-.86,6.38-2.59,1.71-1.73,2.56-3.86,2.56-6.41s-.85-4.69-2.56-6.41c-1.71-1.73-3.83-2.59-6.38-2.59s-4.62,.86-6.33,2.59c-1.71,1.73-2.56,3.86-2.56,6.41s.85,4.69,2.56,6.41c1.71,1.73,3.82,2.59,6.33,2.59Zm8.94-21.57h4.37v25.14h-4.37v-4.33c-2.18,3.32-5.34,4.98-9.49,4.98-3.52,0-6.51-1.28-8.99-3.85-2.48-2.56-3.72-5.69-3.72-9.38s1.24-6.81,3.72-9.38c2.48-2.56,5.47-3.85,8.99-3.85,4.15,0,7.32,1.66,9.49,4.98v-4.32Z"/><path class="g" d="M209.49,70.3c2.95,0,5.31,.93,7.08,2.79,1.77,1.86,2.66,4.38,2.66,7.57v15.44h-4.37v-15.19c0-2.04-.55-3.63-1.66-4.75-1.1-1.12-2.63-1.69-4.57-1.69-2.18,0-3.93,.68-5.27,2.04-1.34,1.36-2.01,3.44-2.01,6.26v13.33h-4.37v-25.14h4.37v3.62c1.77-2.85,4.48-4.27,8.14-4.27Z"/><path class="g" d="M236.68,92.14c2.54,0,4.67-.86,6.38-2.59,1.71-1.73,2.56-3.86,2.56-6.41s-.85-4.69-2.56-6.41c-1.71-1.73-3.83-2.59-6.38-2.59s-4.62,.86-6.33,2.59c-1.71,1.73-2.56,3.86-2.56,6.41s.85,4.69,2.56,6.41c1.71,1.73,3.82,2.59,6.33,2.59Zm8.94-31.63h4.37v35.2h-4.37v-4.33c-2.18,3.32-5.34,4.98-9.49,4.98-3.52,0-6.51-1.28-8.99-3.85-2.48-2.56-3.72-5.69-3.72-9.38s1.24-6.81,3.72-9.38c2.48-2.56,5.47-3.85,8.99-3.85,4.15,0,7.32,1.66,9.49,4.98v-14.38Z"/><path class="g" d="M267.13,73.98c-2.34,0-4.29,.66-5.83,1.99-1.54,1.33-2.5,3.09-2.86,5.31h16.78c-.37-2.38-1.31-4.19-2.81-5.43-1.51-1.24-3.27-1.86-5.28-1.86Zm-8.69,11.11c.44,2.25,1.46,3.99,3.09,5.23,1.62,1.24,3.62,1.86,6,1.86,3.31,0,5.73-1.22,7.23-3.67l3.72,2.11c-2.44,3.79-6.13,5.68-11.05,5.68-3.98,0-7.23-1.25-9.72-3.75-2.49-2.5-3.74-5.66-3.74-9.48s1.22-6.94,3.67-9.45c2.44-2.51,5.61-3.77,9.49-3.77,3.68,0,6.69,1.3,9.02,3.9,2.33,2.6,3.49,5.72,3.49,9.38,0,.64-.05,1.29-.15,1.96h-21.04Z"/><rect class="g" x="283.56" y="58.99" width="4.37" height="36.71"/><path class="g" d="M292.66,95.71v-25.14h4.37v25.14h-4.37Zm2.21-29.72c-.84,0-1.54-.28-2.11-.85s-.85-1.26-.85-2.06,.28-1.5,.85-2.09c.57-.59,1.27-.88,2.11-.88s1.49,.29,2.06,.88c.57,.59,.85,1.28,.85,2.09s-.29,1.49-.85,2.06c-.57,.57-1.25,.85-2.06,.85Z"/><path class="g" d="M314.97,92.09c2.51,0,4.62-.85,6.33-2.56,1.71-1.71,2.56-3.84,2.56-6.39s-.85-4.68-2.56-6.39c-1.71-1.71-3.82-2.56-6.33-2.56s-4.57,.85-6.28,2.56c-1.71,1.71-2.56,3.84-2.56,6.39s.85,4.68,2.56,6.39c1.71,1.71,3.8,2.56,6.28,2.56Zm9.39,.45c-2.58,2.55-5.71,3.82-9.39,3.82s-6.81-1.27-9.37-3.82c-2.56-2.55-3.84-5.68-3.84-9.4s1.28-6.86,3.84-9.4c2.56-2.55,5.68-3.82,9.37-3.82s6.81,1.28,9.39,3.82c2.58,2.55,3.87,5.68,3.87,9.4s-1.29,6.86-3.87,9.4Z"/><path class="g" d="M344.71,69.91c2.95,0,5.31,.93,7.08,2.79,1.77,1.86,2.66,4.38,2.66,7.57v15.44h-4.37v-15.19c0-2.04-.55-3.63-1.66-4.75-1.1-1.12-2.63-1.69-4.57-1.69-2.18,0-3.93,.68-5.27,2.04-1.34,1.36-2.01,3.44-2.01,6.26v13.33h-4.37v-25.14h4.37v3.62c1.77-2.85,4.48-4.28,8.14-4.28Z"/><polygon class="g" points="363.1 91.28 378.27 91.28 378.27 95.71 358.43 95.71 358.43 60.5 363.1 60.5 363.1 91.28"/><path class="g" d="M395.56,92.14c2.54,0,4.67-.86,6.38-2.59,1.71-1.73,2.56-3.86,2.56-6.41s-.85-4.69-2.56-6.41c-1.71-1.73-3.83-2.59-6.38-2.59s-4.62,.86-6.33,2.59c-1.71,1.73-2.56,3.86-2.56,6.41s.85,4.69,2.56,6.41c1.71,1.73,3.82,2.59,6.33,2.59Zm8.94-21.57h4.37v25.14h-4.37v-4.33c-2.18,3.32-5.34,4.98-9.49,4.98-3.52,0-6.51-1.28-8.99-3.85-2.48-2.56-3.72-5.69-3.72-9.38s1.24-6.81,3.72-9.38c2.48-2.56,5.47-3.85,8.99-3.85,4.15,0,7.32,1.66,9.49,4.98v-4.32Z"/><path class="g" d="M426.16,92.14c2.51,0,4.62-.86,6.33-2.59,1.71-1.73,2.56-3.86,2.56-6.41s-.85-4.69-2.56-6.41c-1.71-1.73-3.82-2.59-6.33-2.59s-4.67,.86-6.38,2.59c-1.71,1.73-2.56,3.86-2.56,6.41s.85,4.69,2.56,6.41c1.71,1.73,3.83,2.59,6.38,2.59Zm.55-22.23c3.52,0,6.51,1.28,8.99,3.85,2.48,2.56,3.72,5.69,3.72,9.38s-1.24,6.81-3.72,9.38c-2.48,2.56-5.47,3.85-8.99,3.85-4.15,0-7.32-1.66-9.49-4.98v4.33h-4.37V60.5h4.37v14.38c2.18-3.32,5.34-4.98,9.49-4.98Z"/><path class="g" d="M448.75,77.28c0,.95,.49,1.71,1.48,2.29,.99,.57,2.16,1.06,3.53,1.46,1.36,.4,2.74,.8,4.12,1.21,1.38,.41,2.55,1.17,3.51,2.28,.96,1.12,1.44,2.55,1.44,4.3,0,2.28-.88,4.11-2.64,5.48-1.76,1.38-4.01,2.06-6.76,2.06-2.44,0-4.54-.54-6.28-1.61-1.74-1.07-2.98-2.5-3.72-4.28l3.77-2.16c.4,1.21,1.15,2.16,2.26,2.87,1.1,.71,2.43,1.06,3.97,1.06,1.44,0,2.63-.28,3.57-.83,.94-.55,1.41-1.41,1.41-2.59,0-.97-.49-1.75-1.46-2.33-.97-.59-2.14-1.08-3.51-1.49-1.36-.41-2.74-.82-4.12-1.24-1.38-.41-2.56-1.16-3.53-2.23-.97-1.07-1.46-2.45-1.46-4.12,0-2.18,.84-3.97,2.54-5.38,1.69-1.41,3.81-2.11,6.35-2.11,2.04,0,3.86,.46,5.45,1.38,1.59,.92,2.79,2.2,3.59,3.85l-3.67,2.06c-.9-2.15-2.7-3.22-5.38-3.22-1.24,0-2.29,.29-3.17,.86-.87,.58-1.3,1.39-1.3,2.44Z"/><path class="g" d="M146.55,91.93c3.58,0,6.51-1.26,8.79-3.77,2.28-2.51,3.41-5.65,3.41-9.4s-1.14-6.89-3.41-9.4c-2.28-2.51-5.21-3.77-8.79-3.77h-9.04v26.35h9.04Zm0-30.78c4.79,0,8.76,1.7,11.93,5.1,3.17,3.4,4.75,7.57,4.75,12.5s-1.58,9.09-4.75,12.5c-3.17,3.4-7.14,5.1-11.93,5.1h-13.71V61.16h13.71Z"/></g></svg>